<svg width="24" height="24" viewBox="0 0 24 24" fill="none" xmlns="http://www.w3.org/2000/svg">
<path d="M10.8496 23.9082L8.33522 21.3938L12.7354 16.9936L15.2498 19.508L10.8496 23.9082ZM7.7066 20.7652L5.19221 18.2508L15.2498 8.19321L17.7642 10.7076L7.7066 20.7652ZM18.3928 10.079L15.8784 7.56459L19.4863 3.9567L22.0007 6.47109L18.3928 10.079ZM4.56359 17.6222L2.0492 15.1078L7.70659 9.45039L10.221 11.9648L4.56359 17.6222ZM10.8496 11.3362L8.33518 8.8218L16.3433 0.813692L18.8577 3.32808L10.8496 11.3362ZM23.1073 11.6505C23.2809 11.4769 23.2809 11.1955 23.1073 11.0219L21.2215 9.13608C21.0479 8.9625 20.7665 8.9625 20.5929 9.13608L13.364 16.365L15.8784 18.8794L23.1073 11.6505Z" fill="#120B8D"/>
<path d="M12.7341 3.28734L4.24805 11.7734L1.73363 9.25902L10.2197 0.772918C10.3933 0.599336 10.6748 0.599336 10.8483 0.772918L12.7341 2.65872C12.9077 2.8323 12.9077 3.11375 12.7341 3.28734Z" fill="#FF2E00"/>
</svg>
