<svg width="24" height="24" viewBox="0 0 24 24" fill="none" xmlns="http://www.w3.org/2000/svg">
<path d="M10.8594 18.3096H21.7733V20.0537H10.8594V18.3096ZM20.8738 1.71289H18.6738V3.74078L20.8738 5.40706V1.71289Z" fill="#FF2E00"/>
<path d="M2.12891 11.5932V23.2207H6.43503V20.0659H9.50316V16.967H12.5713V13.8338H15.6394V10.7177H20.3829L11.9411 4.39648L2.12891 11.5932Z" fill="#120B8D"/>
<path d="M7.79507 21.4208H21.7631V23.2203H7.79507V21.4208ZM0.353516 8.97811V10.3751H1.49726L11.951 2.70787L22.1903 10.3751H23.54V9.10049L11.944 0.353027L0.353516 8.97811ZM16.9995 12.0726H21.7631V13.8335H16.9995V12.0726ZM13.9313 15.1887H21.7631V16.9666H13.9313V15.1887Z" fill="#FF2E00"/>
</svg>
