<svg width="168" height="53" viewBox="0 0 168 53" fill="none" xmlns="http://www.w3.org/2000/svg">
<path d="M57.8538 25.1644V18.4492C54.9101 18.4492 54.9102 18.4492 54.9102 18.9188V34.885C57.8538 34.885 57.8538 34.885 57.8538 34.4155V27.1836C58.1376 27.3012 58.396 27.4655 58.6285 27.7003C60.1003 29.2031 60.3325 31.9968 60.3325 34.8613C61.0553 34.9084 61.7524 34.9318 62.3982 34.9318C63.431 34.9318 63.6116 34.8146 63.6116 34.3918C63.6116 30.2361 62.7079 27.0664 60.8231 25.47L63.7665 19.0834C63.9733 18.6138 63.5603 18.4258 62.5271 18.4258C62.0368 18.4258 61.3653 18.4729 60.6679 18.6138L57.8538 25.1644ZM67.2267 18.4492L68.3112 22.6993C68.6725 25.0001 69.1375 27.0898 69.3443 28.6394C69.3697 27.1131 69.7057 25.0001 70.1187 22.6993L70.7386 19.3182C70.8675 18.7311 71.0223 18.4492 71.6938 18.4492C72.3909 18.4492 73.0624 18.4492 73.7595 18.4492C73.7595 18.7311 71.2548 30.0952 70.971 31.2457C70.4801 33.5231 70.1444 35.026 68.1303 35.0023C66.9945 35.026 65.9357 34.6499 65.8325 34.1336C65.7036 33.5231 66.0909 32.7015 66.3231 32.2553C66.7361 32.4664 67.3303 32.6778 67.5881 32.6778C68.0014 32.6778 68.1823 32.1378 68.2599 31.5744C67.4851 29.9075 65.3419 22.5347 64.6191 19.8345C64.4639 19.2945 64.3866 19.0129 64.3866 18.8252C64.3866 18.5197 64.6447 18.4492 65.1613 18.4492H67.2267ZM75.1794 18.4492C74.7407 18.4492 74.6631 18.5901 74.6631 18.9188V34.885C77.5292 34.885 77.5552 34.885 77.5552 34.4155V28.5455H77.7357C80.1371 28.5455 82.6418 27.5359 82.6418 23.2861C82.6418 19.4354 80.8602 18.4492 77.6068 18.4492H75.1794ZM77.5552 26.1269V20.7269H78.2523C79.0526 20.7269 79.3884 21.4546 79.3884 22.9575C79.3884 25.5872 78.8721 26.1269 78.0714 26.1269H77.5552ZM88.5811 18.0972C86.2569 18.0972 83.4165 19.5059 83.4165 27.2073C83.4165 33.7816 84.8107 35.2371 87.7287 35.2371C89.6909 35.2371 90.8789 34.6032 90.8789 33.4997C90.8789 32.9363 90.698 32.3492 90.4915 31.9501C90.0009 32.1849 89.2782 32.3024 88.4775 32.3024C87.0316 32.3024 86.4634 31.0814 86.4634 26.9959C86.4634 21.8771 87.8063 20.6564 89.2782 20.6564C89.8461 20.6564 90.3107 20.8441 90.6204 21.0555C90.8273 20.6564 91.0338 20.1164 91.0338 19.4822C91.0338 18.7778 90.7753 18.0972 88.5811 18.0972ZM94.9587 25.1644V18.4492C92.0153 18.4492 92.0153 18.4492 92.0153 18.9188V34.885C94.9586 34.885 94.9587 34.885 94.9587 34.4155V27.1836C95.2428 27.3012 95.5009 27.4655 95.7334 27.7003C97.2052 29.2031 97.4377 31.9968 97.4377 34.8613C98.1604 34.9084 98.8576 34.9318 99.5031 34.9318C100.536 34.9318 100.717 34.8146 100.717 34.3918C100.717 30.2361 99.8131 27.0664 97.928 25.47L100.872 19.0834C101.078 18.6138 100.665 18.4258 99.6323 18.4258C99.1417 18.4258 98.4702 18.4729 97.7731 18.6138L94.9587 25.1644ZM107.611 28.5923C107.998 27.7944 108.825 24.6952 109.134 23.4741C108.954 24.8829 108.773 27.8175 108.773 28.8508V34.885C111.717 34.885 111.665 34.885 111.665 34.4155V18.4492C108.876 18.4492 108.851 18.4492 108.566 19.0834L106.087 24.8124C105.855 25.3995 105.132 27.9821 104.693 29.4376C104.822 27.9821 105.003 25.5872 105.003 24.6247V18.4492C102.059 18.4492 102.111 18.4492 102.111 18.9188V34.885C104.925 34.885 104.874 34.885 105.158 34.2512L107.611 28.5923ZM116.287 13.1196C115.203 13.5187 114.892 13.9412 114.892 14.5988C114.892 15.9137 116.597 17.2282 118.223 17.2282C120.134 17.2282 121.296 16.1718 121.942 14.5751C121.761 13.7301 120.599 12.7202 120.057 13.4716C119.695 14.0354 119.256 14.7397 118.249 14.7397C117.242 14.7397 116.571 13.7769 116.287 13.1196ZM118.766 28.5923C119.153 27.7944 119.979 24.6952 120.289 23.4741C120.108 24.8829 119.928 27.8175 119.928 28.8508V34.885C122.871 34.885 122.82 34.885 122.82 34.4155V18.4492C120.031 18.4492 120.005 18.4492 119.721 19.0834L117.242 24.8124C117.01 25.3995 116.287 27.9821 115.848 29.4376C115.977 27.9821 116.157 25.5872 116.157 24.6247V18.4492C113.214 18.4492 113.266 18.4492 113.266 18.9188V34.885C116.08 34.885 116.029 34.885 116.313 34.2512L118.766 28.5923ZM137.382 18.4492V32.4197H138.467V36.4162C138.467 37.1663 137.873 37.1673 136.453 37.1673C136.143 36.2048 135.782 36.3876 135.601 34.885H130.204C130.023 36.411 129.869 35.8758 129.584 36.5334C129.326 37.1205 128.758 37.1673 127.364 37.1673V32.8892C127.364 32.3959 127.648 32.4434 128.5 32.4197C129.714 30.2595 130.049 26.3149 130.307 18.9188C130.307 18.4492 130.256 18.4492 133.2 18.4492H137.382ZM134.542 32.4197V20.9146H133.096C132.864 26.1506 132.477 29.649 131.392 32.4197H134.542ZM139.629 34.885H143.011C146.497 34.885 147.84 32.396 147.84 29.2967C147.84 26.5497 146.136 26.0097 144.87 25.8925C146.007 25.7515 147.246 24.5305 147.246 22.1356C147.246 19.0834 145.051 18.4492 142.882 18.4492H140.352C139.784 18.4492 139.629 18.6138 139.629 18.9188V34.885ZM142.572 20.7503H143.166C143.631 20.7503 144.044 21.0555 144.044 22.6993C144.044 24.0376 143.683 24.9296 143.063 24.9296H142.572V20.7503ZM142.572 27.1368H143.141C143.941 27.1368 144.38 27.4184 144.38 29.5318C144.38 31.4571 143.889 32.6073 143.089 32.6073H142.572V27.1368ZM148.615 26.5731C148.615 33.5231 149.88 35.0961 153.262 35.0961C156.645 35.0961 158.142 33.0772 158.142 26.4793C158.142 19.9988 156.903 18.2381 153.546 18.2381C150.216 18.2381 148.615 20.1869 148.615 26.5731ZM151.92 27.1602C151.92 22.5584 152.255 20.9383 153.443 20.9383C154.837 20.9383 154.967 22.4879 154.967 26.5731C154.967 30.7291 154.683 32.3729 153.417 32.3729C152.1 32.3729 151.92 30.8233 151.92 27.1602ZM159.95 18.4492C159.511 18.4492 159.434 18.5901 159.434 18.9188V34.885C162.3 34.885 162.326 34.885 162.326 34.4155V28.5455H162.506C164.908 28.5455 167.412 27.5359 167.412 23.2861C167.412 19.4354 165.631 18.4492 162.377 18.4492H159.95ZM162.326 26.1269V20.7269H163.023C163.823 20.7269 164.159 21.4546 164.159 22.9575C164.159 25.5872 163.643 26.1269 162.842 26.1269H162.326Z" fill="#120B8D"/>
<path d="M55.0352 48.901C55.0352 49.1331 55.0797 49.3494 55.1683 49.5491C55.2573 49.7488 55.3761 49.9232 55.5251 50.072C55.6745 50.2207 55.8498 50.3392 56.0501 50.4275C56.2511 50.5159 56.4635 50.56 56.6875 50.56C56.9207 50.56 57.1379 50.5159 57.3385 50.4275C57.5392 50.3392 57.7142 50.2207 57.8636 50.072C58.0129 49.9232 58.1321 49.7488 58.2207 49.5491C58.3094 49.3494 58.3538 49.1331 58.3538 48.901V43.5753C58.3538 43.3522 58.3094 43.1408 58.2207 42.9408C58.1321 42.741 58.0129 42.5667 57.8636 42.4179C57.7142 42.2692 57.5392 42.1507 57.3385 42.0627C57.1379 41.9743 56.9207 41.9302 56.6875 41.9302C56.4635 41.9302 56.2511 41.9743 56.0501 42.0627C55.8498 42.1507 55.6745 42.2692 55.5251 42.4179C55.3761 42.5667 55.2573 42.741 55.1683 42.9408C55.0797 43.1408 55.0352 43.3522 55.0352 43.5753V48.901ZM56.2813 43.5753C56.2813 43.4636 56.3209 43.3684 56.4005 43.2895C56.4797 43.2103 56.5755 43.171 56.6875 43.171C56.809 43.171 56.9093 43.2103 56.9885 43.2895C57.0677 43.3684 57.1077 43.4636 57.1077 43.5753V48.901C57.1077 49.0123 57.0677 49.1101 56.9885 49.1935C56.9093 49.2773 56.809 49.3192 56.6875 49.3192C56.5755 49.3192 56.4797 49.2773 56.4005 49.1935C56.3209 49.1101 56.2813 49.0123 56.2813 48.901V43.5753ZM60.5098 41.9997C60.3419 41.9997 60.1971 42.0601 60.0757 42.1809C59.9546 42.302 59.8939 42.4504 59.8939 42.6271C59.8939 42.7943 59.9546 42.9385 60.0757 43.0593C60.1971 43.1801 60.3419 43.2405 60.5098 43.2405H61.3362V49.9047C61.3362 50.0814 61.3965 50.2301 61.518 50.3509C61.6394 50.4717 61.7888 50.5321 61.966 50.5321C62.1339 50.5321 62.2787 50.4717 62.4002 50.3509C62.5216 50.2301 62.5823 50.0814 62.5823 49.9047V43.2405H63.4223C63.5902 43.2405 63.735 43.1801 63.8564 43.0593C63.9779 42.9385 64.0382 42.7943 64.0382 42.6271C64.0382 42.4504 63.9779 42.302 63.8564 42.1809C63.735 42.0601 63.5902 41.9997 63.4223 41.9997H60.5098ZM66.0267 49.2354C65.8581 49.2354 65.7136 49.2958 65.5925 49.4166C65.4711 49.5374 65.4104 49.6816 65.4104 49.8489V51.7171C65.4104 51.8843 65.4711 52.0285 65.5925 52.1493C65.7136 52.2701 65.8581 52.3305 66.0267 52.3305C66.2036 52.3305 66.353 52.2701 66.4744 52.1493C66.5958 52.0285 66.6565 51.8843 66.6565 51.7171V50.4762H68.9109V51.7171C68.9109 51.8843 68.9716 52.0285 69.0927 52.1493C69.2141 52.2701 69.3586 52.3305 69.5268 52.3305C69.7041 52.3305 69.8535 52.2701 69.9749 52.1493C70.0963 52.0285 70.1571 51.8843 70.1571 51.7171V49.8489C70.1571 49.6816 70.0963 49.5374 69.9749 49.4166C69.8535 49.2958 69.7041 49.2354 69.5268 49.2354V42.6271C69.5268 42.4504 69.4664 42.302 69.345 42.1809C69.2232 42.0601 69.0788 41.9997 68.9109 41.9997H67.3426C67.1838 41.9997 67.0465 42.051 66.9296 42.1533C66.8127 42.2552 66.7449 42.3855 66.7264 42.5436L66.0267 49.2354ZM67.8748 43.1986H68.2807V49.2354H67.2868L67.8748 43.1986ZM75.2395 43.5753C75.2395 43.3522 75.1953 43.1408 75.1067 42.9408C75.0177 42.741 74.8989 42.5667 74.7495 42.4179C74.6001 42.2692 74.4248 42.1507 74.2245 42.0627C74.0238 41.9743 73.8066 41.9302 73.5735 41.9302C73.3494 41.9302 73.1371 41.9743 72.9361 42.0627C72.7354 42.1507 72.5604 42.2692 72.4111 42.4179C72.262 42.5667 72.1429 42.741 72.0542 42.9408C71.9656 43.1408 71.9211 43.3522 71.9211 43.5753V48.901C71.9211 49.1331 71.9656 49.3494 72.0542 49.5491C72.1429 49.7488 72.262 49.9232 72.4111 50.072C72.5604 50.2207 72.7354 50.3392 72.9361 50.4275C73.1371 50.5159 73.3494 50.56 73.5735 50.56C73.8066 50.56 74.0238 50.5159 74.2245 50.4275C74.4248 50.3392 74.6001 50.2207 74.7495 50.072C74.8989 49.9232 75.0177 49.7488 75.1067 49.5491C75.1953 49.3494 75.2395 49.1331 75.2395 48.901V48.2037C75.2395 48.0271 75.1791 47.8784 75.0576 47.7576C74.9362 47.6368 74.7868 47.5764 74.6096 47.5764C74.4417 47.5764 74.2969 47.6368 74.1754 47.7576C74.054 47.8784 73.9933 48.0271 73.9933 48.2037V48.901C73.9933 49.0123 73.9537 49.1101 73.8744 49.1935C73.7952 49.2773 73.6946 49.3192 73.5735 49.3192C73.4611 49.3192 73.3657 49.2773 73.2864 49.1935C73.2069 49.1101 73.1673 49.0123 73.1673 48.901V46.6979H74.6096C74.7868 46.6979 74.9362 46.6401 75.0576 46.5239C75.1791 46.4076 75.2395 46.2612 75.2395 46.0845V43.5753ZM73.1673 45.4711V43.5753C73.1673 43.4636 73.2069 43.3684 73.2864 43.2895C73.3657 43.2103 73.4611 43.171 73.5735 43.171C73.6946 43.171 73.7952 43.2103 73.8744 43.2895C73.9537 43.3684 73.9933 43.4636 73.9933 43.5753V45.4711H73.1673ZM78.8799 41.9717H79.916C80.0842 41.9717 80.229 42.0325 80.3501 42.1533C80.4716 42.2741 80.5323 42.4228 80.5323 42.5991V49.8768C80.5323 50.044 80.4716 50.1882 80.3501 50.309C80.229 50.4298 80.0842 50.4902 79.916 50.4902C79.7387 50.4902 79.5894 50.4298 79.4679 50.309C79.3468 50.1882 79.2861 50.044 79.2861 49.8768V43.2126H78.8799C78.7585 43.2126 78.6582 43.2522 78.5789 43.3311C78.4994 43.4103 78.4598 43.51 78.4598 43.6308V49.8768C78.4598 50.044 78.3994 50.1882 78.2779 50.309C78.1565 50.4298 78.0117 50.4902 77.8438 50.4902C77.6665 50.4902 77.5172 50.4298 77.3957 50.309C77.2743 50.1882 77.2136 50.044 77.2136 49.8768V43.6308C77.2136 43.3986 77.2581 43.1824 77.3467 42.9826C77.4354 42.7829 77.5545 42.6086 77.7039 42.4598C77.8529 42.3111 78.0282 42.1926 78.2286 42.1042C78.4296 42.0159 78.6465 41.9717 78.8799 41.9717ZM82.5343 48.901C82.5343 49.1331 82.5788 49.3494 82.6675 49.5491C82.7561 49.7488 82.8753 49.9232 83.0243 50.072C83.1737 50.2207 83.3487 50.3392 83.5493 50.4275C83.7503 50.5159 83.9627 50.56 84.1867 50.56C84.4198 50.56 84.637 50.5159 84.8377 50.4275C85.038 50.3392 85.2134 50.2207 85.3627 50.072C85.5121 49.9232 85.6309 49.7488 85.7199 49.5491C85.8085 49.3494 85.8527 49.1331 85.8527 48.901V43.5753C85.8527 43.3522 85.8085 43.1408 85.7199 42.9408C85.6309 42.741 85.5121 42.5667 85.3627 42.4179C85.2134 42.2692 85.038 42.1507 84.8377 42.0627C84.637 41.9743 84.4198 41.9302 84.1867 41.9302C83.9627 41.9302 83.7503 41.9743 83.5493 42.0627C83.3487 42.1507 83.1737 42.2692 83.0243 42.4179C82.8753 42.5667 82.7561 42.741 82.6675 42.9408C82.5788 43.1408 82.5343 43.3522 82.5343 43.5753V48.901ZM83.7805 43.5753C83.7805 43.4636 83.8201 43.3684 83.8997 43.2895C83.9789 43.2103 84.0743 43.171 84.1867 43.171C84.3078 43.171 84.4084 43.2103 84.4877 43.2895C84.5669 43.3684 84.6065 43.4636 84.6065 43.5753V48.901C84.6065 49.0123 84.5669 49.1101 84.4877 49.1935C84.4084 49.2773 84.3078 49.3192 84.1867 49.3192C84.0743 49.3192 83.9789 49.2773 83.8997 49.1935C83.8201 49.1101 83.7805 49.0123 83.7805 48.901V43.5753ZM89.9133 45.4711H89.4931C89.3811 45.4711 89.2853 45.4295 89.2061 45.3458C89.1266 45.262 89.0873 45.1645 89.0873 45.0528V42.5715C89.0873 42.404 89.0266 42.2601 88.9051 42.1393C88.7837 42.0185 88.6343 41.9581 88.457 41.9581C88.2892 41.9581 88.1443 42.0185 88.0229 42.1393C87.9015 42.2601 87.8411 42.404 87.8411 42.5715V45.0528C87.8411 45.2759 87.8852 45.4873 87.9739 45.6874C88.0629 45.8871 88.1817 46.0615 88.3307 46.2102C88.4801 46.3589 88.6554 46.4775 88.8558 46.5658C89.0567 46.6538 89.2691 46.6979 89.4931 46.6979H89.9133V49.9047C89.9133 50.0814 89.974 50.2301 90.0951 50.3509C90.2165 50.4717 90.3614 50.5321 90.5292 50.5321C90.7068 50.5321 90.8562 50.4717 90.9773 50.3509C91.0987 50.2301 91.1595 50.0814 91.1595 49.9047V42.5715C91.1595 42.404 91.0987 42.2601 90.9773 42.1393C90.8562 42.0185 90.7068 41.9581 90.5292 41.9581C90.3614 41.9581 90.2165 42.0185 90.0951 42.1393C89.974 42.2601 89.9133 42.404 89.9133 42.5715V45.4711ZM96.4659 42.5715C96.4659 42.404 96.4055 42.2601 96.2841 42.1393C96.1626 42.0185 96.0133 41.9581 95.836 41.9581C95.6678 41.9581 95.523 42.0185 95.4019 42.1393C95.2805 42.2601 95.2197 42.404 95.2197 42.5715V45.4711H94.3937V42.5715C94.3937 42.404 94.333 42.2601 94.2119 42.1393C94.0904 42.0185 93.9411 41.9581 93.7635 41.9581C93.5956 41.9581 93.4508 42.0185 93.3294 42.1393C93.2083 42.2601 93.1475 42.404 93.1475 42.5715V49.9047C93.1475 50.0814 93.2083 50.2301 93.3294 50.3509C93.4508 50.4717 93.5956 50.5321 93.7635 50.5321C93.9411 50.5321 94.0904 50.4717 94.2119 50.3509C94.333 50.2301 94.3937 50.0814 94.3937 49.9047V46.6979H95.2197V49.9047C95.2197 50.0814 95.2805 50.2301 95.4019 50.3509C95.523 50.4717 95.6678 50.5321 95.836 50.5321C96.0133 50.5321 96.1626 50.4717 96.2841 50.3509C96.4055 50.2301 96.4659 50.0814 96.4659 49.9047V42.5715ZM103.523 42.5715C103.523 42.404 103.462 42.2601 103.341 42.1393C103.22 42.0185 103.075 41.9581 102.906 41.9581C102.729 41.9581 102.58 42.0185 102.458 42.1393C102.337 42.2601 102.277 42.404 102.277 42.5715V49.9047C102.277 50.0814 102.337 50.2301 102.458 50.3509C102.58 50.4717 102.729 50.5321 102.906 50.5321C103.075 50.5321 103.22 50.4717 103.341 50.3509C103.462 50.2301 103.523 50.0814 103.523 49.9047V42.5715ZM99.7005 42.5715C99.7005 42.404 99.6398 42.2601 99.5183 42.1393C99.3969 42.0185 99.2521 41.9581 99.0842 41.9581C98.9069 41.9581 98.7576 42.0185 98.6361 42.1393C98.5147 42.2601 98.454 42.404 98.454 42.5715V49.8489C98.454 50.0255 98.5147 50.1742 98.6361 50.295C98.7576 50.4158 98.9069 50.4762 99.0842 50.4762H100.12C100.344 50.4762 100.557 50.4321 100.757 50.3437C100.958 50.2554 101.133 50.1369 101.282 49.9882C101.432 49.8394 101.551 49.6654 101.64 49.4653C101.728 49.2656 101.773 49.0497 101.773 48.8172V47.1162C101.773 46.8931 101.728 46.6817 101.64 46.482C101.551 46.2823 101.432 46.1079 101.282 45.9592C101.133 45.8104 100.958 45.6919 100.757 45.6036C100.557 45.5153 100.344 45.4711 100.12 45.4711H99.7005V42.5715ZM99.7005 49.2354V46.6979H100.12C100.232 46.6979 100.328 46.7398 100.407 46.8236C100.487 46.9071 100.527 47.0048 100.527 47.1162V48.8172C100.527 48.938 100.487 49.038 100.407 49.1169C100.328 49.1958 100.232 49.2354 100.12 49.2354H99.7005ZM108.829 43.5753C108.829 43.3522 108.785 43.1408 108.696 42.9408C108.607 42.741 108.489 42.5667 108.339 42.4179C108.19 42.2692 108.015 42.1507 107.814 42.0627C107.614 41.9743 107.396 41.9302 107.163 41.9302C106.939 41.9302 106.726 41.9743 106.526 42.0627C106.325 42.1507 106.15 42.2692 106.001 42.4179C105.852 42.5667 105.733 42.741 105.644 42.9408C105.555 43.1408 105.511 43.3522 105.511 43.5753V48.901C105.511 49.1331 105.555 49.3494 105.644 49.5491C105.733 49.7488 105.852 49.9232 106.001 50.072C106.15 50.2207 106.325 50.3392 106.526 50.4275C106.726 50.5159 106.939 50.56 107.163 50.56C107.396 50.56 107.614 50.5159 107.814 50.4275C108.015 50.3392 108.19 50.2207 108.339 50.072C108.489 49.9232 108.607 49.7488 108.696 49.5491C108.785 49.3494 108.829 49.1331 108.829 48.901V48.2037C108.829 48.0271 108.768 47.8784 108.647 47.7576C108.526 47.6368 108.377 47.5764 108.199 47.5764C108.031 47.5764 107.886 47.6368 107.765 47.7576C107.644 47.8784 107.583 48.0271 107.583 48.2037V48.901C107.583 49.0123 107.543 49.1101 107.464 49.1935C107.385 49.2773 107.284 49.3192 107.163 49.3192C107.051 49.3192 106.955 49.2773 106.876 49.1935C106.796 49.1101 106.757 49.0123 106.757 48.901V46.6979H108.199C108.377 46.6979 108.526 46.6401 108.647 46.5239C108.768 46.4076 108.829 46.2612 108.829 46.0845V43.5753ZM106.757 45.4711V43.5753C106.757 43.4636 106.796 43.3684 106.876 43.2895C106.955 43.2103 107.051 43.171 107.163 43.171C107.284 43.171 107.385 43.2103 107.464 43.2895C107.543 43.3684 107.583 43.4636 107.583 43.5753V45.4711H106.757ZM120.198 45.8338L119.037 42.3764C118.99 42.2462 118.913 42.1439 118.805 42.0695C118.698 41.9951 118.574 41.9581 118.434 41.9581C118.266 41.9581 118.122 42.0185 118 42.1393C117.879 42.2601 117.818 42.404 117.818 42.5715V49.9047C117.818 50.0814 117.879 50.2301 118 50.3509C118.122 50.4717 118.266 50.5321 118.434 50.5321C118.612 50.5321 118.761 50.4717 118.882 50.3509C119.004 50.2301 119.064 50.0814 119.064 49.9047V45.9033L119.022 44.8856L119.148 45.3458L120.198 48.7058L121.263 45.3458L121.389 44.8856L121.347 45.9033V49.9047C121.347 50.0814 121.407 50.2301 121.529 50.3509C121.65 50.4717 121.795 50.5321 121.963 50.5321C122.14 50.5321 122.289 50.4717 122.411 50.3509C122.532 50.2301 122.593 50.0814 122.593 49.9047V42.5715C122.593 42.404 122.532 42.2601 122.411 42.1393C122.289 42.0185 122.14 41.9581 121.963 41.9581C121.832 41.9581 121.713 41.9951 121.606 42.0695C121.498 42.1439 121.421 42.2462 121.375 42.3764C121.365 42.3949 121.323 42.5157 121.249 42.7388C121.174 42.9619 121.078 43.2476 120.962 43.5961C120.845 43.9445 120.731 44.2839 120.618 44.6138C120.507 44.9437 120.408 45.2295 120.325 45.4711C120.241 45.713 120.198 45.8338 120.198 45.8338ZM124.581 48.901C124.581 49.1331 124.604 49.3494 124.65 49.5491C124.698 49.7488 124.772 49.9232 124.875 50.072C124.977 50.2207 125.108 50.3392 125.267 50.4275C125.426 50.5159 125.612 50.56 125.827 50.56C126.07 50.56 126.252 50.4925 126.373 50.3577C126.494 50.223 126.571 50.0976 126.604 49.9814C126.637 49.8651 126.653 49.7979 126.653 49.779V49.9047C126.653 50.0814 126.714 50.2301 126.835 50.3509C126.956 50.4717 127.101 50.5321 127.269 50.5321C127.446 50.5321 127.596 50.4717 127.717 50.3509C127.839 50.2301 127.899 50.0814 127.899 49.9047V43.5753C127.899 43.3522 127.855 43.1408 127.766 42.9408C127.678 42.741 127.558 42.5667 127.409 42.4179C127.26 42.2692 127.085 42.1507 126.884 42.0627C126.683 41.9743 126.466 41.9302 126.233 41.9302C126.009 41.9302 125.797 41.9743 125.596 42.0627C125.395 42.1507 125.22 42.2692 125.071 42.4179C124.922 42.5667 124.802 42.741 124.714 42.9408C124.625 43.1408 124.581 43.3522 124.581 43.5753V44.2722C124.581 44.4488 124.641 44.5976 124.763 44.7184C124.884 44.8392 125.029 44.8996 125.197 44.8996C125.374 44.8996 125.524 44.8392 125.645 44.7184C125.766 44.5976 125.827 44.4488 125.827 44.2722V43.5753C125.827 43.4636 125.866 43.3684 125.946 43.2895C126.025 43.2103 126.121 43.171 126.233 43.171C126.354 43.171 126.455 43.2103 126.534 43.2895C126.613 43.3684 126.653 43.4636 126.653 43.5753V45.4016H126.233C126.009 45.4016 125.797 45.4458 125.596 45.5341C125.395 45.6224 125.22 45.7406 125.071 45.8894C124.922 46.0381 124.802 46.2125 124.714 46.4122C124.625 46.6122 124.581 46.8282 124.581 47.0607V48.901ZM126.653 48.901C126.653 49.0123 126.613 49.1101 126.534 49.1935C126.455 49.2773 126.354 49.3192 126.233 49.3192C126.121 49.3192 126.025 49.2773 125.946 49.1935C125.866 49.1101 125.827 49.0123 125.827 48.901V47.0607C125.827 46.9399 125.866 46.8398 125.946 46.7609C126.025 46.6817 126.121 46.6424 126.233 46.6424H126.653V48.901ZM130.055 41.9997C129.887 41.9997 129.743 42.0601 129.621 42.1809C129.5 42.302 129.439 42.4504 129.439 42.6271C129.439 42.7943 129.5 42.9385 129.621 43.0593C129.743 43.1801 129.887 43.2405 130.055 43.2405H130.881V49.9047C130.881 50.0814 130.942 50.2301 131.063 50.3509C131.185 50.4717 131.334 50.5321 131.512 50.5321C131.679 50.5321 131.824 50.4717 131.946 50.3509C132.067 50.2301 132.128 50.0814 132.128 49.9047V43.2405H132.968C133.136 43.2405 133.28 43.1801 133.402 43.0593C133.523 42.9385 133.584 42.7943 133.584 42.6271C133.584 42.4504 133.523 42.302 133.402 42.1809C133.28 42.0601 133.136 41.9997 132.968 41.9997H130.055ZM138.442 43.5753C138.442 43.3522 138.398 43.1408 138.309 42.9408C138.221 42.741 138.102 42.5667 137.952 42.4179C137.803 42.2692 137.628 42.1507 137.427 42.0627C137.226 41.9743 137.009 41.9302 136.776 41.9302C136.552 41.9302 136.34 41.9743 136.139 42.0627C135.938 42.1507 135.763 42.2692 135.614 42.4179C135.465 42.5667 135.346 42.741 135.257 42.9408C135.168 43.1408 135.124 43.3522 135.124 43.5753V48.901C135.124 49.1331 135.168 49.3494 135.257 49.5491C135.346 49.7488 135.465 49.9232 135.614 50.072C135.763 50.2207 135.938 50.3392 136.139 50.4275C136.34 50.5159 136.552 50.56 136.776 50.56C137.009 50.56 137.226 50.5159 137.427 50.4275C137.628 50.3392 137.803 50.2207 137.952 50.072C138.102 49.9232 138.221 49.7488 138.309 49.5491C138.398 49.3494 138.442 49.1331 138.442 48.901V48.2037C138.442 48.0271 138.382 47.8784 138.26 47.7576C138.139 47.6368 137.99 47.5764 137.812 47.5764C137.644 47.5764 137.5 47.6368 137.378 47.7576C137.257 47.8784 137.196 48.0271 137.196 48.2037V48.901C137.196 49.0123 137.156 49.1101 137.077 49.1935C136.998 49.2773 136.898 49.3192 136.776 49.3192C136.664 49.3192 136.568 49.2773 136.489 49.1935C136.41 49.1101 136.37 49.0123 136.37 48.901V46.6979H137.812C137.99 46.6979 138.139 46.6401 138.26 46.5239C138.382 46.4076 138.442 46.2612 138.442 46.0845V43.5753ZM136.37 45.4711V43.5753C136.37 43.4636 136.41 43.3684 136.489 43.2895C136.568 43.2103 136.664 43.171 136.776 43.171C136.898 43.171 136.998 43.2103 137.077 43.2895C137.156 43.3684 137.196 43.4636 137.196 43.5753V45.4711H136.37ZM140.431 52.3863C140.431 52.5536 140.491 52.6974 140.612 52.8186C140.734 52.9394 140.879 52.9998 141.046 52.9998C141.224 52.9998 141.373 52.9394 141.495 52.8186C141.616 52.6974 141.677 52.5536 141.677 52.3863V49.779C141.677 49.7979 141.693 49.8651 141.725 49.9814C141.758 50.0976 141.835 50.223 141.957 50.3577C142.078 50.4925 142.26 50.56 142.503 50.56C142.717 50.56 142.902 50.5159 143.056 50.4275C143.21 50.3392 143.338 50.2207 143.441 50.072C143.543 49.9232 143.62 49.7488 143.672 49.5491C143.723 49.3494 143.749 49.1331 143.749 48.901V43.5753C143.749 43.1197 143.649 42.7316 143.448 42.4111C143.247 42.0903 142.932 41.9302 142.503 41.9302C142.26 41.9302 142.078 41.9974 141.957 42.1322C141.835 42.2669 141.758 42.39 141.725 42.5017C141.693 42.6131 141.677 42.6784 141.677 42.6969V42.5715C141.677 42.404 141.616 42.2601 141.495 42.1393C141.373 42.0185 141.224 41.9581 141.046 41.9581C140.879 41.9581 140.734 42.0185 140.612 42.1393C140.491 42.2601 140.431 42.404 140.431 42.5715V52.3863ZM141.677 43.5753C141.677 43.4636 141.716 43.3684 141.796 43.2895C141.875 43.2103 141.971 43.171 142.083 43.171C142.204 43.171 142.304 43.2103 142.384 43.2895C142.463 43.3684 142.503 43.4636 142.503 43.5753V48.901C142.503 49.0123 142.463 49.1101 142.384 49.1935C142.304 49.2773 142.204 49.3192 142.083 49.3192C141.971 49.3192 141.875 49.2773 141.796 49.1935C141.716 49.1101 141.677 49.0123 141.677 48.901V43.5753ZM146.983 42.5715C146.983 42.404 146.922 42.2601 146.801 42.1393C146.68 42.0185 146.535 41.9581 146.367 41.9581C146.19 41.9581 146.04 42.0185 145.919 42.1393C145.798 42.2601 145.737 42.404 145.737 42.5715V49.9047C145.737 50.0814 145.798 50.2301 145.919 50.3509C146.04 50.4717 146.19 50.5321 146.367 50.5321C146.535 50.5321 146.68 50.4717 146.801 50.3509C146.922 50.2301 146.983 50.0814 146.983 49.9047V49.4446L148.327 45.5269L148.495 44.9694V49.9047C148.495 50.0814 148.554 50.2301 148.67 50.3509C148.787 50.4717 148.934 50.5321 149.111 50.5321C149.289 50.5321 149.436 50.4717 149.552 50.3509C149.669 50.2301 149.727 50.0814 149.727 49.9047V42.5715C149.727 42.404 149.669 42.2601 149.552 42.1393C149.436 42.0185 149.289 41.9581 149.111 41.9581C148.971 41.9581 148.848 41.9974 148.74 42.0763C148.633 42.1555 148.556 42.2601 148.509 42.39L147.193 46.3076L146.983 46.935V42.5715ZM151.729 48.901C151.729 49.1331 151.753 49.3494 151.799 49.5491C151.846 49.7488 151.921 49.9232 152.023 50.072C152.126 50.2207 152.257 50.3392 152.415 50.4275C152.574 50.5159 152.761 50.56 152.976 50.56C153.218 50.56 153.4 50.4925 153.522 50.3577C153.643 50.223 153.72 50.0976 153.753 49.9814C153.785 49.8651 153.802 49.7979 153.802 49.779V49.9047C153.802 50.0814 153.862 50.2301 153.984 50.3509C154.105 50.4717 154.25 50.5321 154.418 50.5321C154.595 50.5321 154.745 50.4717 154.866 50.3509C154.987 50.2301 155.048 50.0814 155.048 49.9047V43.5753C155.048 43.3522 155.004 43.1408 154.915 42.9408C154.826 42.741 154.707 42.5667 154.558 42.4179C154.409 42.2692 154.233 42.1507 154.033 42.0627C153.832 41.9743 153.615 41.9302 153.382 41.9302C153.158 41.9302 152.945 41.9743 152.744 42.0627C152.544 42.1507 152.369 42.2692 152.219 42.4179C152.07 42.5667 151.951 42.741 151.863 42.9408C151.774 43.1408 151.729 43.3522 151.729 43.5753V44.2722C151.729 44.4488 151.79 44.5976 151.912 44.7184C152.033 44.8392 152.178 44.8996 152.346 44.8996C152.523 44.8996 152.672 44.8392 152.794 44.7184C152.915 44.5976 152.976 44.4488 152.976 44.2722V43.5753C152.976 43.4636 153.015 43.3684 153.095 43.2895C153.174 43.2103 153.27 43.171 153.382 43.171C153.503 43.171 153.604 43.2103 153.683 43.2895C153.762 43.3684 153.802 43.4636 153.802 43.5753V45.4016H153.382C153.158 45.4016 152.945 45.4458 152.744 45.5341C152.544 45.6224 152.369 45.7406 152.219 45.8894C152.07 46.0381 151.951 46.2125 151.863 46.4122C151.774 46.6122 151.729 46.8282 151.729 47.0607V48.901ZM153.802 48.901C153.802 49.0123 153.762 49.1101 153.683 49.1935C153.604 49.2773 153.503 49.3192 153.382 49.3192C153.27 49.3192 153.174 49.2773 153.095 49.1935C153.015 49.1101 152.976 49.0123 152.976 48.901V47.0607C152.976 46.9399 153.015 46.8398 153.095 46.7609C153.174 46.6817 153.27 46.6424 153.382 46.6424H153.802V48.901ZM158.688 41.9717H159.724C159.893 41.9717 160.037 42.0325 160.159 42.1533C160.28 42.2741 160.341 42.4228 160.341 42.5991V49.8768C160.341 50.044 160.28 50.1882 160.159 50.309C160.037 50.4298 159.893 50.4902 159.724 50.4902C159.547 50.4902 159.398 50.4298 159.276 50.309C159.155 50.1882 159.094 50.044 159.094 49.8768V43.2126H158.688C158.567 43.2126 158.467 43.2522 158.387 43.3311C158.308 43.4103 158.268 43.51 158.268 43.6308V49.8768C158.268 50.044 158.208 50.1882 158.086 50.309C157.965 50.4298 157.82 50.4902 157.652 50.4902C157.475 50.4902 157.326 50.4298 157.204 50.309C157.083 50.1882 157.022 50.044 157.022 49.8768V43.6308C157.022 43.3986 157.066 43.1824 157.155 42.9826C157.244 42.7829 157.363 42.6086 157.512 42.4598C157.661 42.3111 157.837 42.1926 158.037 42.1042C158.238 42.0159 158.455 41.9717 158.688 41.9717ZM167.411 42.5715C167.411 42.404 167.35 42.2601 167.229 42.1393C167.108 42.0185 166.963 41.9581 166.795 41.9581C166.618 41.9581 166.468 42.0185 166.347 42.1393C166.226 42.2601 166.165 42.404 166.165 42.5715V49.9047C166.165 50.0814 166.226 50.2301 166.347 50.3509C166.468 50.4717 166.618 50.5321 166.795 50.5321C166.963 50.5321 167.108 50.4717 167.229 50.3509C167.35 50.2301 167.411 50.0814 167.411 49.9047V42.5715ZM163.589 42.5715C163.589 42.404 163.528 42.2601 163.407 42.1393C163.286 42.0185 163.141 41.9581 162.973 41.9581C162.795 41.9581 162.646 42.0185 162.525 42.1393C162.403 42.2601 162.343 42.404 162.343 42.5715V49.8489C162.343 50.0255 162.403 50.1742 162.525 50.295C162.646 50.4158 162.795 50.4762 162.973 50.4762H164.009C164.233 50.4762 164.445 50.4321 164.646 50.3437C164.846 50.2554 165.022 50.1369 165.171 49.9882C165.32 49.8394 165.439 49.6654 165.528 49.4653C165.617 49.2656 165.661 49.0497 165.661 48.8172V47.1162C165.661 46.8931 165.617 46.6817 165.528 46.482C165.439 46.2823 165.32 46.1079 165.171 45.9592C165.022 45.8104 164.846 45.6919 164.646 45.6036C164.445 45.5153 164.233 45.4711 164.009 45.4711H163.589V42.5715ZM163.589 49.2354V46.6979H164.009C164.121 46.6979 164.217 46.7398 164.296 46.8236C164.375 46.9071 164.415 47.0048 164.415 47.1162V48.8172C164.415 48.938 164.375 49.038 164.296 49.1169C164.217 49.1958 164.121 49.2354 164.009 49.2354H163.589Z" fill="#FF2E00"/>
<path fill-rule="evenodd" clip-rule="evenodd" d="M0.0162346 14.8342L49.7 2.00098V2H49.7003H49.7007V2.00098L83.0189 10.6224V15.6938L49.7003 7.08992L0 19.927L0.0162346 14.8342Z" fill="#120B8D"/>
<path fill-rule="evenodd" clip-rule="evenodd" d="M49.7027 16.4607L6.82422 27.5358V22.4468L49.7187 11.3672L49.7027 16.4607Z" fill="#120B8D"/>
<path fill-rule="evenodd" clip-rule="evenodd" d="M49.7167 25.7196L14.3301 34.8596V29.7707L49.7167 20.6304V25.7196Z" fill="#120B8D"/>
<path fill-rule="evenodd" clip-rule="evenodd" d="M49.7182 35.3677L20.9102 42.8091V37.7198L49.7182 30.2788V35.3677Z" fill="#120B8D"/>
</svg>
