<svg width="155" height="49" viewBox="0 0 155 49" fill="none" xmlns="http://www.w3.org/2000/svg">
<path d="M53.745 23.2341V17.034C51.0273 17.034 51.0273 17.034 51.0273 17.4675V32.209C53.745 32.209 53.745 32.209 53.745 31.7754V25.0983C54.007 25.2069 54.2456 25.3586 54.4603 25.5754C55.8191 26.963 56.0334 29.5423 56.0334 32.1871C56.7007 32.2306 57.3443 32.2521 57.9405 32.2521C58.8941 32.2521 59.0608 32.1439 59.0608 31.7535C59.0608 27.9167 58.2265 24.9901 56.4864 23.5162L59.2038 17.6195C59.3947 17.186 59.0134 17.0124 58.0596 17.0124C57.6069 17.0124 56.987 17.0559 56.3431 17.186L53.745 23.2341ZM62.3984 17.034L63.3996 20.9581C63.7332 23.0823 64.1625 25.0117 64.3535 26.4425C64.3769 25.0333 64.6871 23.0823 65.0684 20.9581L65.6407 17.8363C65.7597 17.2942 65.9026 17.034 66.5226 17.034C67.1662 17.034 67.7861 17.034 68.4297 17.034C68.4297 17.2942 66.1173 27.7866 65.8553 28.8489C65.402 30.9515 65.0921 32.3391 63.2326 32.3172C62.184 32.3391 61.2065 31.9919 61.1112 31.5152C60.9922 30.9515 61.3498 30.193 61.5641 29.781C61.9454 29.9759 62.494 30.1711 62.732 30.1711C63.1136 30.1711 63.2806 29.6725 63.3522 29.1523C62.637 27.6133 60.6582 20.8061 59.991 18.313C59.8477 17.8144 59.7763 17.5545 59.7763 17.3812C59.7763 17.0991 60.0146 17.034 60.4916 17.034H62.3984ZM69.7406 17.034C69.3356 17.034 69.2639 17.1641 69.2639 17.4675V32.209C71.91 32.209 71.934 32.209 71.934 31.7754V26.3558H72.1006C74.3177 26.3558 76.6301 25.4237 76.6301 21.4999C76.6301 17.9445 74.9853 17.034 71.9816 17.034H69.7406ZM71.934 24.1227V19.137H72.5776C73.3165 19.137 73.6264 19.8089 73.6264 21.1964C73.6264 23.6244 73.1498 24.1227 72.4106 24.1227H71.934ZM82.1135 16.709C79.9677 16.709 77.3453 18.0096 77.3453 25.1202C77.3453 31.1902 78.6326 32.534 81.3266 32.534C83.1381 32.534 84.2349 31.9487 84.2349 30.9299C84.2349 30.4097 84.0679 29.8677 83.8773 29.4992C83.4243 29.7159 82.757 29.8245 82.0178 29.8245C80.683 29.8245 80.1583 28.6971 80.1583 24.9251C80.1583 20.1989 81.3982 19.0719 82.757 19.0719C83.2813 19.0719 83.7103 19.2452 83.9963 19.4404C84.1872 19.0719 84.3779 18.5733 84.3779 17.9877C84.3779 17.3374 84.1393 16.709 82.1135 16.709ZM88.0015 23.2341V17.034C85.2841 17.034 85.2841 17.034 85.2841 17.4675V32.209C88.0015 32.209 88.0015 32.209 88.0015 31.7754V25.0983C88.2638 25.2069 88.5021 25.3586 88.7167 25.5754C90.0755 26.963 90.2902 29.5423 90.2902 32.1871C90.9575 32.2306 91.6011 32.2521 92.197 32.2521C93.1509 32.2521 93.3175 32.1439 93.3175 31.7535C93.3175 27.9167 92.4833 24.9901 90.7428 23.5162L93.4605 17.6195C93.6515 17.186 93.2699 17.0124 92.3163 17.0124C91.8633 17.0124 91.2434 17.0559 90.5998 17.186L88.0015 23.2341ZM99.6828 26.399C100.04 25.6623 100.803 22.8008 101.089 21.6735C100.922 22.9741 100.755 25.6836 100.755 26.6377V32.209C103.473 32.209 103.425 32.209 103.425 31.7754V17.034C100.851 17.034 100.827 17.034 100.564 17.6195L98.276 22.909C98.0613 23.4511 97.394 25.8356 96.9888 27.1794C97.1081 25.8356 97.2747 23.6244 97.2747 22.7357V17.034C94.5571 17.034 94.605 17.034 94.605 17.4675V32.209C97.2031 32.209 97.1558 32.209 97.4177 31.6237L99.6828 26.399ZM107.693 12.1133C106.691 12.4818 106.405 12.8718 106.405 13.479C106.405 14.693 107.979 15.9067 109.48 15.9067C111.244 15.9067 112.317 14.9313 112.913 13.4571C112.746 12.677 111.673 11.7445 111.173 12.4383C110.839 12.9588 110.434 13.6091 109.504 13.6091C108.574 13.6091 107.955 12.7201 107.693 12.1133ZM109.981 26.399C110.339 25.6623 111.101 22.8008 111.387 21.6735C111.22 22.9741 111.054 25.6836 111.054 26.6377V32.209C113.771 32.209 113.724 32.209 113.724 31.7754V17.034C111.149 17.034 111.125 17.034 110.863 17.6195L108.574 22.909C108.36 23.4511 107.693 25.8356 107.287 27.1794C107.406 25.8356 107.573 23.6244 107.573 22.7357V17.034C104.856 17.034 104.903 17.034 104.903 17.4675V32.209C107.502 32.209 107.454 32.209 107.716 31.6237L109.981 26.399ZM127.168 17.034V29.9327H128.17V33.6226C128.17 34.3152 127.622 34.3161 126.31 34.3161C126.024 33.4275 125.691 33.5963 125.524 32.209H120.541C120.374 33.6178 120.231 33.1237 119.969 33.7309C119.731 34.273 119.206 34.3161 117.919 34.3161V30.3663C117.919 29.9108 118.181 29.9546 118.968 29.9327C120.088 27.9383 120.398 24.2963 120.636 17.4675C120.636 17.034 120.589 17.034 123.307 17.034H127.168ZM124.546 29.9327V19.3103H123.211C122.997 24.1446 122.639 27.3746 121.638 29.9327H124.546ZM129.242 32.209H132.365C135.583 32.209 136.823 29.9108 136.823 27.0493C136.823 24.5131 135.25 24.0145 134.082 23.9063C135.131 23.7761 136.275 22.6488 136.275 20.4376C136.275 17.6195 134.249 17.034 132.246 17.034H129.91C129.385 17.034 129.242 17.186 129.242 17.4675V32.209ZM131.96 19.1585H132.508C132.937 19.1585 133.319 19.4404 133.319 20.9581C133.319 22.1937 132.985 23.0173 132.413 23.0173H131.96V19.1585ZM131.96 25.0552H132.485C133.223 25.0552 133.629 25.3151 133.629 27.2664C133.629 29.044 133.176 30.106 132.437 30.106H131.96V25.0552ZM137.539 24.5347C137.539 30.9515 138.707 32.4039 141.829 32.4039C144.952 32.4039 146.335 30.5399 146.335 24.448C146.335 18.4647 145.191 16.8391 142.092 16.8391C139.017 16.8391 137.539 18.6383 137.539 24.5347ZM140.59 25.0768C140.59 20.828 140.899 19.3321 141.996 19.3321C143.284 19.3321 143.403 20.7629 143.403 24.5347C143.403 28.3718 143.141 29.8895 141.972 29.8895C140.757 29.8895 140.59 28.4588 140.59 25.0768ZM148.004 17.034C147.598 17.034 147.527 17.1641 147.527 17.4675V32.209C150.173 32.209 150.197 32.209 150.197 31.7754V26.3558H150.364C152.581 26.3558 154.893 25.4237 154.893 21.4999C154.893 17.9445 153.248 17.034 150.245 17.034H148.004ZM150.197 24.1227V19.137H150.841C151.58 19.137 151.89 19.8089 151.89 21.1964C151.89 23.6244 151.413 24.1227 150.674 24.1227H150.197Z" fill="white"/>
<path d="M51.1406 45.1496C51.1406 45.364 51.1817 45.5637 51.2635 45.7481C51.3457 45.9325 51.4554 46.0935 51.593 46.2308C51.7309 46.3681 51.8927 46.4776 52.0777 46.5591C52.2632 46.6407 52.4593 46.6814 52.6662 46.6814C52.8814 46.6814 53.0819 46.6407 53.2672 46.5591C53.4524 46.4776 53.614 46.3681 53.7519 46.2308C53.8898 46.0935 53.9998 45.9325 54.0816 45.7481C54.1635 45.5637 54.2045 45.364 54.2045 45.1496V40.2325C54.2045 40.0266 54.1635 39.8314 54.0816 39.6467C53.9998 39.4623 53.8898 39.3013 53.7519 39.164C53.614 39.0266 53.4524 38.9172 53.2672 38.836C53.0819 38.7544 52.8814 38.7136 52.6662 38.7136C52.4593 38.7136 52.2632 38.7544 52.0777 38.836C51.8927 38.9172 51.7309 39.0266 51.593 39.164C51.4554 39.3013 51.3457 39.4623 51.2635 39.6467C51.1817 39.8314 51.1406 40.0266 51.1406 40.2325V45.1496ZM52.2911 40.2325C52.2911 40.1294 52.3277 40.0415 52.4011 39.9687C52.4743 39.8955 52.5627 39.8592 52.6662 39.8592C52.7783 39.8592 52.8709 39.8955 52.944 39.9687C53.0172 40.0415 53.054 40.1294 53.054 40.2325V45.1496C53.054 45.2525 53.0172 45.3427 52.944 45.4198C52.8709 45.4971 52.7783 45.5358 52.6662 45.5358C52.5627 45.5358 52.4743 45.4971 52.4011 45.4198C52.3277 45.3427 52.2911 45.2525 52.2911 45.1496V40.2325ZM56.195 38.7778C56.04 38.7778 55.9063 38.8336 55.7942 38.9451C55.6824 39.0569 55.6264 39.1939 55.6264 39.357C55.6264 39.5115 55.6824 39.6446 55.7942 39.7561C55.9063 39.8676 56.04 39.9234 56.195 39.9234H56.9579V46.0764C56.9579 46.2395 57.0137 46.3768 57.1258 46.4884C57.2379 46.5999 57.3758 46.6557 57.5394 46.6557C57.6944 46.6557 57.8281 46.5999 57.9402 46.4884C58.0523 46.3768 58.1084 46.2395 58.1084 46.0764V39.9234H58.8839C59.0389 39.9234 59.1726 39.8676 59.2847 39.7561C59.3968 39.6446 59.4526 39.5115 59.4526 39.357C59.4526 39.1939 59.3968 39.0569 59.2847 38.9451C59.1726 38.8336 59.0389 38.7778 58.8839 38.7778H56.195ZM61.2883 45.4585C61.1328 45.4585 60.9994 45.5142 60.8876 45.6258C60.7754 45.7373 60.7194 45.8704 60.7194 46.0248V47.7497C60.7194 47.9041 60.7754 48.0372 60.8876 48.1488C60.9994 48.2603 61.1328 48.3161 61.2883 48.3161C61.4517 48.3161 61.5896 48.2603 61.7017 48.1488C61.8138 48.0372 61.8699 47.9041 61.8699 47.7497V46.6041H63.9512V47.7497C63.9512 47.9041 64.0072 48.0372 64.119 48.1488C64.2311 48.2603 64.3645 48.3161 64.5198 48.3161C64.6835 48.3161 64.8214 48.2603 64.9335 48.1488C65.0456 48.0372 65.1017 47.9041 65.1017 47.7497V46.0248C65.1017 45.8704 65.0456 45.7373 64.9335 45.6258C64.8214 45.5142 64.6835 45.4585 64.5198 45.4585V39.357C64.5198 39.1939 64.4641 39.0569 64.3519 38.9451C64.2395 38.8336 64.1062 38.7778 63.9512 38.7778H62.5033C62.3567 38.7778 62.2299 38.8252 62.122 38.9196C62.0141 39.0138 61.9514 39.134 61.9343 39.28L61.2883 45.4585ZM62.9946 39.8847H63.3693V45.4585H62.4517L62.9946 39.8847ZM69.7939 40.2325C69.7939 40.0266 69.7531 39.8314 69.6713 39.6467C69.5892 39.4623 69.4795 39.3013 69.3416 39.164C69.2037 39.0266 69.0418 38.9172 68.8568 38.836C68.6716 38.7544 68.471 38.7136 68.2558 38.7136C68.049 38.7136 67.8529 38.7544 67.6674 38.836C67.4821 38.9172 67.3205 39.0266 67.1827 39.164C67.0451 39.3013 66.935 39.4623 66.8532 39.6467C66.7714 39.8314 66.7303 40.0266 66.7303 40.2325V45.1496C66.7303 45.364 66.7714 45.5637 66.8532 45.7481C66.935 45.9325 67.0451 46.0935 67.1827 46.2308C67.3205 46.3681 67.4821 46.4776 67.6674 46.5591C67.8529 46.6407 68.049 46.6814 68.2558 46.6814C68.471 46.6814 68.6716 46.6407 68.8568 46.5591C69.0418 46.4776 69.2037 46.3681 69.3416 46.2308C69.4795 46.0935 69.5892 45.9325 69.6713 45.7481C69.7531 45.5637 69.7939 45.364 69.7939 45.1496V44.5059C69.7939 44.3428 69.7382 44.2055 69.626 44.094C69.5139 43.9824 69.376 43.9267 69.2124 43.9267C69.0574 43.9267 68.9237 43.9824 68.8116 44.094C68.6995 44.2055 68.6434 44.3428 68.6434 44.5059V45.1496C68.6434 45.2525 68.6068 45.3427 68.5337 45.4198C68.4605 45.4971 68.3676 45.5358 68.2558 45.5358C68.1521 45.5358 68.064 45.4971 67.9908 45.4198C67.9174 45.3427 67.8808 45.2525 67.8808 45.1496V43.1156H69.2124C69.376 43.1156 69.5139 43.0623 69.626 42.9549C69.7382 42.8476 69.7939 42.7124 69.7939 42.5493V40.2325ZM67.8808 41.9829V40.2325C67.8808 40.1294 67.9174 40.0415 67.9908 39.9687C68.064 39.8955 68.1521 39.8592 68.2558 39.8592C68.3676 39.8592 68.4605 39.8955 68.5337 39.9687C68.6068 40.0415 68.6434 40.1294 68.6434 40.2325V41.9829H67.8808ZM73.1549 38.752H74.1115C74.2667 38.752 74.4004 38.8081 74.5122 38.9196C74.6244 39.0311 74.6804 39.1685 74.6804 39.3313V46.0506C74.6804 46.205 74.6244 46.3381 74.5122 46.4497C74.4004 46.5612 74.2667 46.617 74.1115 46.617C73.9478 46.617 73.8099 46.5612 73.6978 46.4497C73.586 46.3381 73.5299 46.205 73.5299 46.0506V39.8976H73.1549C73.0428 39.8976 72.9502 39.9342 72.877 40.0071C72.8036 40.0802 72.767 40.1723 72.767 40.2838V46.0506C72.767 46.205 72.7112 46.3381 72.5991 46.4497C72.487 46.5612 72.3533 46.617 72.1983 46.617C72.0347 46.617 71.8968 46.5612 71.7847 46.4497C71.6725 46.3381 71.6165 46.205 71.6165 46.0506V40.2838C71.6165 40.0694 71.6576 39.8697 71.7394 39.6854C71.8212 39.501 71.9313 39.34 72.0691 39.2026C72.2067 39.0653 72.3686 38.9559 72.5536 38.8743C72.7391 38.7928 72.9394 38.752 73.1549 38.752ZM76.5288 45.1496C76.5288 45.364 76.5698 45.5637 76.6517 45.7481C76.7335 45.9325 76.8435 46.0935 76.9811 46.2308C77.119 46.3681 77.2806 46.4776 77.4659 46.5591C77.6514 46.6407 77.8475 46.6814 78.0543 46.6814C78.2695 46.6814 78.4701 46.6407 78.6553 46.5591C78.8403 46.4776 79.0021 46.3681 79.14 46.2308C79.2779 46.0935 79.3876 45.9325 79.4698 45.7481C79.5516 45.5637 79.5924 45.364 79.5924 45.1496V40.2325C79.5924 40.0266 79.5516 39.8314 79.4698 39.6467C79.3876 39.4623 79.2779 39.3013 79.14 39.164C79.0021 39.0266 78.8403 38.9172 78.6553 38.836C78.4701 38.7544 78.2695 38.7136 78.0543 38.7136C77.8475 38.7136 77.6514 38.7544 77.4659 38.836C77.2806 38.9172 77.119 39.0266 76.9811 39.164C76.8435 39.3013 76.7335 39.4623 76.6517 39.6467C76.5698 39.8314 76.5288 40.0266 76.5288 40.2325V45.1496ZM77.6793 40.2325C77.6793 40.1294 77.7159 40.0415 77.7893 39.9687C77.8624 39.8955 77.9506 39.8592 78.0543 39.8592C78.1661 39.8592 78.259 39.8955 78.3322 39.9687C78.4053 40.0415 78.4419 40.1294 78.4419 40.2325V45.1496C78.4419 45.2525 78.4053 45.3427 78.3322 45.4198C78.259 45.4971 78.1661 45.5358 78.0543 45.5358C77.9506 45.5358 77.8624 45.4971 77.7893 45.4198C77.7159 45.3427 77.6793 45.2525 77.6793 45.1496V40.2325ZM83.3413 41.9829H82.9534C82.85 41.9829 82.7615 41.9445 82.6884 41.8672C82.6149 41.7898 82.5787 41.6999 82.5787 41.5967V39.3058C82.5787 39.1511 82.5226 39.0182 82.4105 38.9067C82.2984 38.7952 82.1605 38.7394 81.9968 38.7394C81.8418 38.7394 81.7081 38.7952 81.596 38.9067C81.4839 39.0182 81.4282 39.1511 81.4282 39.3058V41.5967C81.4282 41.8027 81.4689 41.9979 81.5508 42.1826C81.6329 42.367 81.7426 42.528 81.8802 42.6653C82.0181 42.8026 82.18 42.9121 82.3649 42.9936C82.5505 43.0749 82.7465 43.1156 82.9534 43.1156H83.3413V46.0764C83.3413 46.2395 83.3973 46.3768 83.5091 46.4884C83.6213 46.5999 83.755 46.6557 83.9099 46.6557C84.0739 46.6557 84.2118 46.5999 84.3236 46.4884C84.4357 46.3768 84.4918 46.2395 84.4918 46.0764V39.3058C84.4918 39.1511 84.4357 39.0182 84.3236 38.9067C84.2118 38.7952 84.0739 38.7394 83.9099 38.7394C83.755 38.7394 83.6213 38.7952 83.5091 38.9067C83.3973 39.0182 83.3413 39.1511 83.3413 39.3058V41.9829ZM89.3909 39.3058C89.3909 39.1511 89.3351 39.0182 89.223 38.9067C89.1109 38.7952 88.973 38.7394 88.8093 38.7394C88.6541 38.7394 88.5204 38.7952 88.4085 38.9067C88.2964 39.0182 88.2404 39.1511 88.2404 39.3058V41.9829H87.4778V39.3058C87.4778 39.1511 87.4217 39.0182 87.3099 38.9067C87.1978 38.7952 87.0599 38.7394 86.8959 38.7394C86.7409 38.7394 86.6072 38.7952 86.4951 38.9067C86.3833 39.0182 86.3272 39.1511 86.3272 39.3058V46.0764C86.3272 46.2395 86.3833 46.3768 86.4951 46.4884C86.6072 46.5999 86.7409 46.6557 86.8959 46.6557C87.0599 46.6557 87.1978 46.5999 87.3099 46.4884C87.4217 46.3768 87.4778 46.2395 87.4778 46.0764V43.1156H88.2404V46.0764C88.2404 46.2395 88.2964 46.3768 88.4085 46.4884C88.5204 46.5999 88.6541 46.6557 88.8093 46.6557C88.973 46.6557 89.1109 46.5999 89.223 46.4884C89.3351 46.3768 89.3909 46.2395 89.3909 46.0764V39.3058ZM95.906 39.3058C95.906 39.1511 95.85 39.0182 95.7378 38.9067C95.626 38.7952 95.4923 38.7394 95.337 38.7394C95.1734 38.7394 95.0355 38.7952 94.9234 38.9067C94.8116 39.0182 94.7555 39.1511 94.7555 39.3058V46.0764C94.7555 46.2395 94.8116 46.3768 94.9234 46.4884C95.0355 46.5999 95.1734 46.6557 95.337 46.6557C95.4923 46.6557 95.626 46.5999 95.7378 46.4884C95.85 46.3768 95.906 46.2395 95.906 46.0764V39.3058ZM92.3771 39.3058C92.3771 39.1511 92.3211 39.0182 92.209 38.9067C92.0969 38.7952 91.9632 38.7394 91.8082 38.7394C91.6445 38.7394 91.5066 38.7952 91.3945 38.9067C91.2824 39.0182 91.2264 39.1511 91.2264 39.3058V46.0248C91.2264 46.1879 91.2824 46.3252 91.3945 46.4368C91.5066 46.5483 91.6445 46.6041 91.8082 46.6041H92.7647C92.9716 46.6041 93.1676 46.5633 93.3529 46.4818C93.5381 46.4002 93.6997 46.2908 93.8376 46.1535C93.9755 46.0161 94.0855 45.8554 94.1673 45.6707C94.2492 45.4863 94.2903 45.287 94.2903 45.0723V43.5018C94.2903 43.2958 94.2492 43.1006 94.1673 42.9163C94.0855 42.7319 93.9755 42.5709 93.8376 42.4335C93.6997 42.2962 93.5381 42.1868 93.3529 42.1052C93.1676 42.0237 92.9716 41.9829 92.7647 41.9829H92.3771V39.3058ZM92.3771 45.4585V43.1156H92.7647C92.8682 43.1156 92.9566 43.1543 93.0298 43.2317C93.1029 43.3087 93.1398 43.399 93.1398 43.5018V45.0723C93.1398 45.1838 93.1029 45.2762 93.0298 45.349C92.9566 45.4219 92.8682 45.4585 92.7647 45.4585H92.3771ZM100.805 40.2325C100.805 40.0266 100.764 39.8314 100.682 39.6467C100.6 39.4623 100.491 39.3013 100.352 39.164C100.215 39.0266 100.053 38.9172 99.8677 38.836C99.6828 38.7544 99.4822 38.7136 99.2667 38.7136C99.0598 38.7136 98.8638 38.7544 98.6785 38.836C98.4933 38.9172 98.3317 39.0266 98.1938 39.164C98.0562 39.3013 97.9462 39.4623 97.8644 39.6467C97.7822 39.8314 97.7415 40.0266 97.7415 40.2325V45.1496C97.7415 45.364 97.7822 45.5637 97.8644 45.7481C97.9462 45.9325 98.0562 46.0935 98.1938 46.2308C98.3317 46.3681 98.4933 46.4776 98.6785 46.5591C98.8638 46.6407 99.0598 46.6814 99.2667 46.6814C99.4822 46.6814 99.6828 46.6407 99.8677 46.5591C100.053 46.4776 100.215 46.3681 100.352 46.2308C100.491 46.0935 100.6 45.9325 100.682 45.7481C100.764 45.5637 100.805 45.364 100.805 45.1496V44.5059C100.805 44.3428 100.749 44.2055 100.637 44.094C100.525 43.9824 100.387 43.9267 100.224 43.9267C100.068 43.9267 99.9346 43.9824 99.8228 44.094C99.7106 44.2055 99.6546 44.3428 99.6546 44.5059V45.1496C99.6546 45.2525 99.618 45.3427 99.5449 45.4198C99.4714 45.4971 99.3788 45.5358 99.2667 45.5358C99.1633 45.5358 99.0751 45.4971 99.002 45.4198C98.9282 45.3427 98.892 45.2525 98.892 45.1496V43.1156H100.224C100.387 43.1156 100.525 43.0623 100.637 42.9549C100.749 42.8476 100.805 42.7124 100.805 42.5493V40.2325ZM98.892 41.9829V40.2325C98.892 40.1294 98.9282 40.0415 99.002 39.9687C99.0751 39.8955 99.1633 39.8592 99.2667 39.8592C99.3788 39.8592 99.4714 39.8955 99.5449 39.9687C99.618 40.0415 99.6546 40.1294 99.6546 40.2325V41.9829H98.892ZM111.301 42.3178L110.229 39.1256C110.186 39.0054 110.115 38.9109 110.015 38.8422C109.916 38.7736 109.802 38.7394 109.673 38.7394C109.518 38.7394 109.384 38.7952 109.272 38.9067C109.16 39.0182 109.104 39.1511 109.104 39.3058V46.0764C109.104 46.2395 109.16 46.3768 109.272 46.4884C109.384 46.5999 109.518 46.6557 109.673 46.6557C109.837 46.6557 109.975 46.5999 110.086 46.4884C110.199 46.3768 110.255 46.2395 110.255 46.0764V42.382L110.216 41.4423L110.332 41.8672L111.301 44.9694L112.284 41.8672L112.4 41.4423L112.362 42.382V46.0764C112.362 46.2395 112.418 46.3768 112.53 46.4884C112.642 46.5999 112.775 46.6557 112.931 46.6557C113.094 46.6557 113.232 46.5999 113.344 46.4884C113.456 46.3768 113.512 46.2395 113.512 46.0764V39.3058C113.512 39.1511 113.456 39.0182 113.344 38.9067C113.232 38.7952 113.094 38.7394 112.931 38.7394C112.81 38.7394 112.7 38.7736 112.601 38.8422C112.502 38.9109 112.431 39.0054 112.388 39.1256C112.379 39.1427 112.34 39.2542 112.271 39.4602C112.202 39.6662 112.114 39.93 112.006 40.2517C111.898 40.5734 111.793 40.8867 111.689 41.1914C111.586 41.496 111.495 41.7598 111.418 41.9829C111.34 42.2063 111.301 42.3178 111.301 42.3178ZM115.347 45.1496C115.347 45.364 115.369 45.5637 115.412 45.7481C115.455 45.9325 115.524 46.0935 115.619 46.2308C115.714 46.3681 115.835 46.4776 115.981 46.5591C116.127 46.6407 116.299 46.6814 116.498 46.6814C116.722 46.6814 116.89 46.6191 117.002 46.4947C117.114 46.3702 117.185 46.2545 117.215 46.1472C117.245 46.0398 117.261 45.9778 117.261 45.9604V46.0764C117.261 46.2395 117.317 46.3768 117.429 46.4884C117.541 46.5999 117.674 46.6557 117.829 46.6557C117.993 46.6557 118.131 46.5999 118.243 46.4884C118.355 46.3768 118.411 46.2395 118.411 46.0764V40.2325C118.411 40.0266 118.37 39.8314 118.288 39.6467C118.207 39.4623 118.097 39.3013 117.959 39.164C117.821 39.0266 117.659 38.9172 117.474 38.836C117.289 38.7544 117.088 38.7136 116.873 38.7136C116.666 38.7136 116.47 38.7544 116.284 38.836C116.099 38.9172 115.938 39.0266 115.8 39.164C115.662 39.3013 115.552 39.4623 115.47 39.6467C115.388 39.8314 115.347 40.0266 115.347 40.2325V40.876C115.347 41.0391 115.403 41.1764 115.516 41.2879C115.627 41.3994 115.761 41.4552 115.916 41.4552C116.08 41.4552 116.218 41.3994 116.33 41.2879C116.442 41.1764 116.498 41.0391 116.498 40.876V40.2325C116.498 40.1294 116.534 40.0415 116.608 39.9687C116.681 39.8955 116.769 39.8592 116.873 39.8592C116.985 39.8592 117.078 39.8955 117.151 39.9687C117.224 40.0415 117.261 40.1294 117.261 40.2325V41.9187H116.873C116.666 41.9187 116.47 41.9595 116.284 42.0411C116.099 42.1226 115.938 42.2318 115.8 42.3691C115.662 42.5064 115.552 42.6674 115.47 42.8518C115.388 43.0365 115.347 43.2359 115.347 43.4505V45.1496ZM117.261 45.1496C117.261 45.2525 117.224 45.3427 117.151 45.4198C117.078 45.4971 116.985 45.5358 116.873 45.5358C116.769 45.5358 116.681 45.4971 116.608 45.4198C116.534 45.3427 116.498 45.2525 116.498 45.1496V43.4505C116.498 43.339 116.534 43.2467 116.608 43.1738C116.681 43.1006 116.769 43.0644 116.873 43.0644H117.261V45.1496ZM120.402 38.7778C120.247 38.7778 120.113 38.8336 120.001 38.9451C119.889 39.0569 119.833 39.1939 119.833 39.357C119.833 39.5115 119.889 39.6446 120.001 39.7561C120.113 39.8676 120.247 39.9234 120.402 39.9234H121.164V46.0764C121.164 46.2395 121.22 46.3768 121.333 46.4884C121.445 46.5999 121.583 46.6557 121.746 46.6557C121.901 46.6557 122.035 46.5999 122.147 46.4884C122.259 46.3768 122.315 46.2395 122.315 46.0764V39.9234H123.091C123.246 39.9234 123.379 39.8676 123.491 39.7561C123.603 39.6446 123.659 39.5115 123.659 39.357C123.659 39.1939 123.603 39.0569 123.491 38.9451C123.379 38.8336 123.246 38.7778 123.091 38.7778H120.402ZM128.145 40.2325C128.145 40.0266 128.104 39.8314 128.022 39.6467C127.94 39.4623 127.83 39.3013 127.692 39.164C127.554 39.0266 127.393 38.9172 127.208 38.836C127.022 38.7544 126.822 38.7136 126.607 38.7136C126.4 38.7136 126.204 38.7544 126.018 38.836C125.833 38.9172 125.671 39.0266 125.533 39.164C125.396 39.3013 125.286 39.4623 125.204 39.6467C125.122 39.8314 125.081 40.0266 125.081 40.2325V45.1496C125.081 45.364 125.122 45.5637 125.204 45.7481C125.286 45.9325 125.396 46.0935 125.533 46.2308C125.671 46.3681 125.833 46.4776 126.018 46.5591C126.204 46.6407 126.4 46.6814 126.607 46.6814C126.822 46.6814 127.022 46.6407 127.208 46.5591C127.393 46.4776 127.554 46.3681 127.692 46.2308C127.83 46.0935 127.94 45.9325 128.022 45.7481C128.104 45.5637 128.145 45.364 128.145 45.1496V44.5059C128.145 44.3428 128.089 44.2055 127.977 44.094C127.865 43.9824 127.727 43.9267 127.563 43.9267C127.408 43.9267 127.274 43.9824 127.162 44.094C127.05 44.2055 126.995 44.3428 126.995 44.5059V45.1496C126.995 45.2525 126.958 45.3427 126.884 45.4198C126.811 45.4971 126.719 45.5358 126.607 45.5358C126.503 45.5358 126.415 45.4971 126.342 45.4198C126.268 45.3427 126.232 45.2525 126.232 45.1496V43.1156H127.563C127.727 43.1156 127.865 43.0623 127.977 42.9549C128.089 42.8476 128.145 42.7124 128.145 42.5493V40.2325ZM126.232 41.9829V40.2325C126.232 40.1294 126.268 40.0415 126.342 39.9687C126.415 39.8955 126.503 39.8592 126.607 39.8592C126.719 39.8592 126.811 39.8955 126.884 39.9687C126.958 40.0415 126.995 40.1294 126.995 40.2325V41.9829H126.232ZM129.98 48.3677C129.98 48.5221 130.037 48.6549 130.148 48.7667C130.26 48.8782 130.394 48.934 130.549 48.934C130.713 48.934 130.851 48.8782 130.963 48.7667C131.075 48.6549 131.131 48.5221 131.131 48.3677V45.9604C131.131 45.9778 131.146 46.0398 131.176 46.1472C131.206 46.2545 131.277 46.3702 131.389 46.4947C131.501 46.6191 131.67 46.6814 131.894 46.6814C132.092 46.6814 132.262 46.6407 132.404 46.5591C132.547 46.4776 132.665 46.3681 132.76 46.2308C132.854 46.0935 132.925 45.9325 132.973 45.7481C133.02 45.5637 133.044 45.364 133.044 45.1496V40.2325C133.044 39.8119 132.951 39.4536 132.766 39.1577C132.581 38.8614 132.29 38.7136 131.894 38.7136C131.67 38.7136 131.501 38.7757 131.389 38.9001C131.277 39.0245 131.206 39.1382 131.176 39.2413C131.146 39.3442 131.131 39.4044 131.131 39.4215V39.3058C131.131 39.1511 131.075 39.0182 130.963 38.9067C130.851 38.7952 130.713 38.7394 130.549 38.7394C130.394 38.7394 130.26 38.7952 130.148 38.9067C130.037 39.0182 129.98 39.1511 129.98 39.3058V48.3677ZM131.131 40.2325C131.131 40.1294 131.167 40.0415 131.241 39.9687C131.314 39.8955 131.402 39.8592 131.506 39.8592C131.618 39.8592 131.71 39.8955 131.784 39.9687C131.857 40.0415 131.894 40.1294 131.894 40.2325V45.1496C131.894 45.2525 131.857 45.3427 131.784 45.4198C131.71 45.4971 131.618 45.5358 131.506 45.5358C131.402 45.5358 131.314 45.4971 131.241 45.4198C131.167 45.3427 131.131 45.2525 131.131 45.1496V40.2325ZM136.03 39.3058C136.03 39.1511 135.974 39.0182 135.862 38.9067C135.75 38.7952 135.616 38.7394 135.461 38.7394C135.297 38.7394 135.16 38.7952 135.048 38.9067C134.936 39.0182 134.88 39.1511 134.88 39.3058V46.0764C134.88 46.2395 134.936 46.3768 135.048 46.4884C135.16 46.5999 135.297 46.6557 135.461 46.6557C135.616 46.6557 135.75 46.5999 135.862 46.4884C135.974 46.3768 136.03 46.2395 136.03 46.0764V45.6515L137.271 42.0345L137.426 41.5197V46.0764C137.426 46.2395 137.48 46.3768 137.588 46.4884C137.696 46.5999 137.831 46.6557 137.995 46.6557C138.159 46.6557 138.295 46.5999 138.402 46.4884C138.51 46.3768 138.564 46.2395 138.564 46.0764V39.3058C138.564 39.1511 138.51 39.0182 138.402 38.9067C138.295 38.7952 138.159 38.7394 137.995 38.7394C137.866 38.7394 137.752 38.7757 137.652 38.8485C137.553 38.9217 137.482 39.0182 137.439 39.1382L136.224 42.7552L136.03 43.3345V39.3058ZM140.412 45.1496C140.412 45.364 140.433 45.5637 140.477 45.7481C140.52 45.9325 140.589 46.0935 140.683 46.2308C140.778 46.3681 140.899 46.4776 141.045 46.5591C141.192 46.6407 141.364 46.6814 141.563 46.6814C141.787 46.6814 141.955 46.6191 142.067 46.4947C142.179 46.3702 142.25 46.2545 142.28 46.1472C142.31 46.0398 142.325 45.9778 142.325 45.9604V46.0764C142.325 46.2395 142.381 46.3768 142.493 46.4884C142.605 46.5999 142.739 46.6557 142.894 46.6557C143.058 46.6557 143.196 46.5999 143.308 46.4884C143.42 46.3768 143.476 46.2395 143.476 46.0764V40.2325C143.476 40.0266 143.435 39.8314 143.353 39.6467C143.271 39.4623 143.161 39.3013 143.023 39.164C142.885 39.0266 142.724 38.9172 142.539 38.836C142.353 38.7544 142.153 38.7136 141.938 38.7136C141.731 38.7136 141.535 38.7544 141.349 38.836C141.164 38.9172 141.002 39.0266 140.864 39.164C140.727 39.3013 140.617 39.4623 140.535 39.6467C140.453 39.8314 140.412 40.0266 140.412 40.2325V40.876C140.412 41.0391 140.468 41.1764 140.58 41.2879C140.692 41.3994 140.826 41.4552 140.981 41.4552C141.145 41.4552 141.283 41.3994 141.395 41.2879C141.507 41.1764 141.563 41.0391 141.563 40.876V40.2325C141.563 40.1294 141.599 40.0415 141.673 39.9687C141.746 39.8955 141.834 39.8592 141.938 39.8592C142.049 39.8592 142.142 39.8955 142.215 39.9687C142.289 40.0415 142.325 40.1294 142.325 40.2325V41.9187H141.938C141.731 41.9187 141.535 41.9595 141.349 42.0411C141.164 42.1226 141.002 42.2318 140.864 42.3691C140.727 42.5064 140.617 42.6674 140.535 42.8518C140.453 43.0365 140.412 43.2359 140.412 43.4505V45.1496ZM142.325 45.1496C142.325 45.2525 142.289 45.3427 142.215 45.4198C142.142 45.4971 142.049 45.5358 141.938 45.5358C141.834 45.5358 141.746 45.4971 141.673 45.4198C141.599 45.3427 141.563 45.2525 141.563 45.1496V43.4505C141.563 43.339 141.599 43.2467 141.673 43.1738C141.746 43.1006 141.834 43.0644 141.938 43.0644H142.325V45.1496ZM146.837 38.752H147.793C147.949 38.752 148.082 38.8081 148.194 38.9196C148.306 39.0311 148.362 39.1685 148.362 39.3313V46.0506C148.362 46.205 148.306 46.3381 148.194 46.4497C148.082 46.5612 147.949 46.617 147.793 46.617C147.63 46.617 147.492 46.5612 147.38 46.4497C147.268 46.3381 147.212 46.205 147.212 46.0506V39.8976H146.837C146.725 39.8976 146.632 39.9342 146.559 40.0071C146.485 40.0802 146.449 40.1723 146.449 40.2838V46.0506C146.449 46.205 146.393 46.3381 146.281 46.4497C146.169 46.5612 146.035 46.617 145.88 46.617C145.716 46.617 145.579 46.5612 145.466 46.4497C145.354 46.3381 145.298 46.205 145.298 46.0506V40.2838C145.298 40.0694 145.339 39.8697 145.421 39.6854C145.503 39.501 145.613 39.34 145.751 39.2026C145.889 39.0653 146.05 38.9559 146.235 38.8743C146.421 38.7928 146.621 38.752 146.837 38.752ZM154.89 39.3058C154.89 39.1511 154.834 39.0182 154.722 38.9067C154.61 38.7952 154.476 38.7394 154.321 38.7394C154.157 38.7394 154.019 38.7952 153.908 38.9067C153.795 39.0182 153.739 39.1511 153.739 39.3058V46.0764C153.739 46.2395 153.795 46.3768 153.908 46.4884C154.019 46.5999 154.157 46.6557 154.321 46.6557C154.476 46.6557 154.61 46.5999 154.722 46.4884C154.834 46.3768 154.89 46.2395 154.89 46.0764V39.3058ZM151.361 39.3058C151.361 39.1511 151.305 39.0182 151.193 38.9067C151.081 38.7952 150.947 38.7394 150.792 38.7394C150.628 38.7394 150.491 38.7952 150.379 38.9067C150.267 39.0182 150.211 39.1511 150.211 39.3058V46.0248C150.211 46.1879 150.267 46.3252 150.379 46.4368C150.491 46.5483 150.628 46.6041 150.792 46.6041H151.749C151.956 46.6041 152.152 46.5633 152.337 46.4818C152.522 46.4002 152.684 46.2908 152.822 46.1535C152.96 46.0161 153.069 45.8554 153.152 45.6707C153.233 45.4863 153.274 45.287 153.274 45.0723V43.5018C153.274 43.2958 153.233 43.1006 153.152 42.9163C153.069 42.7319 152.96 42.5709 152.822 42.4335C152.684 42.2962 152.522 42.1868 152.337 42.1052C152.152 42.0237 151.956 41.9829 151.749 41.9829H151.361V39.3058ZM151.361 45.4585V43.1156H151.749C151.852 43.1156 151.941 43.1543 152.014 43.2317C152.087 43.3087 152.124 43.399 152.124 43.5018V45.0723C152.124 45.1838 152.087 45.2762 152.014 45.349C151.941 45.4219 151.852 45.4585 151.749 45.4585H151.361Z" fill="white"/>
<path fill-rule="evenodd" clip-rule="evenodd" d="M0.34702 13.6963L46.2167 1.84758V1.84668H46.217H46.2173V1.84758L76.9779 9.8076V14.49L46.217 6.54613L0.332031 18.3985L0.34702 13.6963Z" fill="white"/>
<path fill-rule="evenodd" clip-rule="evenodd" d="M46.2197 15.1978L6.63281 25.4233V20.7248L46.2344 10.4951L46.2197 15.1978Z" fill="white"/>
<path fill-rule="evenodd" clip-rule="evenodd" d="M46.2326 23.7464L13.5625 32.1853V27.4867L46.2326 19.0476V23.7464Z" fill="white"/>
<path fill-rule="evenodd" clip-rule="evenodd" d="M46.2332 32.6546L19.6367 39.5251V34.8262L46.2332 27.9561V32.6546Z" fill="white"/>
</svg>
