<svg width="60" height="72" viewBox="0 0 60 72" fill="none" xmlns="http://www.w3.org/2000/svg">
<g clip-path="url(#clip0_90_469)">
<path d="M30.51 57.023C30.5041 57.1516 30.4488 57.2729 30.3557 57.3618C30.2625 57.4506 30.1387 57.5001 30.01 57.5C29.72 57.5 29.5 57.29 29.49 57.023C29.345 53.855 27.734 51.806 24.658 50.876C14.53 48.468 7 39.363 7 28.5C7 15.797 17.297 5.5 30 5.5C42.703 5.5 53 15.797 53 28.5C53 39.363 45.47 48.468 35.342 50.876C32.266 51.806 30.655 53.856 30.512 57.023H30.51Z" fill="#FF3333"/>
<path d="M30.51 57.023C30.5041 57.1516 30.4488 57.2729 30.3557 57.3618C30.2625 57.4506 30.1387 57.5001 30.01 57.5C29.72 57.5 29.5 57.29 29.49 57.023C29.345 53.855 27.734 51.806 24.658 50.876C14.53 48.468 7 39.363 7 28.5C7 15.797 17.297 5.5 30 5.5C42.703 5.5 53 15.797 53 28.5C53 39.363 45.47 48.468 35.342 50.876C32.266 51.806 30.655 53.856 30.512 57.023H30.51Z" fill="#120B8D"/>
<path d="M30 68.5C27.79 68.5 26 66.71 26 64.5C26 62.29 27.79 60.5 30 60.5C32.21 60.5 34 62.29 34 64.5C34 66.71 32.21 68.5 30 68.5Z" fill="white"/>
<path fill-rule="evenodd" clip-rule="evenodd" d="M29.9997 66.5C30.266 66.506 30.5309 66.4588 30.7787 66.361C31.0266 66.2633 31.2524 66.117 31.4429 65.9308C31.6334 65.7446 31.7848 65.5222 31.8882 65.2766C31.9916 65.0311 32.0449 64.7674 32.0449 64.501C32.045 64.2346 31.9918 63.9708 31.8886 63.7253C31.7853 63.4797 31.634 63.2572 31.4436 63.0709C31.2532 62.8846 31.0274 62.7382 30.7797 62.6403C30.5319 62.5425 30.267 62.4951 30.0007 62.501C29.4781 62.5125 28.9809 62.7282 28.6153 63.1018C28.2498 63.4754 28.0451 63.9773 28.0449 64.5C28.0448 65.0227 28.2493 65.5246 28.6146 65.8984C28.98 66.2722 29.4772 66.4882 29.9997 66.5Z" fill="#120B8D"/>
<path fill-rule="evenodd" clip-rule="evenodd" d="M33.0326 21.2041L42.6651 23.6656V26.127L33.0326 23.6656L18.1406 27.4712V25.0097L33.0326 21.2041Z" fill="white"/>
<path fill-rule="evenodd" clip-rule="evenodd" d="M32.7364 28.5098L21.9434 31.2679V28.8065L32.7364 26.0483V28.5098Z" fill="white"/>
<path fill-rule="evenodd" clip-rule="evenodd" d="M32.7373 33.2784L26 35.0001V32.5386L32.7373 30.8169V33.2784Z" fill="#FF2E00"/>
</g>
<defs>
<clipPath id="clip0_90_469">
<rect width="60" height="68" fill="white" transform="translate(0 0.5)"/>
</clipPath>
</defs>
</svg>
