<svg width="24" height="24" viewBox="0 0 24 24" fill="none" xmlns="http://www.w3.org/2000/svg">
<path d="M8.00768 13.5198C8.00768 13.3915 8.04582 13.2661 8.11728 13.1594C8.18874 13.0527 8.2903 12.9696 8.40913 12.9205C8.52796 12.8714 8.65872 12.8585 8.78487 12.8836C8.91102 12.9086 9.0269 12.9704 9.11785 13.0611C9.2088 13.1518 9.27074 13.2674 9.29583 13.3933C9.32092 13.5191 9.30804 13.6495 9.25882 13.7681C9.2096 13.8866 9.12625 13.9879 9.0193 14.0592C8.91236 14.1305 8.78662 14.1685 8.658 14.1685C8.48552 14.1685 8.32011 14.1002 8.19815 13.9785C8.07619 13.8569 8.00768 13.6919 8.00768 13.5198ZM6.70703 2.94727L6.70737 22.3779H17.1122V2.94727H6.70703Z" fill="#120B8D"/>
<path d="M19.715 22.3785V0.353027H4.1072V22.3785H1.93945V23.6837H21.8827V22.3785H19.715ZM6.70849 22.3785H5.84139V2.08294H17.9808V22.3785H17.1137H6.70849Z" fill="#FF2E00"/>
</svg>
