<svg width="40" height="40" viewBox="0 0 40 40" fill="none" xmlns="http://www.w3.org/2000/svg">
<path d="M40 29.206C40 32.6289 37.2127 35.4162 33.7897 35.4162H0V10.8196C0 7.39666 2.78729 4.60938 6.21027 4.60938H40V29.206Z" fill="white"/>
<path d="M31.2712 6.6875C28.8262 6.6875 26.8213 8.66794 26.8213 11.1374V15.7584H33.1049C33.2516 15.7584 33.4228 15.7584 33.545 15.7829C34.9631 15.8562 36.0145 16.5897 36.0145 17.8611C36.0145 18.8635 35.3054 19.7193 33.9851 19.8904V19.9393C35.4277 20.0371 36.5279 20.844 36.5279 22.0909C36.5279 23.4357 35.3054 24.3159 33.6917 24.3159H26.7969V33.3623H33.325C35.77 33.3623 37.7749 31.3819 37.7749 28.9124V6.6875H31.2712Z" fill="url(#paint0_linear_573_12573)"/>
<path d="M28.9974 22.8977H31.5646C31.6013 22.8977 31.6624 22.8916 31.7235 22.8855C31.7847 22.8794 31.8458 22.8733 31.8825 22.8733C32.3714 22.7755 32.7871 22.3354 32.7871 21.7242C32.7871 21.1374 32.3714 20.6973 31.8825 20.575C31.8091 20.5506 31.6624 20.5506 31.5646 20.5506H28.9974V22.8977Z" fill="url(#paint1_linear_573_12573)"/>
<path d="M31.5646 17.1031C32.0536 17.1765 32.4692 17.5677 32.4692 18.1545C32.4692 18.7413 32.0536 19.1325 31.5646 19.2058C31.5402 19.2303 31.3935 19.2303 31.3201 19.2303H28.9974V17.0787H31.3201C31.3605 17.0787 31.4157 17.0861 31.4653 17.0928C31.5058 17.0982 31.5426 17.1031 31.5646 17.1031Z" fill="url(#paint2_linear_573_12573)"/>
<path d="M6.6755 6.6875C4.23051 6.6875 2.22562 8.66794 2.22562 11.1374V22.1154C3.47257 22.7266 4.76841 23.1178 6.06425 23.1178C7.60459 23.1178 8.43589 22.1887 8.43589 20.9173V15.734H12.2501V20.8929C12.2501 22.8978 11.0031 24.5359 6.7733 24.5359C4.20606 24.5359 2.20117 23.9736 2.20117 23.9736V33.3379H8.72929C11.1743 33.3379 13.1792 31.3574 13.1792 28.888V6.6875H6.6755Z" fill="url(#paint3_linear_573_12573)"/>
<path d="M18.9733 6.6875C16.5283 6.6875 14.5234 8.66794 14.5234 11.1374V16.9564C15.6481 16.0029 17.6041 15.3917 20.7582 15.5384C22.4452 15.6117 24.2545 16.0763 24.2545 16.0763V17.9589C23.3498 17.4943 22.274 17.0787 20.8804 16.9809C18.4843 16.8097 17.0418 17.9833 17.0418 20.0371C17.0418 22.1154 18.4843 23.289 20.8804 23.0934C22.274 22.9956 23.3498 22.5555 24.2545 22.1154V23.998C24.2545 23.998 22.4696 24.4626 20.7582 24.5359C17.6041 24.6826 15.6481 24.0714 14.5234 23.1178V33.3868H21.0516C23.4965 33.3868 25.5014 31.4063 25.5014 28.9369V6.6875H18.9733Z" fill="url(#paint4_linear_573_12573)"/>
<defs>
<linearGradient id="paint0_linear_573_12573" x1="26.8165" y1="18.1508" x2="37.804" y2="18.1508" gradientUnits="userSpaceOnUse">
<stop stop-color="#007940"/>
<stop offset="0.2285" stop-color="#00873F"/>
<stop offset="0.7433" stop-color="#40A737"/>
<stop offset="1" stop-color="#5CB531"/>
</linearGradient>
<linearGradient id="paint1_linear_573_12573" x1="26.8165" y1="18.1508" x2="37.804" y2="18.1508" gradientUnits="userSpaceOnUse">
<stop stop-color="#007940"/>
<stop offset="0.2285" stop-color="#00873F"/>
<stop offset="0.7433" stop-color="#40A737"/>
<stop offset="1" stop-color="#5CB531"/>
</linearGradient>
<linearGradient id="paint2_linear_573_12573" x1="26.8165" y1="18.1508" x2="37.804" y2="18.1508" gradientUnits="userSpaceOnUse">
<stop stop-color="#007940"/>
<stop offset="0.2285" stop-color="#00873F"/>
<stop offset="0.7433" stop-color="#40A737"/>
<stop offset="1" stop-color="#5CB531"/>
</linearGradient>
<linearGradient id="paint3_linear_573_12573" x1="2.22006" y1="20.0138" x2="13.3776" y2="20.0138" gradientUnits="userSpaceOnUse">
<stop stop-color="#1F286F"/>
<stop offset="0.4751" stop-color="#004E94"/>
<stop offset="0.8261" stop-color="#0066B1"/>
<stop offset="1" stop-color="#006FBC"/>
</linearGradient>
<linearGradient id="paint4_linear_573_12573" x1="14.4599" y1="20.0138" x2="25.296" y2="20.0138" gradientUnits="userSpaceOnUse">
<stop stop-color="#6C2C2F"/>
<stop offset="0.1735" stop-color="#882730"/>
<stop offset="0.5731" stop-color="#BE1833"/>
<stop offset="0.8585" stop-color="#DC0436"/>
<stop offset="1" stop-color="#E60039"/>
</linearGradient>
</defs>
</svg>
