<svg width="40" height="40" viewBox="0 0 40 40" fill="none" xmlns="http://www.w3.org/2000/svg">
<path d="M7 10.7148L11.0332 17.924V22.3214L7.00472 29.5164L7 10.7148Z" fill="#5B57A2"/>
<path d="M22.4844 15.3001L26.2637 12.9838L33.9982 12.9766L22.4844 20.03V15.3001Z" fill="#D90751"/>
<path d="M22.4647 10.6757L22.486 20.2204L18.4434 17.7364V3.46875L22.4647 10.6757Z" fill="#FAB718"/>
<path d="M33.9999 12.9804L26.2651 12.9876L22.4647 10.6757L18.4434 3.46875L33.9999 12.9804Z" fill="#ED6F26"/>
<path d="M22.486 29.5598V24.929L18.4434 22.4922L18.4456 36.774L22.486 29.5598Z" fill="#63B22F"/>
<path d="M26.2559 27.2611L11.033 17.924L7 10.7148L33.9835 27.2517L26.2559 27.2611Z" fill="#1487C9"/>
<path d="M18.4453 36.7767L22.4852 29.5625L26.2551 27.2672L33.9827 27.2578L18.4453 36.7767Z" fill="#017F36"/>
<path d="M7.00586 29.5187L18.4775 22.4913L14.6208 20.125L11.0344 22.3237L7.00586 29.5187Z" fill="#984995"/>
</svg>
