<svg width="41" height="40" viewBox="0 0 41 40" fill="none" xmlns="http://www.w3.org/2000/svg">
<path d="M26.0759 10.2969H15.2598V29.7338H26.0759V10.2969Z" fill="#FF5F00"/>
<path d="M15.9469 20.0176C15.9452 18.1456 16.3694 16.2979 17.1874 14.6141C18.0054 12.9304 19.1957 11.4548 20.6682 10.2991C18.8447 8.86575 16.6546 7.97437 14.3485 7.72685C12.0423 7.47932 9.71295 7.88564 7.62676 8.89935C5.54057 9.91307 3.78166 11.4933 2.5511 13.4594C1.32054 15.4255 0.667969 17.6981 0.667969 20.0176C0.667969 22.337 1.32054 24.6097 2.5511 26.5758C3.78166 28.5418 5.54057 30.1221 7.62676 31.1358C9.71295 32.1495 12.0423 32.5558 14.3485 32.3083C16.6546 32.0608 18.8447 31.1694 20.6682 29.736C19.1957 28.5803 18.0054 27.1047 17.1874 25.421C16.3694 23.7372 15.9452 21.8895 15.9469 20.0176Z" fill="#EB001B"/>
<path d="M40.6676 20.0176C40.6677 22.337 40.0152 24.6096 38.7847 26.5757C37.5542 28.5418 35.7954 30.122 33.7092 31.1357C31.6231 32.1495 29.2938 32.5558 26.9876 32.3083C24.6815 32.0608 22.4915 31.1694 20.668 29.736C22.1392 28.5791 23.3286 27.1033 24.1465 25.4198C24.9643 23.7364 25.3892 21.8892 25.3892 20.0176C25.3892 18.1459 24.9643 16.2988 24.1465 14.6153C23.3286 12.9318 22.1392 11.456 20.668 10.2991C22.4915 8.86575 24.6815 7.97437 26.9876 7.72685C29.2938 7.47932 31.6231 7.88565 33.7092 8.89937C35.7954 9.9131 37.5542 11.4933 38.7847 13.4594C40.0152 15.4255 40.6677 17.6981 40.6676 20.0176Z" fill="#F79E1B"/>
<path d="M39.4884 27.6751V27.2772H39.6489V27.1961H39.2402V27.2772H39.4008V27.6751H39.4884ZM40.2818 27.6751V27.1953H40.1565L40.0124 27.5253L39.8683 27.1953H39.743V27.6751H39.8315V27.3132L39.9666 27.6252H40.0583L40.1934 27.3124V27.6751H40.2818Z" fill="#F79E1B"/>
</svg>
