<svg width="40" height="40" viewBox="0 0 40 40" fill="none" xmlns="http://www.w3.org/2000/svg">
<path fill-rule="evenodd" clip-rule="evenodd" d="M3.69893 14.5331C4.05628 14.531 5.11832 14.4353 5.56818 15.9536C5.87121 16.9763 6.35392 18.6516 7.01631 20.9794H7.28607C7.99642 18.5253 8.4844 16.85 8.75 15.9536C9.20454 14.4195 10.3409 14.5331 10.7955 14.5331L14.3024 14.5331V25.4422H10.728V19.0133H10.4883L8.49581 25.4422H5.80657L3.81404 19.0086H3.57435V25.4422H0V14.5331L3.69893 14.5331ZM19.4351 14.5331V20.9668H19.7202L22.144 15.6765C22.6144 14.6237 23.6172 14.5331 23.6172 14.5331H27.0761V25.4422H23.4271V19.0086H23.142L20.7658 24.2989C20.2953 25.347 19.245 25.4422 19.245 25.4422H15.7861V14.5331H19.4351ZM39.6887 19.7172C39.1797 21.1596 37.5812 22.1926 35.8115 22.1926H31.9848V25.4422H28.5148V19.7172H39.6887Z" fill="#0F754E"/>
<path fill-rule="evenodd" clip-rule="evenodd" d="M35.978 14.5312H28.332C28.514 16.96 30.6056 19.0391 32.7708 19.0391H39.929C40.342 17.0206 38.92 14.5312 35.978 14.5312Z" fill="url(#paint0_linear_573_12574)"/>
<defs>
<linearGradient id="paint0_linear_573_12574" x1="39.9992" y1="17.3669" x2="28.332" y2="17.3669" gradientUnits="userSpaceOnUse">
<stop stop-color="#1F5CD7"/>
<stop offset="1" stop-color="#02AEFF"/>
</linearGradient>
</defs>
</svg>
