<svg width="99" height="22" viewBox="0 0 99 22" fill="none" xmlns="http://www.w3.org/2000/svg">
<path d="M2.13472 10.6356C2.03282 6.45801 8.62188 6.45801 8.55395 10.6016C8.58792 12.6735 6.9916 13.7263 5.36132 13.7263C3.73103 13.7263 2.10075 12.7074 2.13472 10.6356ZM1.62525 6.86558C0.572363 7.91847 0.0629001 9.17514 0.0629001 10.6016V20.0777C0.0289359 21.4362 2.16868 21.4023 2.13472 20.0777V14.8132C5.42925 17.4964 10.7956 14.8811 10.6258 10.6016C10.7616 7.47693 7.9426 5.30322 5.1915 5.30322C3.90086 5.33719 2.61022 5.81269 1.62525 6.86558Z" fill="white" fill-opacity="0.3"/>
<path d="M12.1531 1.05799V14.7795C12.1191 15.6966 13.3078 16.206 13.9532 15.5267C14.1569 15.323 14.2588 15.0852 14.2588 14.7795V1.05799C14.2588 0.378705 13.7494 0.0390625 13.2059 0.0390625C12.6625 0.0730267 12.1531 0.378705 12.1531 1.05799Z" fill="white" fill-opacity="0.3"/>
<path d="M24.1432 10.534C24.1772 12.1643 23.1583 13.7945 21.0864 13.7266C18.9127 13.7945 17.8938 12.1643 17.9278 10.534C17.9617 8.93767 19.0146 7.30738 21.0864 7.34135C23.0903 7.30738 24.1432 8.93767 24.1432 10.534ZM17.3164 6.83188C12.6633 11.3831 19.1165 18.6514 24.2111 14.7455C24.2451 16.0701 26.3169 16.1381 26.283 14.7455V10.6019C26.4528 7.44324 23.7017 5.26953 20.9166 5.26953C19.626 5.26953 18.3353 5.74503 17.3164 6.83188Z" fill="white" fill-opacity="0.3"/>
<path d="M27.5742 8.4282C27.5742 10.0245 28.5931 11.6208 30.665 11.5869C33.0425 11.9265 30.9027 15.1531 29.6121 13.1153C28.0497 10.7717 26.4874 13.7266 28.695 15.1531C31.6839 17.6665 35.6917 13.0813 32.9066 10.4321C32.1254 9.41316 30.8348 9.78677 29.9177 9.17542C28.695 7.98667 31.0386 6.49224 31.6499 7.91874C33.5519 10.8057 35.352 5.50728 30.665 5.26953H30.597C28.5931 5.26953 27.6082 6.83188 27.5742 8.4282Z" fill="white" fill-opacity="0.3"/>
<path d="M38.3411 0.00173537C36.541 -0.100157 37.5599 4.31519 37.3222 5.26619H36.8467C35.9636 5.23222 34.7409 5.19826 34.7409 6.31908C34.7069 7.4399 35.9636 7.40593 36.8467 7.37197H37.2882V14.8101C37.2543 15.3196 37.7637 15.897 38.3071 15.863C38.8845 15.897 39.394 15.3196 39.36 14.8101V7.3414H40.8545C41.5337 7.3414 41.8734 6.83194 41.8734 6.28851C41.8734 5.74508 41.5337 5.23562 40.8545 5.23562H39.36C39.1563 4.35255 40.1412 0.00173537 38.443 0.00173537H38.3411Z" fill="white" fill-opacity="0.3"/>
<path d="M43.0282 6.28811C43.1301 6.55982 42.7226 15.7302 43.3339 15.5264C43.9113 16.2057 45.134 15.6962 45.1001 14.7792V6.28811C45.1001 5.60882 44.5906 5.26918 44.0472 5.26918C43.5717 5.26918 43.0282 5.60882 43.0282 6.28811ZM44.1151 1.05762C43.4358 1.05762 43.0962 1.56708 43.0962 2.11051C43.0962 2.65394 43.4358 3.1634 44.1151 3.1634C44.7944 3.19736 45.134 2.65394 45.134 2.11051C45.1001 1.56708 44.7604 1.05762 44.1151 1.05762Z" fill="white" fill-opacity="0.3"/>
<path d="M46.7644 1.05799V14.7795C46.7304 15.6966 47.9192 16.206 48.5645 15.5267C48.7683 15.323 48.8702 15.0852 48.8702 14.7795V1.05799C48.8702 0.378705 48.3607 0.0390625 47.8173 0.0390625C47.3078 0.0730267 46.7644 0.378705 46.7644 1.05799Z" fill="white" fill-opacity="0.3"/>
<path d="M50.5 6.2881V14.7792C50.5 15.3565 50.9755 15.832 51.5529 15.832C52.0963 15.832 52.6058 15.3565 52.5718 14.7792V6.2881C52.5718 5.60882 52.0624 5.26918 51.5189 5.26918C51.0095 5.26918 50.5 5.60882 50.5 6.2881ZM51.5529 1.05762C50.8736 1.05762 50.534 1.56708 50.534 2.11051C50.534 2.65393 50.8736 3.1634 51.5529 3.1634C52.2322 3.19736 52.5718 2.65393 52.5718 2.11051C52.5718 1.56708 52.2322 1.05762 51.5529 1.05762Z" fill="white" fill-opacity="0.3"/>
<path d="M54.1348 14.7798C54.1009 16.1384 56.2746 16.1384 56.2067 14.7798V10.5343C56.1048 6.35666 62.6938 6.39062 62.6259 10.5343V14.7798C62.5919 16.1384 64.7317 16.1384 64.6977 14.7798C64.9355 10.6361 64.9015 5.40566 59.3993 5.23584C53.9311 5.40566 53.8971 10.6022 54.1348 14.7798Z" fill="white" fill-opacity="0.3"/>
<path d="M14.6336 20.9949H14.26L13.6147 18.8212C13.5807 18.7193 13.5468 18.6174 13.5128 18.4476C13.4788 18.3118 13.4449 18.2099 13.4449 18.1759C13.4109 18.3797 13.343 18.5835 13.275 18.8212L12.6297 20.9949H12.2561L11.373 17.7344H11.7806L12.2901 19.7383C12.358 20.01 12.4259 20.2817 12.4599 20.5194C12.4939 20.2477 12.5618 19.976 12.6297 19.7043L13.2071 17.7344H13.6486L14.26 19.7383C14.3279 19.976 14.3959 20.2138 14.4298 20.5194C14.4638 20.3157 14.4978 20.0439 14.5996 19.7383L15.1091 17.7344H15.5167L14.6336 20.9949Z" fill="white" fill-opacity="0.3"/>
<path d="M24.3458 20.9949H22.5117V17.7344H24.3458V18.074H22.9193V19.1269H24.2779V19.4666H22.9193V20.6553H24.3458V20.9949Z" fill="white" fill-opacity="0.3"/>
<path d="M31.584 17.7344H32.501C32.9426 17.7344 33.2482 17.8023 33.452 17.9382C33.6558 18.074 33.7577 18.2778 33.7577 18.5495C33.7577 18.7533 33.6898 18.8892 33.5879 19.025C33.486 19.1609 33.3162 19.2288 33.1124 19.2628V19.2967C33.6218 19.3986 33.8596 19.6364 33.8596 20.0779C33.8596 20.3836 33.7577 20.5874 33.5539 20.7572C33.3501 20.927 33.0784 20.9949 32.7388 20.9949H31.584V17.7344ZM31.9576 19.1269H32.5689C32.8407 19.1269 33.0444 19.0929 33.1463 18.9911C33.2482 18.9231 33.3162 18.7533 33.3162 18.5495C33.3162 18.3797 33.2482 18.2438 33.1124 18.1419C32.9765 18.074 32.7727 18.0061 32.501 18.0061H31.9576V19.1269ZM31.9576 19.4666V20.6893H32.6369C32.9086 20.6893 33.1124 20.6553 33.2482 20.5194C33.3841 20.4175 33.452 20.2477 33.452 20.0439C33.452 19.8402 33.3841 19.7043 33.2482 19.6024C33.1124 19.5005 32.9086 19.4666 32.6369 19.4666H31.9576Z" fill="white" fill-opacity="0.3"/>
<path d="M50.6023 20.1461C50.6023 20.4178 50.5004 20.6556 50.2966 20.8254C50.0928 20.9952 49.8211 21.0631 49.4475 21.0631C49.0739 21.0631 48.7682 21.0292 48.5645 20.9273V20.5537C48.7003 20.6216 48.8362 20.6556 49.006 20.6895C49.1758 20.7235 49.3117 20.7235 49.4815 20.7235C49.7192 20.7235 49.923 20.6895 50.0589 20.5876C50.1947 20.4857 50.2627 20.3499 50.2627 20.1801C50.2627 20.0782 50.2287 19.9763 50.1947 19.9084C50.1608 19.8404 50.0589 19.7725 49.957 19.7046C49.8551 19.6366 49.6853 19.5687 49.4815 19.5008C49.1758 19.3989 48.972 19.263 48.8362 19.1272C48.7003 18.9913 48.6324 18.7875 48.6324 18.5498C48.6324 18.312 48.7343 18.1083 48.9041 17.9384C49.1079 17.8026 49.3456 17.7007 49.6513 17.7007C49.9909 17.7007 50.2627 17.7686 50.5344 17.8705L50.4325 18.2101C50.1608 18.1083 49.8891 18.0403 49.6513 18.0403C49.4475 18.0403 49.2777 18.0743 49.1758 18.1762C49.0739 18.2781 49.006 18.38 49.006 18.5498C49.006 18.6517 49.04 18.7536 49.0739 18.8215C49.1079 18.8894 49.1758 18.9574 49.2777 19.0253C49.3796 19.0932 49.5154 19.1611 49.7192 19.2291C50.0589 19.3649 50.2966 19.4668 50.4325 19.6366C50.5344 19.7385 50.6023 19.9084 50.6023 20.1461Z" fill="white" fill-opacity="0.3"/>
<path d="M58.7539 20.9949H58.3803V18.074H57.3613V17.7344H59.8068V18.074H58.7878L58.7539 20.9949Z" fill="white" fill-opacity="0.3"/>
<path d="M69.2489 17.7346V19.8404C69.2489 20.214 69.147 20.5197 68.9093 20.7235C68.6715 20.9273 68.3659 21.0292 67.9922 21.0292C67.5847 21.0292 67.279 20.9273 67.0752 20.7235C66.8714 20.5197 66.7695 20.214 66.7695 19.8404V17.7346H67.1431V19.8744C67.1431 20.1461 67.2111 20.3499 67.3809 20.4857C67.5167 20.6216 67.7545 20.6895 68.0262 20.6895C68.2979 20.6895 68.5017 20.6216 68.6715 20.4857C68.8074 20.3499 68.9093 20.1461 68.9093 19.8404V17.7007H69.2489V17.7346Z" fill="white" fill-opacity="0.3"/>
<path d="M79.2344 19.3307C79.2344 19.8741 79.0985 20.2817 78.7929 20.5534C78.4872 20.8251 78.0796 20.9949 77.5362 20.9949H76.6191V17.7344H77.6041C78.1136 17.7344 78.5211 17.8702 78.7929 18.1419C79.0985 18.4476 79.2344 18.8212 79.2344 19.3307ZM78.8268 19.3647C78.8268 18.9231 78.7249 18.6174 78.5211 18.4137C78.3174 18.2099 77.9777 18.074 77.5701 18.074H77.0267V20.6893H77.5022C77.9437 20.6893 78.2834 20.5874 78.5211 20.3496C78.7249 20.1119 78.8268 19.7722 78.8268 19.3647Z" fill="white" fill-opacity="0.3"/>
<path d="M86.4668 20.9949V17.7344H86.8404V20.9949H86.4668Z" fill="white" fill-opacity="0.3"/>
<path d="M97.0638 19.3652C97.0638 19.8747 96.928 20.2822 96.6563 20.5879C96.3845 20.8936 96.0109 21.0294 95.5694 21.0294C95.0939 21.0294 94.7203 20.8936 94.4486 20.5879C94.1769 20.2822 94.041 19.8747 94.041 19.3312C94.041 18.7878 94.1769 18.3802 94.4486 18.1085C94.7203 17.8029 95.0939 17.667 95.5694 17.667C96.0449 17.667 96.4185 17.8029 96.6563 18.1085C96.9619 18.4142 97.0638 18.8218 97.0638 19.3652ZM94.4825 19.3652C94.4825 19.8067 94.5844 20.1464 94.7543 20.3841C94.958 20.6219 95.2298 20.7238 95.5694 20.7238C95.943 20.7238 96.2147 20.6219 96.3845 20.3841C96.5544 20.1464 96.6563 19.8067 96.6563 19.3652C96.6563 18.9237 96.5544 18.584 96.3845 18.3802C96.2147 18.1765 95.943 18.0406 95.5694 18.0406C95.1958 18.0406 94.9241 18.1425 94.7543 18.3802C94.5844 18.584 94.4825 18.9237 94.4825 19.3652Z" fill="white" fill-opacity="0.3"/>
<path d="M83.5115 14.7455C83.5794 16.1381 81.4736 16.0701 81.4397 14.7455C76.345 18.6514 69.8918 11.3831 74.5449 6.83186C77.6696 3.46941 83.7492 5.94879 83.5115 10.6019V14.7455ZM78.315 13.7266C82.4246 13.8625 82.3567 7.2734 78.315 7.34132C74.1713 7.2734 74.0355 13.8625 78.315 13.7266Z" fill="white" fill-opacity="0.3"/>
<path d="M87.0437 14.7797C87.0777 16.1382 84.9379 16.1382 84.9719 14.7797V10.5341C84.2926 7.61322 90.2363 3.02805 91.3232 6.28861C91.3232 6.79807 90.8477 7.37547 90.2703 7.3415C86.3644 7.23961 87.0777 12.2323 87.0437 14.7797Z" fill="white" fill-opacity="0.3"/>
<path d="M97.9812 5.26994C99.3398 5.23597 99.3398 7.37572 97.9812 7.34176H96.4868V14.7799C96.4868 15.2894 96.0113 15.8668 95.4339 15.8328C94.8905 15.8668 94.381 15.2894 94.415 14.7799V7.34176C93.5659 7.34176 91.8337 7.61347 91.8677 6.28887C91.8337 4.99823 93.5999 5.26994 94.415 5.26994C94.6527 4.31894 93.6338 -0.0964054 95.4339 0.00548726C97.234 -0.13037 96.2491 4.31894 96.4868 5.26994H97.9812Z" fill="white" fill-opacity="0.3"/>
</svg>
