<svg width="24" height="24" viewBox="0 0 24 24" fill="none" xmlns="http://www.w3.org/2000/svg">
<path d="M12 0L15.4901 3.57422L20.4853 3.51472L20.4258 8.50993L24 12L20.4258 15.4901L20.4853 20.4853L15.4901 20.4258L12 24L8.50993 20.4258L3.51472 20.4853L3.57422 15.4901L0 12L3.57422 8.50993L3.51472 3.51472L8.50993 3.57422L12 0Z" fill="#FF2E00"/>
<path d="M8.41486 16.8329L14.3452 7.19438H15.5449L9.6282 16.8329H8.41486ZM14.7133 16.9147C14.2771 16.9147 13.909 16.8193 13.6091 16.6284C13.3182 16.4376 13.0955 16.1831 12.941 15.865C12.7865 15.5378 12.7093 15.1743 12.7093 14.7743C12.7093 14.3563 12.7865 13.9882 12.941 13.6701C13.0955 13.352 13.3228 13.102 13.6227 12.9203C13.9226 12.7385 14.2862 12.6476 14.7133 12.6476C15.1314 12.6476 15.4859 12.7385 15.7767 12.9203C16.0675 13.102 16.2902 13.352 16.4447 13.6701C16.5992 13.9882 16.6765 14.3563 16.6765 14.7743C16.6765 15.1743 16.5992 15.5378 16.4447 15.865C16.2902 16.1831 16.0675 16.4376 15.7767 16.6284C15.4859 16.8193 15.1314 16.9147 14.7133 16.9147ZM14.6997 15.9468C14.936 15.9468 15.1223 15.8923 15.2586 15.7832C15.4041 15.6741 15.504 15.5287 15.5586 15.3469C15.6222 15.1652 15.654 14.9743 15.654 14.7743C15.654 14.5744 15.6222 14.3881 15.5586 14.2154C15.504 14.0336 15.4041 13.8882 15.2586 13.7791C15.1223 13.6701 14.936 13.6155 14.6997 13.6155C14.3361 13.6155 14.0771 13.7337 13.9226 13.97C13.7772 14.2063 13.7045 14.4744 13.7045 14.7743C13.7045 15.0925 13.7817 15.3697 13.9362 15.606C14.0908 15.8332 14.3452 15.9468 14.6997 15.9468ZM9.31464 11.3525C8.87839 11.3525 8.51029 11.257 8.21037 11.0662C7.91953 10.8753 7.69686 10.6208 7.54235 10.3027C7.39693 9.97552 7.32422 9.61197 7.32422 9.21207C7.32422 8.79399 7.39693 8.42589 7.54235 8.10779C7.69686 7.78969 7.92407 7.53975 8.224 7.35797C8.52393 7.1762 8.88747 7.08531 9.31464 7.08531C9.74181 7.08531 10.1008 7.1762 10.3917 7.35797C10.6825 7.53975 10.9006 7.78969 11.046 8.10779C11.2005 8.42589 11.2778 8.79399 11.2778 9.21207C11.2778 9.61197 11.2005 9.97552 11.046 10.3027C10.9006 10.6208 10.6825 10.8753 10.3917 11.0662C10.1008 11.257 9.74181 11.3525 9.31464 11.3525ZM9.31464 10.3845C9.55095 10.3845 9.73727 10.33 9.8736 10.2209C10.0099 10.1118 10.1099 9.96643 10.1735 9.78465C10.2371 9.60288 10.269 9.41202 10.269 9.21207C10.269 9.01212 10.2371 8.8258 10.1735 8.65311C10.1099 8.47134 10.0099 8.32592 9.8736 8.21685C9.73727 8.10779 9.55095 8.05326 9.31464 8.05326C8.9511 8.05326 8.69207 8.17141 8.53756 8.40772C8.38305 8.64402 8.3058 8.91214 8.3058 9.21207C8.3058 9.53017 8.38305 9.80738 8.53756 10.0437C8.69207 10.2709 8.9511 10.3845 9.31464 10.3845Z" fill="white"/>
</svg>
