<svg width="41" height="40" viewBox="0 0 41 40" fill="none" xmlns="http://www.w3.org/2000/svg">
<path d="M20.1374 13.7438L17.4651 26.2375H14.2327L16.9053 13.7438H20.1374ZM33.7358 21.8111L35.437 17.1195L36.416 21.8111H33.7358ZM37.3433 26.2375H40.332L37.721 13.7438H34.964C34.3427 13.7438 33.8189 14.104 33.5871 14.6596L28.7373 26.2375H32.1318L32.8056 24.3716H36.9518L37.3433 26.2375ZM28.9056 22.1587C28.9196 18.8614 24.3474 18.6788 24.3781 17.2055C24.3879 16.7578 24.815 16.281 25.7485 16.159C26.2113 16.0995 27.4885 16.0511 28.9362 16.7182L29.5024 14.0678C28.7249 13.7865 27.7243 13.5156 26.4791 13.5156C23.2838 13.5156 21.0361 15.2129 21.0181 17.6453C20.9976 19.444 22.6238 20.4469 23.8464 21.046C25.107 21.6583 25.5293 22.0508 25.5232 22.5979C25.5144 23.4362 24.518 23.8074 23.5901 23.8214C21.9642 23.8467 21.0218 23.3819 20.2706 23.0318L19.6839 25.7707C20.4404 26.1169 21.8341 26.4182 23.2774 26.4336C26.6744 26.4336 28.8955 24.7563 28.9056 22.1587ZM15.5189 13.7438L10.2818 26.2375H6.86564L4.28828 16.2666C4.13204 15.6535 3.99576 15.4281 3.52058 15.169C2.74332 14.747 1.46026 14.3522 0.332031 14.1066L0.408465 13.7438H5.90826C6.60881 13.7438 7.2391 14.21 7.39955 15.017L8.76101 22.2472L12.1232 13.7438H15.5189Z" fill="#1434CB"/>
</svg>
