<!-- svg спрайты -->
<svg xmlns="http://www.w3.org/2000/svg" display="none">

	<!-- Logo  -->
	<symbol id="logo" viewBox="0 0 168 53">
		<path
			d="M57.8538 25.1644V18.4492C54.9101 18.4492 54.9102 18.4492 54.9102 18.9188V34.885C57.8538 34.885 57.8538 34.885 57.8538 34.4155V27.1836C58.1376 27.3012 58.396 27.4655 58.6285 27.7003C60.1003 29.2031 60.3325 31.9968 60.3325 34.8613C61.0553 34.9084 61.7524 34.9318 62.3982 34.9318C63.431 34.9318 63.6116 34.8146 63.6116 34.3918C63.6116 30.2361 62.7079 27.0664 60.8231 25.47L63.7665 19.0834C63.9733 18.6138 63.5603 18.4258 62.5271 18.4258C62.0368 18.4258 61.3653 18.4729 60.6679 18.6138L57.8538 25.1644ZM67.2267 18.4492L68.3112 22.6993C68.6725 25.0001 69.1375 27.0898 69.3443 28.6394C69.3697 27.1131 69.7057 25.0001 70.1187 22.6993L70.7386 19.3182C70.8675 18.7311 71.0223 18.4492 71.6938 18.4492C72.3909 18.4492 73.0624 18.4492 73.7595 18.4492C73.7595 18.7311 71.2548 30.0952 70.971 31.2457C70.4801 33.5231 70.1444 35.026 68.1303 35.0023C66.9945 35.026 65.9357 34.6499 65.8325 34.1336C65.7036 33.5231 66.0909 32.7015 66.3231 32.2553C66.7361 32.4664 67.3303 32.6778 67.5881 32.6778C68.0014 32.6778 68.1823 32.1378 68.2599 31.5744C67.4851 29.9075 65.3419 22.5347 64.6191 19.8345C64.4639 19.2945 64.3866 19.0129 64.3866 18.8252C64.3866 18.5197 64.6447 18.4492 65.1613 18.4492H67.2267ZM75.1794 18.4492C74.7407 18.4492 74.6631 18.5901 74.6631 18.9188V34.885C77.5292 34.885 77.5552 34.885 77.5552 34.4155V28.5455H77.7357C80.1371 28.5455 82.6418 27.5359 82.6418 23.2861C82.6418 19.4354 80.8602 18.4492 77.6068 18.4492H75.1794ZM77.5552 26.1269V20.7269H78.2523C79.0526 20.7269 79.3884 21.4546 79.3884 22.9575C79.3884 25.5872 78.8721 26.1269 78.0714 26.1269H77.5552ZM88.5811 18.0972C86.2569 18.0972 83.4165 19.5059 83.4165 27.2073C83.4165 33.7816 84.8107 35.2371 87.7287 35.2371C89.6909 35.2371 90.8789 34.6032 90.8789 33.4997C90.8789 32.9363 90.698 32.3492 90.4915 31.9501C90.0009 32.1849 89.2782 32.3024 88.4775 32.3024C87.0316 32.3024 86.4634 31.0814 86.4634 26.9959C86.4634 21.8771 87.8063 20.6564 89.2782 20.6564C89.8461 20.6564 90.3107 20.8441 90.6204 21.0555C90.8273 20.6564 91.0338 20.1164 91.0338 19.4822C91.0338 18.7778 90.7753 18.0972 88.5811 18.0972ZM94.9587 25.1644V18.4492C92.0153 18.4492 92.0153 18.4492 92.0153 18.9188V34.885C94.9586 34.885 94.9587 34.885 94.9587 34.4155V27.1836C95.2428 27.3012 95.5009 27.4655 95.7334 27.7003C97.2052 29.2031 97.4377 31.9968 97.4377 34.8613C98.1604 34.9084 98.8576 34.9318 99.5031 34.9318C100.536 34.9318 100.717 34.8146 100.717 34.3918C100.717 30.2361 99.8131 27.0664 97.928 25.47L100.872 19.0834C101.078 18.6138 100.665 18.4258 99.6323 18.4258C99.1417 18.4258 98.4702 18.4729 97.7731 18.6138L94.9587 25.1644ZM107.611 28.5923C107.998 27.7944 108.825 24.6952 109.134 23.4741C108.954 24.8829 108.773 27.8175 108.773 28.8508V34.885C111.717 34.885 111.665 34.885 111.665 34.4155V18.4492C108.876 18.4492 108.851 18.4492 108.566 19.0834L106.087 24.8124C105.855 25.3995 105.132 27.9821 104.693 29.4376C104.822 27.9821 105.003 25.5872 105.003 24.6247V18.4492C102.059 18.4492 102.111 18.4492 102.111 18.9188V34.885C104.925 34.885 104.874 34.885 105.158 34.2512L107.611 28.5923ZM116.287 13.1196C115.203 13.5187 114.892 13.9412 114.892 14.5988C114.892 15.9137 116.597 17.2282 118.223 17.2282C120.134 17.2282 121.296 16.1718 121.942 14.5751C121.761 13.7301 120.599 12.7202 120.057 13.4716C119.695 14.0354 119.256 14.7397 118.249 14.7397C117.242 14.7397 116.571 13.7769 116.287 13.1196ZM118.766 28.5923C119.153 27.7944 119.979 24.6952 120.289 23.4741C120.108 24.8829 119.928 27.8175 119.928 28.8508V34.885C122.871 34.885 122.82 34.885 122.82 34.4155V18.4492C120.031 18.4492 120.005 18.4492 119.721 19.0834L117.242 24.8124C117.01 25.3995 116.287 27.9821 115.848 29.4376C115.977 27.9821 116.157 25.5872 116.157 24.6247V18.4492C113.214 18.4492 113.266 18.4492 113.266 18.9188V34.885C116.08 34.885 116.029 34.885 116.313 34.2512L118.766 28.5923ZM137.382 18.4492V32.4197H138.467V36.4162C138.467 37.1663 137.873 37.1673 136.453 37.1673C136.143 36.2048 135.782 36.3876 135.601 34.885H130.204C130.023 36.411 129.869 35.8758 129.584 36.5334C129.326 37.1205 128.758 37.1673 127.364 37.1673V32.8892C127.364 32.3959 127.648 32.4434 128.5 32.4197C129.714 30.2595 130.049 26.3149 130.307 18.9188C130.307 18.4492 130.256 18.4492 133.2 18.4492H137.382ZM134.542 32.4197V20.9146H133.096C132.864 26.1506 132.477 29.649 131.392 32.4197H134.542ZM139.629 34.885H143.011C146.497 34.885 147.84 32.396 147.84 29.2967C147.84 26.5497 146.136 26.0097 144.87 25.8925C146.007 25.7515 147.246 24.5305 147.246 22.1356C147.246 19.0834 145.051 18.4492 142.882 18.4492H140.352C139.784 18.4492 139.629 18.6138 139.629 18.9188V34.885ZM142.572 20.7503H143.166C143.631 20.7503 144.044 21.0555 144.044 22.6993C144.044 24.0376 143.683 24.9296 143.063 24.9296H142.572V20.7503ZM142.572 27.1368H143.141C143.941 27.1368 144.38 27.4184 144.38 29.5318C144.38 31.4571 143.889 32.6073 143.089 32.6073H142.572V27.1368ZM148.615 26.5731C148.615 33.5231 149.88 35.0961 153.262 35.0961C156.645 35.0961 158.142 33.0772 158.142 26.4793C158.142 19.9988 156.903 18.2381 153.546 18.2381C150.216 18.2381 148.615 20.1869 148.615 26.5731ZM151.92 27.1602C151.92 22.5584 152.255 20.9383 153.443 20.9383C154.837 20.9383 154.967 22.4879 154.967 26.5731C154.967 30.7291 154.683 32.3729 153.417 32.3729C152.1 32.3729 151.92 30.8233 151.92 27.1602ZM159.95 18.4492C159.511 18.4492 159.434 18.5901 159.434 18.9188V34.885C162.3 34.885 162.326 34.885 162.326 34.4155V28.5455H162.506C164.908 28.5455 167.412 27.5359 167.412 23.2861C167.412 19.4354 165.631 18.4492 162.377 18.4492H159.95ZM162.326 26.1269V20.7269H163.023C163.823 20.7269 164.159 21.4546 164.159 22.9575C164.159 25.5872 163.643 26.1269 162.842 26.1269H162.326Z"
			fill="#120B8D" />
		<path
			d="M55.0352 48.901C55.0352 49.1331 55.0797 49.3494 55.1683 49.5491C55.2573 49.7488 55.3761 49.9232 55.5251 50.072C55.6745 50.2207 55.8498 50.3392 56.0501 50.4275C56.2511 50.5159 56.4635 50.56 56.6875 50.56C56.9207 50.56 57.1379 50.5159 57.3385 50.4275C57.5392 50.3392 57.7142 50.2207 57.8636 50.072C58.0129 49.9232 58.1321 49.7488 58.2207 49.5491C58.3094 49.3494 58.3538 49.1331 58.3538 48.901V43.5753C58.3538 43.3522 58.3094 43.1408 58.2207 42.9408C58.1321 42.741 58.0129 42.5667 57.8636 42.4179C57.7142 42.2692 57.5392 42.1507 57.3385 42.0627C57.1379 41.9743 56.9207 41.9302 56.6875 41.9302C56.4635 41.9302 56.2511 41.9743 56.0501 42.0627C55.8498 42.1507 55.6745 42.2692 55.5251 42.4179C55.3761 42.5667 55.2573 42.741 55.1683 42.9408C55.0797 43.1408 55.0352 43.3522 55.0352 43.5753V48.901ZM56.2813 43.5753C56.2813 43.4636 56.3209 43.3684 56.4005 43.2895C56.4797 43.2103 56.5755 43.171 56.6875 43.171C56.809 43.171 56.9093 43.2103 56.9885 43.2895C57.0677 43.3684 57.1077 43.4636 57.1077 43.5753V48.901C57.1077 49.0123 57.0677 49.1101 56.9885 49.1935C56.9093 49.2773 56.809 49.3192 56.6875 49.3192C56.5755 49.3192 56.4797 49.2773 56.4005 49.1935C56.3209 49.1101 56.2813 49.0123 56.2813 48.901V43.5753ZM60.5098 41.9997C60.3419 41.9997 60.1971 42.0601 60.0757 42.1809C59.9546 42.302 59.8939 42.4504 59.8939 42.6271C59.8939 42.7943 59.9546 42.9385 60.0757 43.0593C60.1971 43.1801 60.3419 43.2405 60.5098 43.2405H61.3362V49.9047C61.3362 50.0814 61.3965 50.2301 61.518 50.3509C61.6394 50.4717 61.7888 50.5321 61.966 50.5321C62.1339 50.5321 62.2787 50.4717 62.4002 50.3509C62.5216 50.2301 62.5823 50.0814 62.5823 49.9047V43.2405H63.4223C63.5902 43.2405 63.735 43.1801 63.8564 43.0593C63.9779 42.9385 64.0382 42.7943 64.0382 42.6271C64.0382 42.4504 63.9779 42.302 63.8564 42.1809C63.735 42.0601 63.5902 41.9997 63.4223 41.9997H60.5098ZM66.0267 49.2354C65.8581 49.2354 65.7136 49.2958 65.5925 49.4166C65.4711 49.5374 65.4104 49.6816 65.4104 49.8489V51.7171C65.4104 51.8843 65.4711 52.0285 65.5925 52.1493C65.7136 52.2701 65.8581 52.3305 66.0267 52.3305C66.2036 52.3305 66.353 52.2701 66.4744 52.1493C66.5958 52.0285 66.6565 51.8843 66.6565 51.7171V50.4762H68.9109V51.7171C68.9109 51.8843 68.9716 52.0285 69.0927 52.1493C69.2141 52.2701 69.3586 52.3305 69.5268 52.3305C69.7041 52.3305 69.8535 52.2701 69.9749 52.1493C70.0963 52.0285 70.1571 51.8843 70.1571 51.7171V49.8489C70.1571 49.6816 70.0963 49.5374 69.9749 49.4166C69.8535 49.2958 69.7041 49.2354 69.5268 49.2354V42.6271C69.5268 42.4504 69.4664 42.302 69.345 42.1809C69.2232 42.0601 69.0788 41.9997 68.9109 41.9997H67.3426C67.1838 41.9997 67.0465 42.051 66.9296 42.1533C66.8127 42.2552 66.7449 42.3855 66.7264 42.5436L66.0267 49.2354ZM67.8748 43.1986H68.2807V49.2354H67.2868L67.8748 43.1986ZM75.2395 43.5753C75.2395 43.3522 75.1953 43.1408 75.1067 42.9408C75.0177 42.741 74.8989 42.5667 74.7495 42.4179C74.6001 42.2692 74.4248 42.1507 74.2245 42.0627C74.0238 41.9743 73.8066 41.9302 73.5735 41.9302C73.3494 41.9302 73.1371 41.9743 72.9361 42.0627C72.7354 42.1507 72.5604 42.2692 72.4111 42.4179C72.262 42.5667 72.1429 42.741 72.0542 42.9408C71.9656 43.1408 71.9211 43.3522 71.9211 43.5753V48.901C71.9211 49.1331 71.9656 49.3494 72.0542 49.5491C72.1429 49.7488 72.262 49.9232 72.4111 50.072C72.5604 50.2207 72.7354 50.3392 72.9361 50.4275C73.1371 50.5159 73.3494 50.56 73.5735 50.56C73.8066 50.56 74.0238 50.5159 74.2245 50.4275C74.4248 50.3392 74.6001 50.2207 74.7495 50.072C74.8989 49.9232 75.0177 49.7488 75.1067 49.5491C75.1953 49.3494 75.2395 49.1331 75.2395 48.901V48.2037C75.2395 48.0271 75.1791 47.8784 75.0576 47.7576C74.9362 47.6368 74.7868 47.5764 74.6096 47.5764C74.4417 47.5764 74.2969 47.6368 74.1754 47.7576C74.054 47.8784 73.9933 48.0271 73.9933 48.2037V48.901C73.9933 49.0123 73.9537 49.1101 73.8744 49.1935C73.7952 49.2773 73.6946 49.3192 73.5735 49.3192C73.4611 49.3192 73.3657 49.2773 73.2864 49.1935C73.2069 49.1101 73.1673 49.0123 73.1673 48.901V46.6979H74.6096C74.7868 46.6979 74.9362 46.6401 75.0576 46.5239C75.1791 46.4076 75.2395 46.2612 75.2395 46.0845V43.5753ZM73.1673 45.4711V43.5753C73.1673 43.4636 73.2069 43.3684 73.2864 43.2895C73.3657 43.2103 73.4611 43.171 73.5735 43.171C73.6946 43.171 73.7952 43.2103 73.8744 43.2895C73.9537 43.3684 73.9933 43.4636 73.9933 43.5753V45.4711H73.1673ZM78.8799 41.9717H79.916C80.0842 41.9717 80.229 42.0325 80.3501 42.1533C80.4716 42.2741 80.5323 42.4228 80.5323 42.5991V49.8768C80.5323 50.044 80.4716 50.1882 80.3501 50.309C80.229 50.4298 80.0842 50.4902 79.916 50.4902C79.7387 50.4902 79.5894 50.4298 79.4679 50.309C79.3468 50.1882 79.2861 50.044 79.2861 49.8768V43.2126H78.8799C78.7585 43.2126 78.6582 43.2522 78.5789 43.3311C78.4994 43.4103 78.4598 43.51 78.4598 43.6308V49.8768C78.4598 50.044 78.3994 50.1882 78.2779 50.309C78.1565 50.4298 78.0117 50.4902 77.8438 50.4902C77.6665 50.4902 77.5172 50.4298 77.3957 50.309C77.2743 50.1882 77.2136 50.044 77.2136 49.8768V43.6308C77.2136 43.3986 77.2581 43.1824 77.3467 42.9826C77.4354 42.7829 77.5545 42.6086 77.7039 42.4598C77.8529 42.3111 78.0282 42.1926 78.2286 42.1042C78.4296 42.0159 78.6465 41.9717 78.8799 41.9717ZM82.5343 48.901C82.5343 49.1331 82.5788 49.3494 82.6675 49.5491C82.7561 49.7488 82.8753 49.9232 83.0243 50.072C83.1737 50.2207 83.3487 50.3392 83.5493 50.4275C83.7503 50.5159 83.9627 50.56 84.1867 50.56C84.4198 50.56 84.637 50.5159 84.8377 50.4275C85.038 50.3392 85.2134 50.2207 85.3627 50.072C85.5121 49.9232 85.6309 49.7488 85.7199 49.5491C85.8085 49.3494 85.8527 49.1331 85.8527 48.901V43.5753C85.8527 43.3522 85.8085 43.1408 85.7199 42.9408C85.6309 42.741 85.5121 42.5667 85.3627 42.4179C85.2134 42.2692 85.038 42.1507 84.8377 42.0627C84.637 41.9743 84.4198 41.9302 84.1867 41.9302C83.9627 41.9302 83.7503 41.9743 83.5493 42.0627C83.3487 42.1507 83.1737 42.2692 83.0243 42.4179C82.8753 42.5667 82.7561 42.741 82.6675 42.9408C82.5788 43.1408 82.5343 43.3522 82.5343 43.5753V48.901ZM83.7805 43.5753C83.7805 43.4636 83.8201 43.3684 83.8997 43.2895C83.9789 43.2103 84.0743 43.171 84.1867 43.171C84.3078 43.171 84.4084 43.2103 84.4877 43.2895C84.5669 43.3684 84.6065 43.4636 84.6065 43.5753V48.901C84.6065 49.0123 84.5669 49.1101 84.4877 49.1935C84.4084 49.2773 84.3078 49.3192 84.1867 49.3192C84.0743 49.3192 83.9789 49.2773 83.8997 49.1935C83.8201 49.1101 83.7805 49.0123 83.7805 48.901V43.5753ZM89.9133 45.4711H89.4931C89.3811 45.4711 89.2853 45.4295 89.2061 45.3458C89.1266 45.262 89.0873 45.1645 89.0873 45.0528V42.5715C89.0873 42.404 89.0266 42.2601 88.9051 42.1393C88.7837 42.0185 88.6343 41.9581 88.457 41.9581C88.2892 41.9581 88.1443 42.0185 88.0229 42.1393C87.9015 42.2601 87.8411 42.404 87.8411 42.5715V45.0528C87.8411 45.2759 87.8852 45.4873 87.9739 45.6874C88.0629 45.8871 88.1817 46.0615 88.3307 46.2102C88.4801 46.3589 88.6554 46.4775 88.8558 46.5658C89.0567 46.6538 89.2691 46.6979 89.4931 46.6979H89.9133V49.9047C89.9133 50.0814 89.974 50.2301 90.0951 50.3509C90.2165 50.4717 90.3614 50.5321 90.5292 50.5321C90.7068 50.5321 90.8562 50.4717 90.9773 50.3509C91.0987 50.2301 91.1595 50.0814 91.1595 49.9047V42.5715C91.1595 42.404 91.0987 42.2601 90.9773 42.1393C90.8562 42.0185 90.7068 41.9581 90.5292 41.9581C90.3614 41.9581 90.2165 42.0185 90.0951 42.1393C89.974 42.2601 89.9133 42.404 89.9133 42.5715V45.4711ZM96.4659 42.5715C96.4659 42.404 96.4055 42.2601 96.2841 42.1393C96.1626 42.0185 96.0133 41.9581 95.836 41.9581C95.6678 41.9581 95.523 42.0185 95.4019 42.1393C95.2805 42.2601 95.2197 42.404 95.2197 42.5715V45.4711H94.3937V42.5715C94.3937 42.404 94.333 42.2601 94.2119 42.1393C94.0904 42.0185 93.9411 41.9581 93.7635 41.9581C93.5956 41.9581 93.4508 42.0185 93.3294 42.1393C93.2083 42.2601 93.1475 42.404 93.1475 42.5715V49.9047C93.1475 50.0814 93.2083 50.2301 93.3294 50.3509C93.4508 50.4717 93.5956 50.5321 93.7635 50.5321C93.9411 50.5321 94.0904 50.4717 94.2119 50.3509C94.333 50.2301 94.3937 50.0814 94.3937 49.9047V46.6979H95.2197V49.9047C95.2197 50.0814 95.2805 50.2301 95.4019 50.3509C95.523 50.4717 95.6678 50.5321 95.836 50.5321C96.0133 50.5321 96.1626 50.4717 96.2841 50.3509C96.4055 50.2301 96.4659 50.0814 96.4659 49.9047V42.5715ZM103.523 42.5715C103.523 42.404 103.462 42.2601 103.341 42.1393C103.22 42.0185 103.075 41.9581 102.906 41.9581C102.729 41.9581 102.58 42.0185 102.458 42.1393C102.337 42.2601 102.277 42.404 102.277 42.5715V49.9047C102.277 50.0814 102.337 50.2301 102.458 50.3509C102.58 50.4717 102.729 50.5321 102.906 50.5321C103.075 50.5321 103.22 50.4717 103.341 50.3509C103.462 50.2301 103.523 50.0814 103.523 49.9047V42.5715ZM99.7005 42.5715C99.7005 42.404 99.6398 42.2601 99.5183 42.1393C99.3969 42.0185 99.2521 41.9581 99.0842 41.9581C98.9069 41.9581 98.7576 42.0185 98.6361 42.1393C98.5147 42.2601 98.454 42.404 98.454 42.5715V49.8489C98.454 50.0255 98.5147 50.1742 98.6361 50.295C98.7576 50.4158 98.9069 50.4762 99.0842 50.4762H100.12C100.344 50.4762 100.557 50.4321 100.757 50.3437C100.958 50.2554 101.133 50.1369 101.282 49.9882C101.432 49.8394 101.551 49.6654 101.64 49.4653C101.728 49.2656 101.773 49.0497 101.773 48.8172V47.1162C101.773 46.8931 101.728 46.6817 101.64 46.482C101.551 46.2823 101.432 46.1079 101.282 45.9592C101.133 45.8104 100.958 45.6919 100.757 45.6036C100.557 45.5153 100.344 45.4711 100.12 45.4711H99.7005V42.5715ZM99.7005 49.2354V46.6979H100.12C100.232 46.6979 100.328 46.7398 100.407 46.8236C100.487 46.9071 100.527 47.0048 100.527 47.1162V48.8172C100.527 48.938 100.487 49.038 100.407 49.1169C100.328 49.1958 100.232 49.2354 100.12 49.2354H99.7005ZM108.829 43.5753C108.829 43.3522 108.785 43.1408 108.696 42.9408C108.607 42.741 108.489 42.5667 108.339 42.4179C108.19 42.2692 108.015 42.1507 107.814 42.0627C107.614 41.9743 107.396 41.9302 107.163 41.9302C106.939 41.9302 106.726 41.9743 106.526 42.0627C106.325 42.1507 106.15 42.2692 106.001 42.4179C105.852 42.5667 105.733 42.741 105.644 42.9408C105.555 43.1408 105.511 43.3522 105.511 43.5753V48.901C105.511 49.1331 105.555 49.3494 105.644 49.5491C105.733 49.7488 105.852 49.9232 106.001 50.072C106.15 50.2207 106.325 50.3392 106.526 50.4275C106.726 50.5159 106.939 50.56 107.163 50.56C107.396 50.56 107.614 50.5159 107.814 50.4275C108.015 50.3392 108.19 50.2207 108.339 50.072C108.489 49.9232 108.607 49.7488 108.696 49.5491C108.785 49.3494 108.829 49.1331 108.829 48.901V48.2037C108.829 48.0271 108.768 47.8784 108.647 47.7576C108.526 47.6368 108.377 47.5764 108.199 47.5764C108.031 47.5764 107.886 47.6368 107.765 47.7576C107.644 47.8784 107.583 48.0271 107.583 48.2037V48.901C107.583 49.0123 107.543 49.1101 107.464 49.1935C107.385 49.2773 107.284 49.3192 107.163 49.3192C107.051 49.3192 106.955 49.2773 106.876 49.1935C106.796 49.1101 106.757 49.0123 106.757 48.901V46.6979H108.199C108.377 46.6979 108.526 46.6401 108.647 46.5239C108.768 46.4076 108.829 46.2612 108.829 46.0845V43.5753ZM106.757 45.4711V43.5753C106.757 43.4636 106.796 43.3684 106.876 43.2895C106.955 43.2103 107.051 43.171 107.163 43.171C107.284 43.171 107.385 43.2103 107.464 43.2895C107.543 43.3684 107.583 43.4636 107.583 43.5753V45.4711H106.757ZM120.198 45.8338L119.037 42.3764C118.99 42.2462 118.913 42.1439 118.805 42.0695C118.698 41.9951 118.574 41.9581 118.434 41.9581C118.266 41.9581 118.122 42.0185 118 42.1393C117.879 42.2601 117.818 42.404 117.818 42.5715V49.9047C117.818 50.0814 117.879 50.2301 118 50.3509C118.122 50.4717 118.266 50.5321 118.434 50.5321C118.612 50.5321 118.761 50.4717 118.882 50.3509C119.004 50.2301 119.064 50.0814 119.064 49.9047V45.9033L119.022 44.8856L119.148 45.3458L120.198 48.7058L121.263 45.3458L121.389 44.8856L121.347 45.9033V49.9047C121.347 50.0814 121.407 50.2301 121.529 50.3509C121.65 50.4717 121.795 50.5321 121.963 50.5321C122.14 50.5321 122.289 50.4717 122.411 50.3509C122.532 50.2301 122.593 50.0814 122.593 49.9047V42.5715C122.593 42.404 122.532 42.2601 122.411 42.1393C122.289 42.0185 122.14 41.9581 121.963 41.9581C121.832 41.9581 121.713 41.9951 121.606 42.0695C121.498 42.1439 121.421 42.2462 121.375 42.3764C121.365 42.3949 121.323 42.5157 121.249 42.7388C121.174 42.9619 121.078 43.2476 120.962 43.5961C120.845 43.9445 120.731 44.2839 120.618 44.6138C120.507 44.9437 120.408 45.2295 120.325 45.4711C120.241 45.713 120.198 45.8338 120.198 45.8338ZM124.581 48.901C124.581 49.1331 124.604 49.3494 124.65 49.5491C124.698 49.7488 124.772 49.9232 124.875 50.072C124.977 50.2207 125.108 50.3392 125.267 50.4275C125.426 50.5159 125.612 50.56 125.827 50.56C126.07 50.56 126.252 50.4925 126.373 50.3577C126.494 50.223 126.571 50.0976 126.604 49.9814C126.637 49.8651 126.653 49.7979 126.653 49.779V49.9047C126.653 50.0814 126.714 50.2301 126.835 50.3509C126.956 50.4717 127.101 50.5321 127.269 50.5321C127.446 50.5321 127.596 50.4717 127.717 50.3509C127.839 50.2301 127.899 50.0814 127.899 49.9047V43.5753C127.899 43.3522 127.855 43.1408 127.766 42.9408C127.678 42.741 127.558 42.5667 127.409 42.4179C127.26 42.2692 127.085 42.1507 126.884 42.0627C126.683 41.9743 126.466 41.9302 126.233 41.9302C126.009 41.9302 125.797 41.9743 125.596 42.0627C125.395 42.1507 125.22 42.2692 125.071 42.4179C124.922 42.5667 124.802 42.741 124.714 42.9408C124.625 43.1408 124.581 43.3522 124.581 43.5753V44.2722C124.581 44.4488 124.641 44.5976 124.763 44.7184C124.884 44.8392 125.029 44.8996 125.197 44.8996C125.374 44.8996 125.524 44.8392 125.645 44.7184C125.766 44.5976 125.827 44.4488 125.827 44.2722V43.5753C125.827 43.4636 125.866 43.3684 125.946 43.2895C126.025 43.2103 126.121 43.171 126.233 43.171C126.354 43.171 126.455 43.2103 126.534 43.2895C126.613 43.3684 126.653 43.4636 126.653 43.5753V45.4016H126.233C126.009 45.4016 125.797 45.4458 125.596 45.5341C125.395 45.6224 125.22 45.7406 125.071 45.8894C124.922 46.0381 124.802 46.2125 124.714 46.4122C124.625 46.6122 124.581 46.8282 124.581 47.0607V48.901ZM126.653 48.901C126.653 49.0123 126.613 49.1101 126.534 49.1935C126.455 49.2773 126.354 49.3192 126.233 49.3192C126.121 49.3192 126.025 49.2773 125.946 49.1935C125.866 49.1101 125.827 49.0123 125.827 48.901V47.0607C125.827 46.9399 125.866 46.8398 125.946 46.7609C126.025 46.6817 126.121 46.6424 126.233 46.6424H126.653V48.901ZM130.055 41.9997C129.887 41.9997 129.743 42.0601 129.621 42.1809C129.5 42.302 129.439 42.4504 129.439 42.6271C129.439 42.7943 129.5 42.9385 129.621 43.0593C129.743 43.1801 129.887 43.2405 130.055 43.2405H130.881V49.9047C130.881 50.0814 130.942 50.2301 131.063 50.3509C131.185 50.4717 131.334 50.5321 131.512 50.5321C131.679 50.5321 131.824 50.4717 131.946 50.3509C132.067 50.2301 132.128 50.0814 132.128 49.9047V43.2405H132.968C133.136 43.2405 133.28 43.1801 133.402 43.0593C133.523 42.9385 133.584 42.7943 133.584 42.6271C133.584 42.4504 133.523 42.302 133.402 42.1809C133.28 42.0601 133.136 41.9997 132.968 41.9997H130.055ZM138.442 43.5753C138.442 43.3522 138.398 43.1408 138.309 42.9408C138.221 42.741 138.102 42.5667 137.952 42.4179C137.803 42.2692 137.628 42.1507 137.427 42.0627C137.226 41.9743 137.009 41.9302 136.776 41.9302C136.552 41.9302 136.34 41.9743 136.139 42.0627C135.938 42.1507 135.763 42.2692 135.614 42.4179C135.465 42.5667 135.346 42.741 135.257 42.9408C135.168 43.1408 135.124 43.3522 135.124 43.5753V48.901C135.124 49.1331 135.168 49.3494 135.257 49.5491C135.346 49.7488 135.465 49.9232 135.614 50.072C135.763 50.2207 135.938 50.3392 136.139 50.4275C136.34 50.5159 136.552 50.56 136.776 50.56C137.009 50.56 137.226 50.5159 137.427 50.4275C137.628 50.3392 137.803 50.2207 137.952 50.072C138.102 49.9232 138.221 49.7488 138.309 49.5491C138.398 49.3494 138.442 49.1331 138.442 48.901V48.2037C138.442 48.0271 138.382 47.8784 138.26 47.7576C138.139 47.6368 137.99 47.5764 137.812 47.5764C137.644 47.5764 137.5 47.6368 137.378 47.7576C137.257 47.8784 137.196 48.0271 137.196 48.2037V48.901C137.196 49.0123 137.156 49.1101 137.077 49.1935C136.998 49.2773 136.898 49.3192 136.776 49.3192C136.664 49.3192 136.568 49.2773 136.489 49.1935C136.41 49.1101 136.37 49.0123 136.37 48.901V46.6979H137.812C137.99 46.6979 138.139 46.6401 138.26 46.5239C138.382 46.4076 138.442 46.2612 138.442 46.0845V43.5753ZM136.37 45.4711V43.5753C136.37 43.4636 136.41 43.3684 136.489 43.2895C136.568 43.2103 136.664 43.171 136.776 43.171C136.898 43.171 136.998 43.2103 137.077 43.2895C137.156 43.3684 137.196 43.4636 137.196 43.5753V45.4711H136.37ZM140.431 52.3863C140.431 52.5536 140.491 52.6974 140.612 52.8186C140.734 52.9394 140.879 52.9998 141.046 52.9998C141.224 52.9998 141.373 52.9394 141.495 52.8186C141.616 52.6974 141.677 52.5536 141.677 52.3863V49.779C141.677 49.7979 141.693 49.8651 141.725 49.9814C141.758 50.0976 141.835 50.223 141.957 50.3577C142.078 50.4925 142.26 50.56 142.503 50.56C142.717 50.56 142.902 50.5159 143.056 50.4275C143.21 50.3392 143.338 50.2207 143.441 50.072C143.543 49.9232 143.62 49.7488 143.672 49.5491C143.723 49.3494 143.749 49.1331 143.749 48.901V43.5753C143.749 43.1197 143.649 42.7316 143.448 42.4111C143.247 42.0903 142.932 41.9302 142.503 41.9302C142.26 41.9302 142.078 41.9974 141.957 42.1322C141.835 42.2669 141.758 42.39 141.725 42.5017C141.693 42.6131 141.677 42.6784 141.677 42.6969V42.5715C141.677 42.404 141.616 42.2601 141.495 42.1393C141.373 42.0185 141.224 41.9581 141.046 41.9581C140.879 41.9581 140.734 42.0185 140.612 42.1393C140.491 42.2601 140.431 42.404 140.431 42.5715V52.3863ZM141.677 43.5753C141.677 43.4636 141.716 43.3684 141.796 43.2895C141.875 43.2103 141.971 43.171 142.083 43.171C142.204 43.171 142.304 43.2103 142.384 43.2895C142.463 43.3684 142.503 43.4636 142.503 43.5753V48.901C142.503 49.0123 142.463 49.1101 142.384 49.1935C142.304 49.2773 142.204 49.3192 142.083 49.3192C141.971 49.3192 141.875 49.2773 141.796 49.1935C141.716 49.1101 141.677 49.0123 141.677 48.901V43.5753ZM146.983 42.5715C146.983 42.404 146.922 42.2601 146.801 42.1393C146.68 42.0185 146.535 41.9581 146.367 41.9581C146.19 41.9581 146.04 42.0185 145.919 42.1393C145.798 42.2601 145.737 42.404 145.737 42.5715V49.9047C145.737 50.0814 145.798 50.2301 145.919 50.3509C146.04 50.4717 146.19 50.5321 146.367 50.5321C146.535 50.5321 146.68 50.4717 146.801 50.3509C146.922 50.2301 146.983 50.0814 146.983 49.9047V49.4446L148.327 45.5269L148.495 44.9694V49.9047C148.495 50.0814 148.554 50.2301 148.67 50.3509C148.787 50.4717 148.934 50.5321 149.111 50.5321C149.289 50.5321 149.436 50.4717 149.552 50.3509C149.669 50.2301 149.727 50.0814 149.727 49.9047V42.5715C149.727 42.404 149.669 42.2601 149.552 42.1393C149.436 42.0185 149.289 41.9581 149.111 41.9581C148.971 41.9581 148.848 41.9974 148.74 42.0763C148.633 42.1555 148.556 42.2601 148.509 42.39L147.193 46.3076L146.983 46.935V42.5715ZM151.729 48.901C151.729 49.1331 151.753 49.3494 151.799 49.5491C151.846 49.7488 151.921 49.9232 152.023 50.072C152.126 50.2207 152.257 50.3392 152.415 50.4275C152.574 50.5159 152.761 50.56 152.976 50.56C153.218 50.56 153.4 50.4925 153.522 50.3577C153.643 50.223 153.72 50.0976 153.753 49.9814C153.785 49.8651 153.802 49.7979 153.802 49.779V49.9047C153.802 50.0814 153.862 50.2301 153.984 50.3509C154.105 50.4717 154.25 50.5321 154.418 50.5321C154.595 50.5321 154.745 50.4717 154.866 50.3509C154.987 50.2301 155.048 50.0814 155.048 49.9047V43.5753C155.048 43.3522 155.004 43.1408 154.915 42.9408C154.826 42.741 154.707 42.5667 154.558 42.4179C154.409 42.2692 154.233 42.1507 154.033 42.0627C153.832 41.9743 153.615 41.9302 153.382 41.9302C153.158 41.9302 152.945 41.9743 152.744 42.0627C152.544 42.1507 152.369 42.2692 152.219 42.4179C152.07 42.5667 151.951 42.741 151.863 42.9408C151.774 43.1408 151.729 43.3522 151.729 43.5753V44.2722C151.729 44.4488 151.79 44.5976 151.912 44.7184C152.033 44.8392 152.178 44.8996 152.346 44.8996C152.523 44.8996 152.672 44.8392 152.794 44.7184C152.915 44.5976 152.976 44.4488 152.976 44.2722V43.5753C152.976 43.4636 153.015 43.3684 153.095 43.2895C153.174 43.2103 153.27 43.171 153.382 43.171C153.503 43.171 153.604 43.2103 153.683 43.2895C153.762 43.3684 153.802 43.4636 153.802 43.5753V45.4016H153.382C153.158 45.4016 152.945 45.4458 152.744 45.5341C152.544 45.6224 152.369 45.7406 152.219 45.8894C152.07 46.0381 151.951 46.2125 151.863 46.4122C151.774 46.6122 151.729 46.8282 151.729 47.0607V48.901ZM153.802 48.901C153.802 49.0123 153.762 49.1101 153.683 49.1935C153.604 49.2773 153.503 49.3192 153.382 49.3192C153.27 49.3192 153.174 49.2773 153.095 49.1935C153.015 49.1101 152.976 49.0123 152.976 48.901V47.0607C152.976 46.9399 153.015 46.8398 153.095 46.7609C153.174 46.6817 153.27 46.6424 153.382 46.6424H153.802V48.901ZM158.688 41.9717H159.724C159.893 41.9717 160.037 42.0325 160.159 42.1533C160.28 42.2741 160.341 42.4228 160.341 42.5991V49.8768C160.341 50.044 160.28 50.1882 160.159 50.309C160.037 50.4298 159.893 50.4902 159.724 50.4902C159.547 50.4902 159.398 50.4298 159.276 50.309C159.155 50.1882 159.094 50.044 159.094 49.8768V43.2126H158.688C158.567 43.2126 158.467 43.2522 158.387 43.3311C158.308 43.4103 158.268 43.51 158.268 43.6308V49.8768C158.268 50.044 158.208 50.1882 158.086 50.309C157.965 50.4298 157.82 50.4902 157.652 50.4902C157.475 50.4902 157.326 50.4298 157.204 50.309C157.083 50.1882 157.022 50.044 157.022 49.8768V43.6308C157.022 43.3986 157.066 43.1824 157.155 42.9826C157.244 42.7829 157.363 42.6086 157.512 42.4598C157.661 42.3111 157.837 42.1926 158.037 42.1042C158.238 42.0159 158.455 41.9717 158.688 41.9717ZM167.411 42.5715C167.411 42.404 167.35 42.2601 167.229 42.1393C167.108 42.0185 166.963 41.9581 166.795 41.9581C166.618 41.9581 166.468 42.0185 166.347 42.1393C166.226 42.2601 166.165 42.404 166.165 42.5715V49.9047C166.165 50.0814 166.226 50.2301 166.347 50.3509C166.468 50.4717 166.618 50.5321 166.795 50.5321C166.963 50.5321 167.108 50.4717 167.229 50.3509C167.35 50.2301 167.411 50.0814 167.411 49.9047V42.5715ZM163.589 42.5715C163.589 42.404 163.528 42.2601 163.407 42.1393C163.286 42.0185 163.141 41.9581 162.973 41.9581C162.795 41.9581 162.646 42.0185 162.525 42.1393C162.403 42.2601 162.343 42.404 162.343 42.5715V49.8489C162.343 50.0255 162.403 50.1742 162.525 50.295C162.646 50.4158 162.795 50.4762 162.973 50.4762H164.009C164.233 50.4762 164.445 50.4321 164.646 50.3437C164.846 50.2554 165.022 50.1369 165.171 49.9882C165.32 49.8394 165.439 49.6654 165.528 49.4653C165.617 49.2656 165.661 49.0497 165.661 48.8172V47.1162C165.661 46.8931 165.617 46.6817 165.528 46.482C165.439 46.2823 165.32 46.1079 165.171 45.9592C165.022 45.8104 164.846 45.6919 164.646 45.6036C164.445 45.5153 164.233 45.4711 164.009 45.4711H163.589V42.5715ZM163.589 49.2354V46.6979H164.009C164.121 46.6979 164.217 46.7398 164.296 46.8236C164.375 46.9071 164.415 47.0048 164.415 47.1162V48.8172C164.415 48.938 164.375 49.038 164.296 49.1169C164.217 49.1958 164.121 49.2354 164.009 49.2354H163.589Z"
			fill="#FF2E00" />
		<path fill-rule="evenodd" clip-rule="evenodd"
			d="M0.0162346 14.8342L49.7 2.00098V2H49.7003H49.7007V2.00098L83.0189 10.6224V15.6938L49.7003 7.08992L0 19.927L0.0162346 14.8342Z"
			fill="#120B8D" />
		<path fill-rule="evenodd" clip-rule="evenodd"
			d="M49.7027 16.4607L6.82422 27.5358V22.4468L49.7187 11.3672L49.7027 16.4607Z"
			fill="#120B8D" />
		<path fill-rule="evenodd" clip-rule="evenodd"
			d="M49.7167 25.7196L14.3301 34.8596V29.7707L49.7167 20.6304V25.7196Z" fill="#120B8D" />
		<path fill-rule="evenodd" clip-rule="evenodd"
			d="M49.7182 35.3677L20.9102 42.8091V37.7198L49.7182 30.2788V35.3677Z" fill="#120B8D" />
	</symbol>

	<!-- Logo-f  -->
	<symbol id="logo-f" viewBox="0 0 155 49">
		<path
			d="M53.745 23.2341V17.034C51.0273 17.034 51.0273 17.034 51.0273 17.4675V32.209C53.745 32.209 53.745 32.209 53.745 31.7754V25.0983C54.007 25.2069 54.2456 25.3586 54.4603 25.5754C55.8191 26.963 56.0334 29.5423 56.0334 32.1871C56.7007 32.2306 57.3443 32.2521 57.9405 32.2521C58.8941 32.2521 59.0608 32.1439 59.0608 31.7535C59.0608 27.9167 58.2265 24.9901 56.4864 23.5162L59.2038 17.6195C59.3947 17.186 59.0134 17.0124 58.0596 17.0124C57.6069 17.0124 56.987 17.0559 56.3431 17.186L53.745 23.2341ZM62.3984 17.034L63.3996 20.9581C63.7332 23.0823 64.1625 25.0117 64.3535 26.4425C64.3769 25.0333 64.6871 23.0823 65.0684 20.9581L65.6407 17.8363C65.7597 17.2942 65.9026 17.034 66.5226 17.034C67.1662 17.034 67.7861 17.034 68.4297 17.034C68.4297 17.2942 66.1173 27.7866 65.8553 28.8489C65.402 30.9515 65.0921 32.3391 63.2326 32.3172C62.184 32.3391 61.2065 31.9919 61.1112 31.5152C60.9922 30.9515 61.3498 30.193 61.5641 29.781C61.9454 29.9759 62.494 30.1711 62.732 30.1711C63.1136 30.1711 63.2806 29.6725 63.3522 29.1523C62.637 27.6133 60.6582 20.8061 59.991 18.313C59.8477 17.8144 59.7763 17.5545 59.7763 17.3812C59.7763 17.0991 60.0146 17.034 60.4916 17.034H62.3984ZM69.7406 17.034C69.3356 17.034 69.2639 17.1641 69.2639 17.4675V32.209C71.91 32.209 71.934 32.209 71.934 31.7754V26.3558H72.1006C74.3177 26.3558 76.6301 25.4237 76.6301 21.4999C76.6301 17.9445 74.9853 17.034 71.9816 17.034H69.7406ZM71.934 24.1227V19.137H72.5776C73.3165 19.137 73.6264 19.8089 73.6264 21.1964C73.6264 23.6244 73.1498 24.1227 72.4106 24.1227H71.934ZM82.1135 16.709C79.9677 16.709 77.3453 18.0096 77.3453 25.1202C77.3453 31.1902 78.6326 32.534 81.3266 32.534C83.1381 32.534 84.2349 31.9487 84.2349 30.9299C84.2349 30.4097 84.0679 29.8677 83.8773 29.4992C83.4243 29.7159 82.757 29.8245 82.0178 29.8245C80.683 29.8245 80.1583 28.6971 80.1583 24.9251C80.1583 20.1989 81.3982 19.0719 82.757 19.0719C83.2813 19.0719 83.7103 19.2452 83.9963 19.4404C84.1872 19.0719 84.3779 18.5733 84.3779 17.9877C84.3779 17.3374 84.1393 16.709 82.1135 16.709ZM88.0015 23.2341V17.034C85.2841 17.034 85.2841 17.034 85.2841 17.4675V32.209C88.0015 32.209 88.0015 32.209 88.0015 31.7754V25.0983C88.2638 25.2069 88.5021 25.3586 88.7167 25.5754C90.0755 26.963 90.2902 29.5423 90.2902 32.1871C90.9575 32.2306 91.6011 32.2521 92.197 32.2521C93.1509 32.2521 93.3175 32.1439 93.3175 31.7535C93.3175 27.9167 92.4833 24.9901 90.7428 23.5162L93.4605 17.6195C93.6515 17.186 93.2699 17.0124 92.3163 17.0124C91.8633 17.0124 91.2434 17.0559 90.5998 17.186L88.0015 23.2341ZM99.6828 26.399C100.04 25.6623 100.803 22.8008 101.089 21.6735C100.922 22.9741 100.755 25.6836 100.755 26.6377V32.209C103.473 32.209 103.425 32.209 103.425 31.7754V17.034C100.851 17.034 100.827 17.034 100.564 17.6195L98.276 22.909C98.0613 23.4511 97.394 25.8356 96.9888 27.1794C97.1081 25.8356 97.2747 23.6244 97.2747 22.7357V17.034C94.5571 17.034 94.605 17.034 94.605 17.4675V32.209C97.2031 32.209 97.1558 32.209 97.4177 31.6237L99.6828 26.399ZM107.693 12.1133C106.691 12.4818 106.405 12.8718 106.405 13.479C106.405 14.693 107.979 15.9067 109.48 15.9067C111.244 15.9067 112.317 14.9313 112.913 13.4571C112.746 12.677 111.673 11.7445 111.173 12.4383C110.839 12.9588 110.434 13.6091 109.504 13.6091C108.574 13.6091 107.955 12.7201 107.693 12.1133ZM109.981 26.399C110.339 25.6623 111.101 22.8008 111.387 21.6735C111.22 22.9741 111.054 25.6836 111.054 26.6377V32.209C113.771 32.209 113.724 32.209 113.724 31.7754V17.034C111.149 17.034 111.125 17.034 110.863 17.6195L108.574 22.909C108.36 23.4511 107.693 25.8356 107.287 27.1794C107.406 25.8356 107.573 23.6244 107.573 22.7357V17.034C104.856 17.034 104.903 17.034 104.903 17.4675V32.209C107.502 32.209 107.454 32.209 107.716 31.6237L109.981 26.399ZM127.168 17.034V29.9327H128.17V33.6226C128.17 34.3152 127.622 34.3161 126.31 34.3161C126.024 33.4275 125.691 33.5963 125.524 32.209H120.541C120.374 33.6178 120.231 33.1237 119.969 33.7309C119.731 34.273 119.206 34.3161 117.919 34.3161V30.3663C117.919 29.9108 118.181 29.9546 118.968 29.9327C120.088 27.9383 120.398 24.2963 120.636 17.4675C120.636 17.034 120.589 17.034 123.307 17.034H127.168ZM124.546 29.9327V19.3103H123.211C122.997 24.1446 122.639 27.3746 121.638 29.9327H124.546ZM129.242 32.209H132.365C135.583 32.209 136.823 29.9108 136.823 27.0493C136.823 24.5131 135.25 24.0145 134.082 23.9063C135.131 23.7761 136.275 22.6488 136.275 20.4376C136.275 17.6195 134.249 17.034 132.246 17.034H129.91C129.385 17.034 129.242 17.186 129.242 17.4675V32.209ZM131.96 19.1585H132.508C132.937 19.1585 133.319 19.4404 133.319 20.9581C133.319 22.1937 132.985 23.0173 132.413 23.0173H131.96V19.1585ZM131.96 25.0552H132.485C133.223 25.0552 133.629 25.3151 133.629 27.2664C133.629 29.044 133.176 30.106 132.437 30.106H131.96V25.0552ZM137.539 24.5347C137.539 30.9515 138.707 32.4039 141.829 32.4039C144.952 32.4039 146.335 30.5399 146.335 24.448C146.335 18.4647 145.191 16.8391 142.092 16.8391C139.017 16.8391 137.539 18.6383 137.539 24.5347ZM140.59 25.0768C140.59 20.828 140.899 19.3321 141.996 19.3321C143.284 19.3321 143.403 20.7629 143.403 24.5347C143.403 28.3718 143.141 29.8895 141.972 29.8895C140.757 29.8895 140.59 28.4588 140.59 25.0768ZM148.004 17.034C147.598 17.034 147.527 17.1641 147.527 17.4675V32.209C150.173 32.209 150.197 32.209 150.197 31.7754V26.3558H150.364C152.581 26.3558 154.893 25.4237 154.893 21.4999C154.893 17.9445 153.248 17.034 150.245 17.034H148.004ZM150.197 24.1227V19.137H150.841C151.58 19.137 151.89 19.8089 151.89 21.1964C151.89 23.6244 151.413 24.1227 150.674 24.1227H150.197Z"
			fill="white" />
		<path
			d="M51.1406 45.1496C51.1406 45.364 51.1817 45.5637 51.2635 45.7481C51.3457 45.9325 51.4554 46.0935 51.593 46.2308C51.7309 46.3681 51.8927 46.4776 52.0777 46.5591C52.2632 46.6407 52.4593 46.6814 52.6662 46.6814C52.8814 46.6814 53.0819 46.6407 53.2672 46.5591C53.4524 46.4776 53.614 46.3681 53.7519 46.2308C53.8898 46.0935 53.9998 45.9325 54.0816 45.7481C54.1635 45.5637 54.2045 45.364 54.2045 45.1496V40.2325C54.2045 40.0266 54.1635 39.8314 54.0816 39.6467C53.9998 39.4623 53.8898 39.3013 53.7519 39.164C53.614 39.0266 53.4524 38.9172 53.2672 38.836C53.0819 38.7544 52.8814 38.7136 52.6662 38.7136C52.4593 38.7136 52.2632 38.7544 52.0777 38.836C51.8927 38.9172 51.7309 39.0266 51.593 39.164C51.4554 39.3013 51.3457 39.4623 51.2635 39.6467C51.1817 39.8314 51.1406 40.0266 51.1406 40.2325V45.1496ZM52.2911 40.2325C52.2911 40.1294 52.3277 40.0415 52.4011 39.9687C52.4743 39.8955 52.5627 39.8592 52.6662 39.8592C52.7783 39.8592 52.8709 39.8955 52.944 39.9687C53.0172 40.0415 53.054 40.1294 53.054 40.2325V45.1496C53.054 45.2525 53.0172 45.3427 52.944 45.4198C52.8709 45.4971 52.7783 45.5358 52.6662 45.5358C52.5627 45.5358 52.4743 45.4971 52.4011 45.4198C52.3277 45.3427 52.2911 45.2525 52.2911 45.1496V40.2325ZM56.195 38.7778C56.04 38.7778 55.9063 38.8336 55.7942 38.9451C55.6824 39.0569 55.6264 39.1939 55.6264 39.357C55.6264 39.5115 55.6824 39.6446 55.7942 39.7561C55.9063 39.8676 56.04 39.9234 56.195 39.9234H56.9579V46.0764C56.9579 46.2395 57.0137 46.3768 57.1258 46.4884C57.2379 46.5999 57.3758 46.6557 57.5394 46.6557C57.6944 46.6557 57.8281 46.5999 57.9402 46.4884C58.0523 46.3768 58.1084 46.2395 58.1084 46.0764V39.9234H58.8839C59.0389 39.9234 59.1726 39.8676 59.2847 39.7561C59.3968 39.6446 59.4526 39.5115 59.4526 39.357C59.4526 39.1939 59.3968 39.0569 59.2847 38.9451C59.1726 38.8336 59.0389 38.7778 58.8839 38.7778H56.195ZM61.2883 45.4585C61.1328 45.4585 60.9994 45.5142 60.8876 45.6258C60.7754 45.7373 60.7194 45.8704 60.7194 46.0248V47.7497C60.7194 47.9041 60.7754 48.0372 60.8876 48.1488C60.9994 48.2603 61.1328 48.3161 61.2883 48.3161C61.4517 48.3161 61.5896 48.2603 61.7017 48.1488C61.8138 48.0372 61.8699 47.9041 61.8699 47.7497V46.6041H63.9512V47.7497C63.9512 47.9041 64.0072 48.0372 64.119 48.1488C64.2311 48.2603 64.3645 48.3161 64.5198 48.3161C64.6835 48.3161 64.8214 48.2603 64.9335 48.1488C65.0456 48.0372 65.1017 47.9041 65.1017 47.7497V46.0248C65.1017 45.8704 65.0456 45.7373 64.9335 45.6258C64.8214 45.5142 64.6835 45.4585 64.5198 45.4585V39.357C64.5198 39.1939 64.4641 39.0569 64.3519 38.9451C64.2395 38.8336 64.1062 38.7778 63.9512 38.7778H62.5033C62.3567 38.7778 62.2299 38.8252 62.122 38.9196C62.0141 39.0138 61.9514 39.134 61.9343 39.28L61.2883 45.4585ZM62.9946 39.8847H63.3693V45.4585H62.4517L62.9946 39.8847ZM69.7939 40.2325C69.7939 40.0266 69.7531 39.8314 69.6713 39.6467C69.5892 39.4623 69.4795 39.3013 69.3416 39.164C69.2037 39.0266 69.0418 38.9172 68.8568 38.836C68.6716 38.7544 68.471 38.7136 68.2558 38.7136C68.049 38.7136 67.8529 38.7544 67.6674 38.836C67.4821 38.9172 67.3205 39.0266 67.1827 39.164C67.0451 39.3013 66.935 39.4623 66.8532 39.6467C66.7714 39.8314 66.7303 40.0266 66.7303 40.2325V45.1496C66.7303 45.364 66.7714 45.5637 66.8532 45.7481C66.935 45.9325 67.0451 46.0935 67.1827 46.2308C67.3205 46.3681 67.4821 46.4776 67.6674 46.5591C67.8529 46.6407 68.049 46.6814 68.2558 46.6814C68.471 46.6814 68.6716 46.6407 68.8568 46.5591C69.0418 46.4776 69.2037 46.3681 69.3416 46.2308C69.4795 46.0935 69.5892 45.9325 69.6713 45.7481C69.7531 45.5637 69.7939 45.364 69.7939 45.1496V44.5059C69.7939 44.3428 69.7382 44.2055 69.626 44.094C69.5139 43.9824 69.376 43.9267 69.2124 43.9267C69.0574 43.9267 68.9237 43.9824 68.8116 44.094C68.6995 44.2055 68.6434 44.3428 68.6434 44.5059V45.1496C68.6434 45.2525 68.6068 45.3427 68.5337 45.4198C68.4605 45.4971 68.3676 45.5358 68.2558 45.5358C68.1521 45.5358 68.064 45.4971 67.9908 45.4198C67.9174 45.3427 67.8808 45.2525 67.8808 45.1496V43.1156H69.2124C69.376 43.1156 69.5139 43.0623 69.626 42.9549C69.7382 42.8476 69.7939 42.7124 69.7939 42.5493V40.2325ZM67.8808 41.9829V40.2325C67.8808 40.1294 67.9174 40.0415 67.9908 39.9687C68.064 39.8955 68.1521 39.8592 68.2558 39.8592C68.3676 39.8592 68.4605 39.8955 68.5337 39.9687C68.6068 40.0415 68.6434 40.1294 68.6434 40.2325V41.9829H67.8808ZM73.1549 38.752H74.1115C74.2667 38.752 74.4004 38.8081 74.5122 38.9196C74.6244 39.0311 74.6804 39.1685 74.6804 39.3313V46.0506C74.6804 46.205 74.6244 46.3381 74.5122 46.4497C74.4004 46.5612 74.2667 46.617 74.1115 46.617C73.9478 46.617 73.8099 46.5612 73.6978 46.4497C73.586 46.3381 73.5299 46.205 73.5299 46.0506V39.8976H73.1549C73.0428 39.8976 72.9502 39.9342 72.877 40.0071C72.8036 40.0802 72.767 40.1723 72.767 40.2838V46.0506C72.767 46.205 72.7112 46.3381 72.5991 46.4497C72.487 46.5612 72.3533 46.617 72.1983 46.617C72.0347 46.617 71.8968 46.5612 71.7847 46.4497C71.6725 46.3381 71.6165 46.205 71.6165 46.0506V40.2838C71.6165 40.0694 71.6576 39.8697 71.7394 39.6854C71.8212 39.501 71.9313 39.34 72.0691 39.2026C72.2067 39.0653 72.3686 38.9559 72.5536 38.8743C72.7391 38.7928 72.9394 38.752 73.1549 38.752ZM76.5288 45.1496C76.5288 45.364 76.5698 45.5637 76.6517 45.7481C76.7335 45.9325 76.8435 46.0935 76.9811 46.2308C77.119 46.3681 77.2806 46.4776 77.4659 46.5591C77.6514 46.6407 77.8475 46.6814 78.0543 46.6814C78.2695 46.6814 78.4701 46.6407 78.6553 46.5591C78.8403 46.4776 79.0021 46.3681 79.14 46.2308C79.2779 46.0935 79.3876 45.9325 79.4698 45.7481C79.5516 45.5637 79.5924 45.364 79.5924 45.1496V40.2325C79.5924 40.0266 79.5516 39.8314 79.4698 39.6467C79.3876 39.4623 79.2779 39.3013 79.14 39.164C79.0021 39.0266 78.8403 38.9172 78.6553 38.836C78.4701 38.7544 78.2695 38.7136 78.0543 38.7136C77.8475 38.7136 77.6514 38.7544 77.4659 38.836C77.2806 38.9172 77.119 39.0266 76.9811 39.164C76.8435 39.3013 76.7335 39.4623 76.6517 39.6467C76.5698 39.8314 76.5288 40.0266 76.5288 40.2325V45.1496ZM77.6793 40.2325C77.6793 40.1294 77.7159 40.0415 77.7893 39.9687C77.8624 39.8955 77.9506 39.8592 78.0543 39.8592C78.1661 39.8592 78.259 39.8955 78.3322 39.9687C78.4053 40.0415 78.4419 40.1294 78.4419 40.2325V45.1496C78.4419 45.2525 78.4053 45.3427 78.3322 45.4198C78.259 45.4971 78.1661 45.5358 78.0543 45.5358C77.9506 45.5358 77.8624 45.4971 77.7893 45.4198C77.7159 45.3427 77.6793 45.2525 77.6793 45.1496V40.2325ZM83.3413 41.9829H82.9534C82.85 41.9829 82.7615 41.9445 82.6884 41.8672C82.6149 41.7898 82.5787 41.6999 82.5787 41.5967V39.3058C82.5787 39.1511 82.5226 39.0182 82.4105 38.9067C82.2984 38.7952 82.1605 38.7394 81.9968 38.7394C81.8418 38.7394 81.7081 38.7952 81.596 38.9067C81.4839 39.0182 81.4282 39.1511 81.4282 39.3058V41.5967C81.4282 41.8027 81.4689 41.9979 81.5508 42.1826C81.6329 42.367 81.7426 42.528 81.8802 42.6653C82.0181 42.8026 82.18 42.9121 82.3649 42.9936C82.5505 43.0749 82.7465 43.1156 82.9534 43.1156H83.3413V46.0764C83.3413 46.2395 83.3973 46.3768 83.5091 46.4884C83.6213 46.5999 83.755 46.6557 83.9099 46.6557C84.0739 46.6557 84.2118 46.5999 84.3236 46.4884C84.4357 46.3768 84.4918 46.2395 84.4918 46.0764V39.3058C84.4918 39.1511 84.4357 39.0182 84.3236 38.9067C84.2118 38.7952 84.0739 38.7394 83.9099 38.7394C83.755 38.7394 83.6213 38.7952 83.5091 38.9067C83.3973 39.0182 83.3413 39.1511 83.3413 39.3058V41.9829ZM89.3909 39.3058C89.3909 39.1511 89.3351 39.0182 89.223 38.9067C89.1109 38.7952 88.973 38.7394 88.8093 38.7394C88.6541 38.7394 88.5204 38.7952 88.4085 38.9067C88.2964 39.0182 88.2404 39.1511 88.2404 39.3058V41.9829H87.4778V39.3058C87.4778 39.1511 87.4217 39.0182 87.3099 38.9067C87.1978 38.7952 87.0599 38.7394 86.8959 38.7394C86.7409 38.7394 86.6072 38.7952 86.4951 38.9067C86.3833 39.0182 86.3272 39.1511 86.3272 39.3058V46.0764C86.3272 46.2395 86.3833 46.3768 86.4951 46.4884C86.6072 46.5999 86.7409 46.6557 86.8959 46.6557C87.0599 46.6557 87.1978 46.5999 87.3099 46.4884C87.4217 46.3768 87.4778 46.2395 87.4778 46.0764V43.1156H88.2404V46.0764C88.2404 46.2395 88.2964 46.3768 88.4085 46.4884C88.5204 46.5999 88.6541 46.6557 88.8093 46.6557C88.973 46.6557 89.1109 46.5999 89.223 46.4884C89.3351 46.3768 89.3909 46.2395 89.3909 46.0764V39.3058ZM95.906 39.3058C95.906 39.1511 95.85 39.0182 95.7378 38.9067C95.626 38.7952 95.4923 38.7394 95.337 38.7394C95.1734 38.7394 95.0355 38.7952 94.9234 38.9067C94.8116 39.0182 94.7555 39.1511 94.7555 39.3058V46.0764C94.7555 46.2395 94.8116 46.3768 94.9234 46.4884C95.0355 46.5999 95.1734 46.6557 95.337 46.6557C95.4923 46.6557 95.626 46.5999 95.7378 46.4884C95.85 46.3768 95.906 46.2395 95.906 46.0764V39.3058ZM92.3771 39.3058C92.3771 39.1511 92.3211 39.0182 92.209 38.9067C92.0969 38.7952 91.9632 38.7394 91.8082 38.7394C91.6445 38.7394 91.5066 38.7952 91.3945 38.9067C91.2824 39.0182 91.2264 39.1511 91.2264 39.3058V46.0248C91.2264 46.1879 91.2824 46.3252 91.3945 46.4368C91.5066 46.5483 91.6445 46.6041 91.8082 46.6041H92.7647C92.9716 46.6041 93.1676 46.5633 93.3529 46.4818C93.5381 46.4002 93.6997 46.2908 93.8376 46.1535C93.9755 46.0161 94.0855 45.8554 94.1673 45.6707C94.2492 45.4863 94.2903 45.287 94.2903 45.0723V43.5018C94.2903 43.2958 94.2492 43.1006 94.1673 42.9163C94.0855 42.7319 93.9755 42.5709 93.8376 42.4335C93.6997 42.2962 93.5381 42.1868 93.3529 42.1052C93.1676 42.0237 92.9716 41.9829 92.7647 41.9829H92.3771V39.3058ZM92.3771 45.4585V43.1156H92.7647C92.8682 43.1156 92.9566 43.1543 93.0298 43.2317C93.1029 43.3087 93.1398 43.399 93.1398 43.5018V45.0723C93.1398 45.1838 93.1029 45.2762 93.0298 45.349C92.9566 45.4219 92.8682 45.4585 92.7647 45.4585H92.3771ZM100.805 40.2325C100.805 40.0266 100.764 39.8314 100.682 39.6467C100.6 39.4623 100.491 39.3013 100.352 39.164C100.215 39.0266 100.053 38.9172 99.8677 38.836C99.6828 38.7544 99.4822 38.7136 99.2667 38.7136C99.0598 38.7136 98.8638 38.7544 98.6785 38.836C98.4933 38.9172 98.3317 39.0266 98.1938 39.164C98.0562 39.3013 97.9462 39.4623 97.8644 39.6467C97.7822 39.8314 97.7415 40.0266 97.7415 40.2325V45.1496C97.7415 45.364 97.7822 45.5637 97.8644 45.7481C97.9462 45.9325 98.0562 46.0935 98.1938 46.2308C98.3317 46.3681 98.4933 46.4776 98.6785 46.5591C98.8638 46.6407 99.0598 46.6814 99.2667 46.6814C99.4822 46.6814 99.6828 46.6407 99.8677 46.5591C100.053 46.4776 100.215 46.3681 100.352 46.2308C100.491 46.0935 100.6 45.9325 100.682 45.7481C100.764 45.5637 100.805 45.364 100.805 45.1496V44.5059C100.805 44.3428 100.749 44.2055 100.637 44.094C100.525 43.9824 100.387 43.9267 100.224 43.9267C100.068 43.9267 99.9346 43.9824 99.8228 44.094C99.7106 44.2055 99.6546 44.3428 99.6546 44.5059V45.1496C99.6546 45.2525 99.618 45.3427 99.5449 45.4198C99.4714 45.4971 99.3788 45.5358 99.2667 45.5358C99.1633 45.5358 99.0751 45.4971 99.002 45.4198C98.9282 45.3427 98.892 45.2525 98.892 45.1496V43.1156H100.224C100.387 43.1156 100.525 43.0623 100.637 42.9549C100.749 42.8476 100.805 42.7124 100.805 42.5493V40.2325ZM98.892 41.9829V40.2325C98.892 40.1294 98.9282 40.0415 99.002 39.9687C99.0751 39.8955 99.1633 39.8592 99.2667 39.8592C99.3788 39.8592 99.4714 39.8955 99.5449 39.9687C99.618 40.0415 99.6546 40.1294 99.6546 40.2325V41.9829H98.892ZM111.301 42.3178L110.229 39.1256C110.186 39.0054 110.115 38.9109 110.015 38.8422C109.916 38.7736 109.802 38.7394 109.673 38.7394C109.518 38.7394 109.384 38.7952 109.272 38.9067C109.16 39.0182 109.104 39.1511 109.104 39.3058V46.0764C109.104 46.2395 109.16 46.3768 109.272 46.4884C109.384 46.5999 109.518 46.6557 109.673 46.6557C109.837 46.6557 109.975 46.5999 110.086 46.4884C110.199 46.3768 110.255 46.2395 110.255 46.0764V42.382L110.216 41.4423L110.332 41.8672L111.301 44.9694L112.284 41.8672L112.4 41.4423L112.362 42.382V46.0764C112.362 46.2395 112.418 46.3768 112.53 46.4884C112.642 46.5999 112.775 46.6557 112.931 46.6557C113.094 46.6557 113.232 46.5999 113.344 46.4884C113.456 46.3768 113.512 46.2395 113.512 46.0764V39.3058C113.512 39.1511 113.456 39.0182 113.344 38.9067C113.232 38.7952 113.094 38.7394 112.931 38.7394C112.81 38.7394 112.7 38.7736 112.601 38.8422C112.502 38.9109 112.431 39.0054 112.388 39.1256C112.379 39.1427 112.34 39.2542 112.271 39.4602C112.202 39.6662 112.114 39.93 112.006 40.2517C111.898 40.5734 111.793 40.8867 111.689 41.1914C111.586 41.496 111.495 41.7598 111.418 41.9829C111.34 42.2063 111.301 42.3178 111.301 42.3178ZM115.347 45.1496C115.347 45.364 115.369 45.5637 115.412 45.7481C115.455 45.9325 115.524 46.0935 115.619 46.2308C115.714 46.3681 115.835 46.4776 115.981 46.5591C116.127 46.6407 116.299 46.6814 116.498 46.6814C116.722 46.6814 116.89 46.6191 117.002 46.4947C117.114 46.3702 117.185 46.2545 117.215 46.1472C117.245 46.0398 117.261 45.9778 117.261 45.9604V46.0764C117.261 46.2395 117.317 46.3768 117.429 46.4884C117.541 46.5999 117.674 46.6557 117.829 46.6557C117.993 46.6557 118.131 46.5999 118.243 46.4884C118.355 46.3768 118.411 46.2395 118.411 46.0764V40.2325C118.411 40.0266 118.37 39.8314 118.288 39.6467C118.207 39.4623 118.097 39.3013 117.959 39.164C117.821 39.0266 117.659 38.9172 117.474 38.836C117.289 38.7544 117.088 38.7136 116.873 38.7136C116.666 38.7136 116.47 38.7544 116.284 38.836C116.099 38.9172 115.938 39.0266 115.8 39.164C115.662 39.3013 115.552 39.4623 115.47 39.6467C115.388 39.8314 115.347 40.0266 115.347 40.2325V40.876C115.347 41.0391 115.403 41.1764 115.516 41.2879C115.627 41.3994 115.761 41.4552 115.916 41.4552C116.08 41.4552 116.218 41.3994 116.33 41.2879C116.442 41.1764 116.498 41.0391 116.498 40.876V40.2325C116.498 40.1294 116.534 40.0415 116.608 39.9687C116.681 39.8955 116.769 39.8592 116.873 39.8592C116.985 39.8592 117.078 39.8955 117.151 39.9687C117.224 40.0415 117.261 40.1294 117.261 40.2325V41.9187H116.873C116.666 41.9187 116.47 41.9595 116.284 42.0411C116.099 42.1226 115.938 42.2318 115.8 42.3691C115.662 42.5064 115.552 42.6674 115.47 42.8518C115.388 43.0365 115.347 43.2359 115.347 43.4505V45.1496ZM117.261 45.1496C117.261 45.2525 117.224 45.3427 117.151 45.4198C117.078 45.4971 116.985 45.5358 116.873 45.5358C116.769 45.5358 116.681 45.4971 116.608 45.4198C116.534 45.3427 116.498 45.2525 116.498 45.1496V43.4505C116.498 43.339 116.534 43.2467 116.608 43.1738C116.681 43.1006 116.769 43.0644 116.873 43.0644H117.261V45.1496ZM120.402 38.7778C120.247 38.7778 120.113 38.8336 120.001 38.9451C119.889 39.0569 119.833 39.1939 119.833 39.357C119.833 39.5115 119.889 39.6446 120.001 39.7561C120.113 39.8676 120.247 39.9234 120.402 39.9234H121.164V46.0764C121.164 46.2395 121.22 46.3768 121.333 46.4884C121.445 46.5999 121.583 46.6557 121.746 46.6557C121.901 46.6557 122.035 46.5999 122.147 46.4884C122.259 46.3768 122.315 46.2395 122.315 46.0764V39.9234H123.091C123.246 39.9234 123.379 39.8676 123.491 39.7561C123.603 39.6446 123.659 39.5115 123.659 39.357C123.659 39.1939 123.603 39.0569 123.491 38.9451C123.379 38.8336 123.246 38.7778 123.091 38.7778H120.402ZM128.145 40.2325C128.145 40.0266 128.104 39.8314 128.022 39.6467C127.94 39.4623 127.83 39.3013 127.692 39.164C127.554 39.0266 127.393 38.9172 127.208 38.836C127.022 38.7544 126.822 38.7136 126.607 38.7136C126.4 38.7136 126.204 38.7544 126.018 38.836C125.833 38.9172 125.671 39.0266 125.533 39.164C125.396 39.3013 125.286 39.4623 125.204 39.6467C125.122 39.8314 125.081 40.0266 125.081 40.2325V45.1496C125.081 45.364 125.122 45.5637 125.204 45.7481C125.286 45.9325 125.396 46.0935 125.533 46.2308C125.671 46.3681 125.833 46.4776 126.018 46.5591C126.204 46.6407 126.4 46.6814 126.607 46.6814C126.822 46.6814 127.022 46.6407 127.208 46.5591C127.393 46.4776 127.554 46.3681 127.692 46.2308C127.83 46.0935 127.94 45.9325 128.022 45.7481C128.104 45.5637 128.145 45.364 128.145 45.1496V44.5059C128.145 44.3428 128.089 44.2055 127.977 44.094C127.865 43.9824 127.727 43.9267 127.563 43.9267C127.408 43.9267 127.274 43.9824 127.162 44.094C127.05 44.2055 126.995 44.3428 126.995 44.5059V45.1496C126.995 45.2525 126.958 45.3427 126.884 45.4198C126.811 45.4971 126.719 45.5358 126.607 45.5358C126.503 45.5358 126.415 45.4971 126.342 45.4198C126.268 45.3427 126.232 45.2525 126.232 45.1496V43.1156H127.563C127.727 43.1156 127.865 43.0623 127.977 42.9549C128.089 42.8476 128.145 42.7124 128.145 42.5493V40.2325ZM126.232 41.9829V40.2325C126.232 40.1294 126.268 40.0415 126.342 39.9687C126.415 39.8955 126.503 39.8592 126.607 39.8592C126.719 39.8592 126.811 39.8955 126.884 39.9687C126.958 40.0415 126.995 40.1294 126.995 40.2325V41.9829H126.232ZM129.98 48.3677C129.98 48.5221 130.037 48.6549 130.148 48.7667C130.26 48.8782 130.394 48.934 130.549 48.934C130.713 48.934 130.851 48.8782 130.963 48.7667C131.075 48.6549 131.131 48.5221 131.131 48.3677V45.9604C131.131 45.9778 131.146 46.0398 131.176 46.1472C131.206 46.2545 131.277 46.3702 131.389 46.4947C131.501 46.6191 131.67 46.6814 131.894 46.6814C132.092 46.6814 132.262 46.6407 132.404 46.5591C132.547 46.4776 132.665 46.3681 132.76 46.2308C132.854 46.0935 132.925 45.9325 132.973 45.7481C133.02 45.5637 133.044 45.364 133.044 45.1496V40.2325C133.044 39.8119 132.951 39.4536 132.766 39.1577C132.581 38.8614 132.29 38.7136 131.894 38.7136C131.67 38.7136 131.501 38.7757 131.389 38.9001C131.277 39.0245 131.206 39.1382 131.176 39.2413C131.146 39.3442 131.131 39.4044 131.131 39.4215V39.3058C131.131 39.1511 131.075 39.0182 130.963 38.9067C130.851 38.7952 130.713 38.7394 130.549 38.7394C130.394 38.7394 130.26 38.7952 130.148 38.9067C130.037 39.0182 129.98 39.1511 129.98 39.3058V48.3677ZM131.131 40.2325C131.131 40.1294 131.167 40.0415 131.241 39.9687C131.314 39.8955 131.402 39.8592 131.506 39.8592C131.618 39.8592 131.71 39.8955 131.784 39.9687C131.857 40.0415 131.894 40.1294 131.894 40.2325V45.1496C131.894 45.2525 131.857 45.3427 131.784 45.4198C131.71 45.4971 131.618 45.5358 131.506 45.5358C131.402 45.5358 131.314 45.4971 131.241 45.4198C131.167 45.3427 131.131 45.2525 131.131 45.1496V40.2325ZM136.03 39.3058C136.03 39.1511 135.974 39.0182 135.862 38.9067C135.75 38.7952 135.616 38.7394 135.461 38.7394C135.297 38.7394 135.16 38.7952 135.048 38.9067C134.936 39.0182 134.88 39.1511 134.88 39.3058V46.0764C134.88 46.2395 134.936 46.3768 135.048 46.4884C135.16 46.5999 135.297 46.6557 135.461 46.6557C135.616 46.6557 135.75 46.5999 135.862 46.4884C135.974 46.3768 136.03 46.2395 136.03 46.0764V45.6515L137.271 42.0345L137.426 41.5197V46.0764C137.426 46.2395 137.48 46.3768 137.588 46.4884C137.696 46.5999 137.831 46.6557 137.995 46.6557C138.159 46.6557 138.295 46.5999 138.402 46.4884C138.51 46.3768 138.564 46.2395 138.564 46.0764V39.3058C138.564 39.1511 138.51 39.0182 138.402 38.9067C138.295 38.7952 138.159 38.7394 137.995 38.7394C137.866 38.7394 137.752 38.7757 137.652 38.8485C137.553 38.9217 137.482 39.0182 137.439 39.1382L136.224 42.7552L136.03 43.3345V39.3058ZM140.412 45.1496C140.412 45.364 140.433 45.5637 140.477 45.7481C140.52 45.9325 140.589 46.0935 140.683 46.2308C140.778 46.3681 140.899 46.4776 141.045 46.5591C141.192 46.6407 141.364 46.6814 141.563 46.6814C141.787 46.6814 141.955 46.6191 142.067 46.4947C142.179 46.3702 142.25 46.2545 142.28 46.1472C142.31 46.0398 142.325 45.9778 142.325 45.9604V46.0764C142.325 46.2395 142.381 46.3768 142.493 46.4884C142.605 46.5999 142.739 46.6557 142.894 46.6557C143.058 46.6557 143.196 46.5999 143.308 46.4884C143.42 46.3768 143.476 46.2395 143.476 46.0764V40.2325C143.476 40.0266 143.435 39.8314 143.353 39.6467C143.271 39.4623 143.161 39.3013 143.023 39.164C142.885 39.0266 142.724 38.9172 142.539 38.836C142.353 38.7544 142.153 38.7136 141.938 38.7136C141.731 38.7136 141.535 38.7544 141.349 38.836C141.164 38.9172 141.002 39.0266 140.864 39.164C140.727 39.3013 140.617 39.4623 140.535 39.6467C140.453 39.8314 140.412 40.0266 140.412 40.2325V40.876C140.412 41.0391 140.468 41.1764 140.58 41.2879C140.692 41.3994 140.826 41.4552 140.981 41.4552C141.145 41.4552 141.283 41.3994 141.395 41.2879C141.507 41.1764 141.563 41.0391 141.563 40.876V40.2325C141.563 40.1294 141.599 40.0415 141.673 39.9687C141.746 39.8955 141.834 39.8592 141.938 39.8592C142.049 39.8592 142.142 39.8955 142.215 39.9687C142.289 40.0415 142.325 40.1294 142.325 40.2325V41.9187H141.938C141.731 41.9187 141.535 41.9595 141.349 42.0411C141.164 42.1226 141.002 42.2318 140.864 42.3691C140.727 42.5064 140.617 42.6674 140.535 42.8518C140.453 43.0365 140.412 43.2359 140.412 43.4505V45.1496ZM142.325 45.1496C142.325 45.2525 142.289 45.3427 142.215 45.4198C142.142 45.4971 142.049 45.5358 141.938 45.5358C141.834 45.5358 141.746 45.4971 141.673 45.4198C141.599 45.3427 141.563 45.2525 141.563 45.1496V43.4505C141.563 43.339 141.599 43.2467 141.673 43.1738C141.746 43.1006 141.834 43.0644 141.938 43.0644H142.325V45.1496ZM146.837 38.752H147.793C147.949 38.752 148.082 38.8081 148.194 38.9196C148.306 39.0311 148.362 39.1685 148.362 39.3313V46.0506C148.362 46.205 148.306 46.3381 148.194 46.4497C148.082 46.5612 147.949 46.617 147.793 46.617C147.63 46.617 147.492 46.5612 147.38 46.4497C147.268 46.3381 147.212 46.205 147.212 46.0506V39.8976H146.837C146.725 39.8976 146.632 39.9342 146.559 40.0071C146.485 40.0802 146.449 40.1723 146.449 40.2838V46.0506C146.449 46.205 146.393 46.3381 146.281 46.4497C146.169 46.5612 146.035 46.617 145.88 46.617C145.716 46.617 145.579 46.5612 145.466 46.4497C145.354 46.3381 145.298 46.205 145.298 46.0506V40.2838C145.298 40.0694 145.339 39.8697 145.421 39.6854C145.503 39.501 145.613 39.34 145.751 39.2026C145.889 39.0653 146.05 38.9559 146.235 38.8743C146.421 38.7928 146.621 38.752 146.837 38.752ZM154.89 39.3058C154.89 39.1511 154.834 39.0182 154.722 38.9067C154.61 38.7952 154.476 38.7394 154.321 38.7394C154.157 38.7394 154.019 38.7952 153.908 38.9067C153.795 39.0182 153.739 39.1511 153.739 39.3058V46.0764C153.739 46.2395 153.795 46.3768 153.908 46.4884C154.019 46.5999 154.157 46.6557 154.321 46.6557C154.476 46.6557 154.61 46.5999 154.722 46.4884C154.834 46.3768 154.89 46.2395 154.89 46.0764V39.3058ZM151.361 39.3058C151.361 39.1511 151.305 39.0182 151.193 38.9067C151.081 38.7952 150.947 38.7394 150.792 38.7394C150.628 38.7394 150.491 38.7952 150.379 38.9067C150.267 39.0182 150.211 39.1511 150.211 39.3058V46.0248C150.211 46.1879 150.267 46.3252 150.379 46.4368C150.491 46.5483 150.628 46.6041 150.792 46.6041H151.749C151.956 46.6041 152.152 46.5633 152.337 46.4818C152.522 46.4002 152.684 46.2908 152.822 46.1535C152.96 46.0161 153.069 45.8554 153.152 45.6707C153.233 45.4863 153.274 45.287 153.274 45.0723V43.5018C153.274 43.2958 153.233 43.1006 153.152 42.9163C153.069 42.7319 152.96 42.5709 152.822 42.4335C152.684 42.2962 152.522 42.1868 152.337 42.1052C152.152 42.0237 151.956 41.9829 151.749 41.9829H151.361V39.3058ZM151.361 45.4585V43.1156H151.749C151.852 43.1156 151.941 43.1543 152.014 43.2317C152.087 43.3087 152.124 43.399 152.124 43.5018V45.0723C152.124 45.1838 152.087 45.2762 152.014 45.349C151.941 45.4219 151.852 45.4585 151.749 45.4585H151.361Z"
			fill="white" />
		<path fill-rule="evenodd" clip-rule="evenodd"
			d="M0.34702 13.6963L46.2167 1.84758V1.84668H46.217H46.2173V1.84758L76.9779 9.8076V14.49L46.217 6.54613L0.332031 18.3985L0.34702 13.6963Z"
			fill="white" />
		<path fill-rule="evenodd" clip-rule="evenodd"
			d="M46.2197 15.1978L6.63281 25.4233V20.7248L46.2344 10.4951L46.2197 15.1978Z" fill="white" />
		<path fill-rule="evenodd" clip-rule="evenodd"
			d="M46.2326 23.7464L13.5625 32.1853V27.4867L46.2326 19.0476V23.7464Z" fill="white" />
		<path fill-rule="evenodd" clip-rule="evenodd"
			d="M46.2332 32.6546L19.6367 39.5251V34.8262L46.2332 27.9561V32.6546Z" fill="white" />
	</symbol>

	<!-- Stock  -->
	<symbol id="stock" viewBox="0 0 24 24">
		<path
			d="M12 0L15.4901 3.57422L20.4853 3.51472L20.4258 8.50993L24 12L20.4258 15.4901L20.4853 20.4853L15.4901 20.4258L12 24L8.50993 20.4258L3.51472 20.4853L3.57422 15.4901L0 12L3.57422 8.50993L3.51472 3.51472L8.50993 3.57422L12 0Z"
			fill="#FF2E00" />
		<path
			d="M8.41486 16.8329L14.3452 7.19438H15.5449L9.6282 16.8329H8.41486ZM14.7133 16.9147C14.2771 16.9147 13.909 16.8193 13.6091 16.6284C13.3182 16.4376 13.0955 16.1831 12.941 15.865C12.7865 15.5378 12.7093 15.1743 12.7093 14.7743C12.7093 14.3563 12.7865 13.9882 12.941 13.6701C13.0955 13.352 13.3228 13.102 13.6227 12.9203C13.9226 12.7385 14.2862 12.6476 14.7133 12.6476C15.1314 12.6476 15.4859 12.7385 15.7767 12.9203C16.0675 13.102 16.2902 13.352 16.4447 13.6701C16.5992 13.9882 16.6765 14.3563 16.6765 14.7743C16.6765 15.1743 16.5992 15.5378 16.4447 15.865C16.2902 16.1831 16.0675 16.4376 15.7767 16.6284C15.4859 16.8193 15.1314 16.9147 14.7133 16.9147ZM14.6997 15.9468C14.936 15.9468 15.1223 15.8923 15.2586 15.7832C15.4041 15.6741 15.504 15.5287 15.5586 15.3469C15.6222 15.1652 15.654 14.9743 15.654 14.7743C15.654 14.5744 15.6222 14.3881 15.5586 14.2154C15.504 14.0336 15.4041 13.8882 15.2586 13.7791C15.1223 13.6701 14.936 13.6155 14.6997 13.6155C14.3361 13.6155 14.0771 13.7337 13.9226 13.97C13.7772 14.2063 13.7045 14.4744 13.7045 14.7743C13.7045 15.0925 13.7817 15.3697 13.9362 15.606C14.0908 15.8332 14.3452 15.9468 14.6997 15.9468ZM9.31464 11.3525C8.87839 11.3525 8.51029 11.257 8.21037 11.0662C7.91953 10.8753 7.69686 10.6208 7.54235 10.3027C7.39693 9.97552 7.32422 9.61197 7.32422 9.21207C7.32422 8.79399 7.39693 8.42589 7.54235 8.10779C7.69686 7.78969 7.92407 7.53975 8.224 7.35797C8.52393 7.1762 8.88747 7.08531 9.31464 7.08531C9.74181 7.08531 10.1008 7.1762 10.3917 7.35797C10.6825 7.53975 10.9006 7.78969 11.046 8.10779C11.2005 8.42589 11.2778 8.79399 11.2778 9.21207C11.2778 9.61197 11.2005 9.97552 11.046 10.3027C10.9006 10.6208 10.6825 10.8753 10.3917 11.0662C10.1008 11.257 9.74181 11.3525 9.31464 11.3525ZM9.31464 10.3845C9.55095 10.3845 9.73727 10.33 9.8736 10.2209C10.0099 10.1118 10.1099 9.96643 10.1735 9.78465C10.2371 9.60288 10.269 9.41202 10.269 9.21207C10.269 9.01212 10.2371 8.8258 10.1735 8.65311C10.1099 8.47134 10.0099 8.32592 9.8736 8.21685C9.73727 8.10779 9.55095 8.05326 9.31464 8.05326C8.9511 8.05326 8.69207 8.17141 8.53756 8.40772C8.38305 8.64402 8.3058 8.91214 8.3058 9.21207C8.3058 9.53017 8.38305 9.80738 8.53756 10.0437C8.69207 10.2709 8.9511 10.3845 9.31464 10.3845Z"
			fill="white" />
	</symbol>

	<!-- House -->
	<symbol id="house" viewBox="0 0 24 24">
		<path
			d="M10.8594 18.3096H21.7733V20.0537H10.8594V18.3096ZM20.8738 1.71289H18.6738V3.74078L20.8738 5.40706V1.71289Z"
			fill="#FF2E00" />
		<path
			d="M2.12891 11.5932V23.2207H6.43503V20.0659H9.50316V16.967H12.5713V13.8338H15.6394V10.7177H20.3829L11.9411 4.39648L2.12891 11.5932Z"
			fill="#120B8D" />
		<path
			d="M7.79507 21.4208H21.7631V23.2203H7.79507V21.4208ZM0.353516 8.97811V10.3751H1.49726L11.951 2.70787L22.1903 10.3751H23.54V9.10049L11.944 0.353027L0.353516 8.97811ZM16.9995 12.0726H21.7631V13.8335H16.9995V12.0726ZM13.9313 15.1887H21.7631V16.9666H13.9313V15.1887Z"
			fill="#FF2E00" />
	</symbol>

	<!-- Tile  -->
	<symbol id="tile" viewBox="0 0 24 24">
		<path
			d="M1.41211 1.41162H7.56758V7.54302H1.41211V1.41162ZM1.41211 16.3024H7.56758V22.4338H1.41211V16.3024ZM8.88663 16.3024H15.0421V22.4338H8.88663V16.3024ZM16.3614 16.3024H22.5169V22.4338H16.3614V16.3024ZM1.41211 8.8569H7.56758V14.9883H1.41211V8.8569ZM8.88663 8.8569H15.0421V14.9883H8.88663V8.8569Z"
			fill="#120B8D" />
		<path d="M8.88672 7.54302V1.41162H22.517V14.9883H16.3612V7.54302H8.88672Z" fill="#FF2E00" />
	</symbol>

	<!-- Doors-2  -->
	<symbol id="doors-2" viewBox="0 0 24 24">
		<path
			d="M8.00768 13.5198C8.00768 13.3915 8.04582 13.2661 8.11728 13.1594C8.18874 13.0527 8.2903 12.9696 8.40913 12.9205C8.52796 12.8714 8.65872 12.8585 8.78487 12.8836C8.91102 12.9086 9.0269 12.9704 9.11785 13.0611C9.2088 13.1518 9.27074 13.2674 9.29583 13.3933C9.32092 13.5191 9.30804 13.6495 9.25882 13.7681C9.2096 13.8866 9.12625 13.9879 9.0193 14.0592C8.91236 14.1305 8.78662 14.1685 8.658 14.1685C8.48552 14.1685 8.32011 14.1002 8.19815 13.9785C8.07619 13.8569 8.00768 13.6919 8.00768 13.5198ZM6.70703 2.94727L6.70737 22.3779H17.1122V2.94727H6.70703Z"
			fill="#120B8D" />
		<path
			d="M19.715 22.3785V0.353027H4.1072V22.3785H1.93945V23.6837H21.8827V22.3785H19.715ZM6.70849 22.3785H5.84139V2.08294H17.9808V22.3785H17.1137H6.70849Z"
			fill="#FF2E00" />
	</symbol>

	<!-- Floor-2  -->
	<symbol id="floor-2" viewBox="0 0 24 24">
		<path
			d="M10.8496 23.9082L8.33522 21.3938L12.7354 16.9936L15.2498 19.508L10.8496 23.9082ZM7.7066 20.7652L5.19221 18.2508L15.2498 8.19321L17.7642 10.7076L7.7066 20.7652ZM18.3928 10.079L15.8784 7.56459L19.4863 3.9567L22.0007 6.47109L18.3928 10.079ZM4.56359 17.6222L2.0492 15.1078L7.70659 9.45039L10.221 11.9648L4.56359 17.6222ZM10.8496 11.3362L8.33518 8.8218L16.3433 0.813692L18.8577 3.32808L10.8496 11.3362ZM23.1073 11.6505C23.2809 11.4769 23.2809 11.1955 23.1073 11.0219L21.2215 9.13608C21.0479 8.9625 20.7665 8.9625 20.5929 9.13608L13.364 16.365L15.8784 18.8794L23.1073 11.6505Z"
			fill="#120B8D" />
		<path
			d="M12.7341 3.28734L4.24805 11.7734L1.73363 9.25902L10.2197 0.772918C10.3933 0.599336 10.6748 0.599336 10.8483 0.772918L12.7341 2.65872C12.9077 2.8323 12.9077 3.11375 12.7341 3.28734Z"
			fill="#FF2E00" />
	</symbol>

	<!-- Wall  -->
	<symbol id="wall" viewBox="0 0 24 24">
		<path d="M2.99805 1.05859L8.20813 3.14263V22.9409L2.99805 20.8569V1.05859Z" fill="#120B8D" />
		<path d="M9.49609 1.05859L14.7062 3.14263V22.9409L9.49609 20.8569V1.05859Z" fill="#120B8D" />
		<path d="M15.9941 1.05859L21.2042 3.14263V22.9409L15.9941 20.8569V1.05859Z" fill="#FF2E00" />
	</symbol>

	<!-- Mob-phone  -->
	<symbol id="mob-phone" viewBox="0 0 24 24">
		<path clip-rule="evenodd"
			d="M5.40138 0.583984L11.3963 6.59208L10.6916 7.29841C10.0267 7.9649 9.36099 8.63162 8.69382 9.29736C9.86467 10.8908 11.1286 12.1398 12.7324 13.2984C13.3905 12.6354 14.0495 11.9733 14.7096 11.3121L15.4176 10.603L21.4121 16.612L18.8473 19.183C16.4642 21.5721 12.6938 21.894 9.91801 20.0024C6.83759 17.9033 4.11784 15.1914 2.01013 12.1167C0.110306 9.34528 0.423494 5.57415 2.80706 3.18471L5.40138 0.583984ZM5.40157 3.41571L4.22302 4.59718C2.5295 6.29488 2.29547 8.9957 3.65975 10.9859C5.6269 13.8555 8.16914 16.3904 11.0443 18.3497C13.038 19.7083 15.7384 19.4676 17.4314 17.7705L18.5871 16.612L15.4174 13.4347C14.798 14.0564 14.1794 14.6791 13.5614 15.3025L12.9805 15.8885L12.2949 15.4295C9.91904 13.8391 8.17378 12.1172 6.56313 9.7467L6.09716 9.0609L6.68479 8.47597C7.31436 7.84929 7.94274 7.22113 8.57094 6.59204L5.40157 3.41571Z" />
	</symbol>

	<!-- logo-plastilin -->
	<symbol id="logo-plastilin" viewBox="0 0 99 22">
		<path
			d="M2.13472 10.6356C2.03282 6.45801 8.62188 6.45801 8.55395 10.6016C8.58792 12.6735 6.9916 13.7263 5.36132 13.7263C3.73103 13.7263 2.10075 12.7074 2.13472 10.6356ZM1.62525 6.86558C0.572363 7.91847 0.0629001 9.17514 0.0629001 10.6016V20.0777C0.0289359 21.4362 2.16868 21.4023 2.13472 20.0777V14.8132C5.42925 17.4964 10.7956 14.8811 10.6258 10.6016C10.7616 7.47693 7.9426 5.30322 5.1915 5.30322C3.90086 5.33719 2.61022 5.81269 1.62525 6.86558Z"
			fill="white" fill-opacity="0.3" />
		<path
			d="M12.1531 1.05799V14.7795C12.1191 15.6966 13.3078 16.206 13.9532 15.5267C14.1569 15.323 14.2588 15.0852 14.2588 14.7795V1.05799C14.2588 0.378705 13.7494 0.0390625 13.2059 0.0390625C12.6625 0.0730267 12.1531 0.378705 12.1531 1.05799Z"
			fill="white" fill-opacity="0.3" />
		<path
			d="M24.1432 10.534C24.1772 12.1643 23.1583 13.7945 21.0864 13.7266C18.9127 13.7945 17.8938 12.1643 17.9278 10.534C17.9617 8.93767 19.0146 7.30738 21.0864 7.34135C23.0903 7.30738 24.1432 8.93767 24.1432 10.534ZM17.3164 6.83188C12.6633 11.3831 19.1165 18.6514 24.2111 14.7455C24.2451 16.0701 26.3169 16.1381 26.283 14.7455V10.6019C26.4528 7.44324 23.7017 5.26953 20.9166 5.26953C19.626 5.26953 18.3353 5.74503 17.3164 6.83188Z"
			fill="white" fill-opacity="0.3" />
		<path
			d="M27.5742 8.4282C27.5742 10.0245 28.5931 11.6208 30.665 11.5869C33.0425 11.9265 30.9027 15.1531 29.6121 13.1153C28.0497 10.7717 26.4874 13.7266 28.695 15.1531C31.6839 17.6665 35.6917 13.0813 32.9066 10.4321C32.1254 9.41316 30.8348 9.78677 29.9177 9.17542C28.695 7.98667 31.0386 6.49224 31.6499 7.91874C33.5519 10.8057 35.352 5.50728 30.665 5.26953H30.597C28.5931 5.26953 27.6082 6.83188 27.5742 8.4282Z"
			fill="white" fill-opacity="0.3" />
		<path
			d="M38.3411 0.00173537C36.541 -0.100157 37.5599 4.31519 37.3222 5.26619H36.8467C35.9636 5.23222 34.7409 5.19826 34.7409 6.31908C34.7069 7.4399 35.9636 7.40593 36.8467 7.37197H37.2882V14.8101C37.2543 15.3196 37.7637 15.897 38.3071 15.863C38.8845 15.897 39.394 15.3196 39.36 14.8101V7.3414H40.8545C41.5337 7.3414 41.8734 6.83194 41.8734 6.28851C41.8734 5.74508 41.5337 5.23562 40.8545 5.23562H39.36C39.1563 4.35255 40.1412 0.00173537 38.443 0.00173537H38.3411Z"
			fill="white" fill-opacity="0.3" />
		<path
			d="M43.0282 6.28811C43.1301 6.55982 42.7226 15.7302 43.3339 15.5264C43.9113 16.2057 45.134 15.6962 45.1001 14.7792V6.28811C45.1001 5.60882 44.5906 5.26918 44.0472 5.26918C43.5717 5.26918 43.0282 5.60882 43.0282 6.28811ZM44.1151 1.05762C43.4358 1.05762 43.0962 1.56708 43.0962 2.11051C43.0962 2.65394 43.4358 3.1634 44.1151 3.1634C44.7944 3.19736 45.134 2.65394 45.134 2.11051C45.1001 1.56708 44.7604 1.05762 44.1151 1.05762Z"
			fill="white" fill-opacity="0.3" />
		<path
			d="M46.7644 1.05799V14.7795C46.7304 15.6966 47.9192 16.206 48.5645 15.5267C48.7683 15.323 48.8702 15.0852 48.8702 14.7795V1.05799C48.8702 0.378705 48.3607 0.0390625 47.8173 0.0390625C47.3078 0.0730267 46.7644 0.378705 46.7644 1.05799Z"
			fill="white" fill-opacity="0.3" />
		<path
			d="M50.5 6.2881V14.7792C50.5 15.3565 50.9755 15.832 51.5529 15.832C52.0963 15.832 52.6058 15.3565 52.5718 14.7792V6.2881C52.5718 5.60882 52.0624 5.26918 51.5189 5.26918C51.0095 5.26918 50.5 5.60882 50.5 6.2881ZM51.5529 1.05762C50.8736 1.05762 50.534 1.56708 50.534 2.11051C50.534 2.65393 50.8736 3.1634 51.5529 3.1634C52.2322 3.19736 52.5718 2.65393 52.5718 2.11051C52.5718 1.56708 52.2322 1.05762 51.5529 1.05762Z"
			fill="white" fill-opacity="0.3" />
		<path
			d="M54.1348 14.7798C54.1009 16.1384 56.2746 16.1384 56.2067 14.7798V10.5343C56.1048 6.35666 62.6938 6.39062 62.6259 10.5343V14.7798C62.5919 16.1384 64.7317 16.1384 64.6977 14.7798C64.9355 10.6361 64.9015 5.40566 59.3993 5.23584C53.9311 5.40566 53.8971 10.6022 54.1348 14.7798Z"
			fill="white" fill-opacity="0.3" />
		<path
			d="M14.6336 20.9949H14.26L13.6147 18.8212C13.5807 18.7193 13.5468 18.6174 13.5128 18.4476C13.4788 18.3118 13.4449 18.2099 13.4449 18.1759C13.4109 18.3797 13.343 18.5835 13.275 18.8212L12.6297 20.9949H12.2561L11.373 17.7344H11.7806L12.2901 19.7383C12.358 20.01 12.4259 20.2817 12.4599 20.5194C12.4939 20.2477 12.5618 19.976 12.6297 19.7043L13.2071 17.7344H13.6486L14.26 19.7383C14.3279 19.976 14.3959 20.2138 14.4298 20.5194C14.4638 20.3157 14.4978 20.0439 14.5996 19.7383L15.1091 17.7344H15.5167L14.6336 20.9949Z"
			fill="white" fill-opacity="0.3" />
		<path
			d="M24.3458 20.9949H22.5117V17.7344H24.3458V18.074H22.9193V19.1269H24.2779V19.4666H22.9193V20.6553H24.3458V20.9949Z"
			fill="white" fill-opacity="0.3" />
		<path
			d="M31.584 17.7344H32.501C32.9426 17.7344 33.2482 17.8023 33.452 17.9382C33.6558 18.074 33.7577 18.2778 33.7577 18.5495C33.7577 18.7533 33.6898 18.8892 33.5879 19.025C33.486 19.1609 33.3162 19.2288 33.1124 19.2628V19.2967C33.6218 19.3986 33.8596 19.6364 33.8596 20.0779C33.8596 20.3836 33.7577 20.5874 33.5539 20.7572C33.3501 20.927 33.0784 20.9949 32.7388 20.9949H31.584V17.7344ZM31.9576 19.1269H32.5689C32.8407 19.1269 33.0444 19.0929 33.1463 18.9911C33.2482 18.9231 33.3162 18.7533 33.3162 18.5495C33.3162 18.3797 33.2482 18.2438 33.1124 18.1419C32.9765 18.074 32.7727 18.0061 32.501 18.0061H31.9576V19.1269ZM31.9576 19.4666V20.6893H32.6369C32.9086 20.6893 33.1124 20.6553 33.2482 20.5194C33.3841 20.4175 33.452 20.2477 33.452 20.0439C33.452 19.8402 33.3841 19.7043 33.2482 19.6024C33.1124 19.5005 32.9086 19.4666 32.6369 19.4666H31.9576Z"
			fill="white" fill-opacity="0.3" />
		<path
			d="M50.6023 20.1461C50.6023 20.4178 50.5004 20.6556 50.2966 20.8254C50.0928 20.9952 49.8211 21.0631 49.4475 21.0631C49.0739 21.0631 48.7682 21.0292 48.5645 20.9273V20.5537C48.7003 20.6216 48.8362 20.6556 49.006 20.6895C49.1758 20.7235 49.3117 20.7235 49.4815 20.7235C49.7192 20.7235 49.923 20.6895 50.0589 20.5876C50.1947 20.4857 50.2627 20.3499 50.2627 20.1801C50.2627 20.0782 50.2287 19.9763 50.1947 19.9084C50.1608 19.8404 50.0589 19.7725 49.957 19.7046C49.8551 19.6366 49.6853 19.5687 49.4815 19.5008C49.1758 19.3989 48.972 19.263 48.8362 19.1272C48.7003 18.9913 48.6324 18.7875 48.6324 18.5498C48.6324 18.312 48.7343 18.1083 48.9041 17.9384C49.1079 17.8026 49.3456 17.7007 49.6513 17.7007C49.9909 17.7007 50.2627 17.7686 50.5344 17.8705L50.4325 18.2101C50.1608 18.1083 49.8891 18.0403 49.6513 18.0403C49.4475 18.0403 49.2777 18.0743 49.1758 18.1762C49.0739 18.2781 49.006 18.38 49.006 18.5498C49.006 18.6517 49.04 18.7536 49.0739 18.8215C49.1079 18.8894 49.1758 18.9574 49.2777 19.0253C49.3796 19.0932 49.5154 19.1611 49.7192 19.2291C50.0589 19.3649 50.2966 19.4668 50.4325 19.6366C50.5344 19.7385 50.6023 19.9084 50.6023 20.1461Z"
			fill="white" fill-opacity="0.3" />
		<path
			d="M58.7539 20.9949H58.3803V18.074H57.3613V17.7344H59.8068V18.074H58.7878L58.7539 20.9949Z"
			fill="white" fill-opacity="0.3" />
		<path
			d="M69.2489 17.7346V19.8404C69.2489 20.214 69.147 20.5197 68.9093 20.7235C68.6715 20.9273 68.3659 21.0292 67.9922 21.0292C67.5847 21.0292 67.279 20.9273 67.0752 20.7235C66.8714 20.5197 66.7695 20.214 66.7695 19.8404V17.7346H67.1431V19.8744C67.1431 20.1461 67.2111 20.3499 67.3809 20.4857C67.5167 20.6216 67.7545 20.6895 68.0262 20.6895C68.2979 20.6895 68.5017 20.6216 68.6715 20.4857C68.8074 20.3499 68.9093 20.1461 68.9093 19.8404V17.7007H69.2489V17.7346Z"
			fill="white" fill-opacity="0.3" />
		<path
			d="M79.2344 19.3307C79.2344 19.8741 79.0985 20.2817 78.7929 20.5534C78.4872 20.8251 78.0796 20.9949 77.5362 20.9949H76.6191V17.7344H77.6041C78.1136 17.7344 78.5211 17.8702 78.7929 18.1419C79.0985 18.4476 79.2344 18.8212 79.2344 19.3307ZM78.8268 19.3647C78.8268 18.9231 78.7249 18.6174 78.5211 18.4137C78.3174 18.2099 77.9777 18.074 77.5701 18.074H77.0267V20.6893H77.5022C77.9437 20.6893 78.2834 20.5874 78.5211 20.3496C78.7249 20.1119 78.8268 19.7722 78.8268 19.3647Z"
			fill="white" fill-opacity="0.3" />
		<path d="M86.4668 20.9949V17.7344H86.8404V20.9949H86.4668Z" fill="white" fill-opacity="0.3" />
		<path
			d="M97.0638 19.3652C97.0638 19.8747 96.928 20.2822 96.6563 20.5879C96.3845 20.8936 96.0109 21.0294 95.5694 21.0294C95.0939 21.0294 94.7203 20.8936 94.4486 20.5879C94.1769 20.2822 94.041 19.8747 94.041 19.3312C94.041 18.7878 94.1769 18.3802 94.4486 18.1085C94.7203 17.8029 95.0939 17.667 95.5694 17.667C96.0449 17.667 96.4185 17.8029 96.6563 18.1085C96.9619 18.4142 97.0638 18.8218 97.0638 19.3652ZM94.4825 19.3652C94.4825 19.8067 94.5844 20.1464 94.7543 20.3841C94.958 20.6219 95.2298 20.7238 95.5694 20.7238C95.943 20.7238 96.2147 20.6219 96.3845 20.3841C96.5544 20.1464 96.6563 19.8067 96.6563 19.3652C96.6563 18.9237 96.5544 18.584 96.3845 18.3802C96.2147 18.1765 95.943 18.0406 95.5694 18.0406C95.1958 18.0406 94.9241 18.1425 94.7543 18.3802C94.5844 18.584 94.4825 18.9237 94.4825 19.3652Z"
			fill="white" fill-opacity="0.3" />
		<path
			d="M83.5115 14.7455C83.5794 16.1381 81.4736 16.0701 81.4397 14.7455C76.345 18.6514 69.8918 11.3831 74.5449 6.83186C77.6696 3.46941 83.7492 5.94879 83.5115 10.6019V14.7455ZM78.315 13.7266C82.4246 13.8625 82.3567 7.2734 78.315 7.34132C74.1713 7.2734 74.0355 13.8625 78.315 13.7266Z"
			fill="white" fill-opacity="0.3" />
		<path
			d="M87.0437 14.7797C87.0777 16.1382 84.9379 16.1382 84.9719 14.7797V10.5341C84.2926 7.61322 90.2363 3.02805 91.3232 6.28861C91.3232 6.79807 90.8477 7.37547 90.2703 7.3415C86.3644 7.23961 87.0777 12.2323 87.0437 14.7797Z"
			fill="white" fill-opacity="0.3" />
		<path
			d="M97.9812 5.26994C99.3398 5.23597 99.3398 7.37572 97.9812 7.34176H96.4868V14.7799C96.4868 15.2894 96.0113 15.8668 95.4339 15.8328C94.8905 15.8668 94.381 15.2894 94.415 14.7799V7.34176C93.5659 7.34176 91.8337 7.61347 91.8677 6.28887C91.8337 4.99823 93.5999 5.26994 94.415 5.26994C94.6527 4.31894 93.6338 -0.0964054 95.4339 0.00548726C97.234 -0.13037 96.2491 4.31894 96.4868 5.26994H97.9812Z"
			fill="white" fill-opacity="0.3" />
	</symbol>

	<symbol id="mir" viewBox="0 0 40 40">
		<path fill-rule="evenodd" clip-rule="evenodd"
			d="M3.69893 14.5331C4.05628 14.531 5.11832 14.4353 5.56818 15.9536C5.87121 16.9763 6.35392 18.6516 7.01631 20.9794H7.28607C7.99642 18.5253 8.4844 16.85 8.75 15.9536C9.20454 14.4195 10.3409 14.5331 10.7955 14.5331L14.3024 14.5331V25.4422H10.728V19.0133H10.4883L8.49581 25.4422H5.80657L3.81404 19.0086H3.57435V25.4422H0V14.5331L3.69893 14.5331ZM19.4351 14.5331V20.9668H19.7202L22.144 15.6765C22.6144 14.6237 23.6172 14.5331 23.6172 14.5331H27.0761V25.4422H23.4271V19.0086H23.142L20.7658 24.2989C20.2953 25.347 19.245 25.4422 19.245 25.4422H15.7861V14.5331H19.4351ZM39.6887 19.7172C39.1797 21.1596 37.5812 22.1926 35.8115 22.1926H31.9848V25.4422H28.5148V19.7172H39.6887Z"
			fill="#0F754E" />
		<path fill-rule="evenodd" clip-rule="evenodd"
			d="M35.978 14.5312H28.332C28.514 16.96 30.6056 19.0391 32.7708 19.0391H39.929C40.342 17.0206 38.92 14.5312 35.978 14.5312Z"
			fill="url(#paint0_linear_573_12574)" />
		<defs>
			<linearGradient id="paint0_linear_573_12574" x1="39.9992" y1="17.3669" x2="28.332"
				y2="17.3669" gradientUnits="userSpaceOnUse">
				<stop stop-color="#1F5CD7" />
				<stop offset="1" stop-color="#02AEFF" />
			</linearGradient>
		</defs>
	</symbol>

	<symbol id="visa" viewBox="0 0 41 40">
		<path
			d="M20.1374 13.7438L17.4651 26.2375H14.2327L16.9053 13.7438H20.1374ZM33.7358 21.8111L35.437 17.1195L36.416 21.8111H33.7358ZM37.3433 26.2375H40.332L37.721 13.7438H34.964C34.3427 13.7438 33.8189 14.104 33.5871 14.6596L28.7373 26.2375H32.1318L32.8056 24.3716H36.9518L37.3433 26.2375ZM28.9056 22.1587C28.9196 18.8614 24.3474 18.6788 24.3781 17.2055C24.3879 16.7578 24.815 16.281 25.7485 16.159C26.2113 16.0995 27.4885 16.0511 28.9362 16.7182L29.5024 14.0678C28.7249 13.7865 27.7243 13.5156 26.4791 13.5156C23.2838 13.5156 21.0361 15.2129 21.0181 17.6453C20.9976 19.444 22.6238 20.4469 23.8464 21.046C25.107 21.6583 25.5293 22.0508 25.5232 22.5979C25.5144 23.4362 24.518 23.8074 23.5901 23.8214C21.9642 23.8467 21.0218 23.3819 20.2706 23.0318L19.6839 25.7707C20.4404 26.1169 21.8341 26.4182 23.2774 26.4336C26.6744 26.4336 28.8955 24.7563 28.9056 22.1587ZM15.5189 13.7438L10.2818 26.2375H6.86564L4.28828 16.2666C4.13204 15.6535 3.99576 15.4281 3.52058 15.169C2.74332 14.747 1.46026 14.3522 0.332031 14.1066L0.408465 13.7438H5.90826C6.60881 13.7438 7.2391 14.21 7.39955 15.017L8.76101 22.2472L12.1232 13.7438H15.5189Z"
			fill="#1434CB" />
	</symbol>

	<symbol id="master" viewBox="0 0 41 40">
		<path d="M26.0759 10.2969H15.2598V29.7338H26.0759V10.2969Z" fill="#FF5F00" />
		<path
			d="M15.9469 20.0176C15.9452 18.1456 16.3694 16.2979 17.1874 14.6141C18.0054 12.9304 19.1957 11.4548 20.6682 10.2991C18.8447 8.86575 16.6546 7.97437 14.3485 7.72685C12.0423 7.47932 9.71295 7.88564 7.62676 8.89935C5.54057 9.91307 3.78166 11.4933 2.5511 13.4594C1.32054 15.4255 0.667969 17.6981 0.667969 20.0176C0.667969 22.337 1.32054 24.6097 2.5511 26.5758C3.78166 28.5418 5.54057 30.1221 7.62676 31.1358C9.71295 32.1495 12.0423 32.5558 14.3485 32.3083C16.6546 32.0608 18.8447 31.1694 20.6682 29.736C19.1957 28.5803 18.0054 27.1047 17.1874 25.421C16.3694 23.7372 15.9452 21.8895 15.9469 20.0176Z"
			fill="#EB001B" />
		<path
			d="M40.6676 20.0176C40.6677 22.337 40.0152 24.6096 38.7847 26.5757C37.5542 28.5418 35.7954 30.122 33.7092 31.1357C31.6231 32.1495 29.2938 32.5558 26.9876 32.3083C24.6815 32.0608 22.4915 31.1694 20.668 29.736C22.1392 28.5791 23.3286 27.1033 24.1465 25.4198C24.9643 23.7364 25.3892 21.8892 25.3892 20.0176C25.3892 18.1459 24.9643 16.2988 24.1465 14.6153C23.3286 12.9318 22.1392 11.456 20.668 10.2991C22.4915 8.86575 24.6815 7.97437 26.9876 7.72685C29.2938 7.47932 31.6231 7.88565 33.7092 8.89937C35.7954 9.9131 37.5542 11.4933 38.7847 13.4594C40.0152 15.4255 40.6677 17.6981 40.6676 20.0176Z"
			fill="#F79E1B" />
		<path
			d="M39.4884 27.6751V27.2772H39.6489V27.1961H39.2402V27.2772H39.4008V27.6751H39.4884ZM40.2818 27.6751V27.1953H40.1565L40.0124 27.5253L39.8683 27.1953H39.743V27.6751H39.8315V27.3132L39.9666 27.6252H40.0583L40.1934 27.3124V27.6751H40.2818Z"
			fill="#F79E1B" />
	</symbol>

	<symbol id="jcb" viewBox="0 0 40 40">
		<path
			d="M40 29.206C40 32.6289 37.2127 35.4162 33.7897 35.4162H0V10.8196C0 7.39666 2.78729 4.60938 6.21027 4.60938H40V29.206Z"
			fill="white" />
		<path
			d="M31.2712 6.6875C28.8262 6.6875 26.8213 8.66794 26.8213 11.1374V15.7584H33.1049C33.2516 15.7584 33.4228 15.7584 33.545 15.7829C34.9631 15.8562 36.0145 16.5897 36.0145 17.8611C36.0145 18.8635 35.3054 19.7193 33.9851 19.8904V19.9393C35.4277 20.0371 36.5279 20.844 36.5279 22.0909C36.5279 23.4357 35.3054 24.3159 33.6917 24.3159H26.7969V33.3623H33.325C35.77 33.3623 37.7749 31.3819 37.7749 28.9124V6.6875H31.2712Z"
			fill="url(#paint0_linear_573_12573)" />
		<path
			d="M28.9974 22.8977H31.5646C31.6013 22.8977 31.6624 22.8916 31.7235 22.8855C31.7847 22.8794 31.8458 22.8733 31.8825 22.8733C32.3714 22.7755 32.7871 22.3354 32.7871 21.7242C32.7871 21.1374 32.3714 20.6973 31.8825 20.575C31.8091 20.5506 31.6624 20.5506 31.5646 20.5506H28.9974V22.8977Z"
			fill="url(#paint1_linear_573_12573)" />
		<path
			d="M31.5646 17.1031C32.0536 17.1765 32.4692 17.5677 32.4692 18.1545C32.4692 18.7413 32.0536 19.1325 31.5646 19.2058C31.5402 19.2303 31.3935 19.2303 31.3201 19.2303H28.9974V17.0787H31.3201C31.3605 17.0787 31.4157 17.0861 31.4653 17.0928C31.5058 17.0982 31.5426 17.1031 31.5646 17.1031Z"
			fill="url(#paint2_linear_573_12573)" />
		<path
			d="M6.6755 6.6875C4.23051 6.6875 2.22562 8.66794 2.22562 11.1374V22.1154C3.47257 22.7266 4.76841 23.1178 6.06425 23.1178C7.60459 23.1178 8.43589 22.1887 8.43589 20.9173V15.734H12.2501V20.8929C12.2501 22.8978 11.0031 24.5359 6.7733 24.5359C4.20606 24.5359 2.20117 23.9736 2.20117 23.9736V33.3379H8.72929C11.1743 33.3379 13.1792 31.3574 13.1792 28.888V6.6875H6.6755Z"
			fill="url(#paint3_linear_573_12573)" />
		<path
			d="M18.9733 6.6875C16.5283 6.6875 14.5234 8.66794 14.5234 11.1374V16.9564C15.6481 16.0029 17.6041 15.3917 20.7582 15.5384C22.4452 15.6117 24.2545 16.0763 24.2545 16.0763V17.9589C23.3498 17.4943 22.274 17.0787 20.8804 16.9809C18.4843 16.8097 17.0418 17.9833 17.0418 20.0371C17.0418 22.1154 18.4843 23.289 20.8804 23.0934C22.274 22.9956 23.3498 22.5555 24.2545 22.1154V23.998C24.2545 23.998 22.4696 24.4626 20.7582 24.5359C17.6041 24.6826 15.6481 24.0714 14.5234 23.1178V33.3868H21.0516C23.4965 33.3868 25.5014 31.4063 25.5014 28.9369V6.6875H18.9733Z"
			fill="url(#paint4_linear_573_12573)" />
		<defs>
			<linearGradient id="paint0_linear_573_12573" x1="26.8165" y1="18.1508" x2="37.804"
				y2="18.1508" gradientUnits="userSpaceOnUse">
				<stop stop-color="#007940" />
				<stop offset="0.2285" stop-color="#00873F" />
				<stop offset="0.7433" stop-color="#40A737" />
				<stop offset="1" stop-color="#5CB531" />
			</linearGradient>
			<linearGradient id="paint1_linear_573_12573" x1="26.8165" y1="18.1508" x2="37.804"
				y2="18.1508" gradientUnits="userSpaceOnUse">
				<stop stop-color="#007940" />
				<stop offset="0.2285" stop-color="#00873F" />
				<stop offset="0.7433" stop-color="#40A737" />
				<stop offset="1" stop-color="#5CB531" />
			</linearGradient>
			<linearGradient id="paint2_linear_573_12573" x1="26.8165" y1="18.1508" x2="37.804"
				y2="18.1508" gradientUnits="userSpaceOnUse">
				<stop stop-color="#007940" />
				<stop offset="0.2285" stop-color="#00873F" />
				<stop offset="0.7433" stop-color="#40A737" />
				<stop offset="1" stop-color="#5CB531" />
			</linearGradient>
			<linearGradient id="paint3_linear_573_12573" x1="2.22006" y1="20.0138" x2="13.3776"
				y2="20.0138" gradientUnits="userSpaceOnUse">
				<stop stop-color="#1F286F" />
				<stop offset="0.4751" stop-color="#004E94" />
				<stop offset="0.8261" stop-color="#0066B1" />
				<stop offset="1" stop-color="#006FBC" />
			</linearGradient>
			<linearGradient id="paint4_linear_573_12573" x1="14.4599" y1="20.0138" x2="25.296"
				y2="20.0138" gradientUnits="userSpaceOnUse">
				<stop stop-color="#6C2C2F" />
				<stop offset="0.1735" stop-color="#882730" />
				<stop offset="0.5731" stop-color="#BE1833" />
				<stop offset="0.8585" stop-color="#DC0436" />
				<stop offset="1" stop-color="#E60039" />
			</linearGradient>
		</defs>
	</symbol>

	<symbol id="just" viewBox="0 0 40 40">
		<path d="M7 10.7148L11.0332 17.924V22.3214L7.00472 29.5164L7 10.7148Z" fill="#5B57A2" />
		<path d="M22.4844 15.3001L26.2637 12.9838L33.9982 12.9766L22.4844 20.03V15.3001Z"
			fill="#D90751" />
		<path d="M22.4647 10.6757L22.486 20.2204L18.4434 17.7364V3.46875L22.4647 10.6757Z"
			fill="#FAB718" />
		<path d="M33.9999 12.9804L26.2651 12.9876L22.4647 10.6757L18.4434 3.46875L33.9999 12.9804Z"
			fill="#ED6F26" />
		<path d="M22.486 29.5598V24.929L18.4434 22.4922L18.4456 36.774L22.486 29.5598Z" fill="#63B22F" />
		<path d="M26.2559 27.2611L11.033 17.924L7 10.7148L33.9835 27.2517L26.2559 27.2611Z"
			fill="#1487C9" />
		<path d="M18.4453 36.7767L22.4852 29.5625L26.2551 27.2672L33.9827 27.2578L18.4453 36.7767Z"
			fill="#017F36" />
		<path d="M7.00586 29.5187L18.4775 22.4913L14.6208 20.125L11.0344 22.3237L7.00586 29.5187Z"
			fill="#984995" />
	</symbol>

	<!-- <symbol id="star-icon" viewBox="0 0 24 24">
		
	</symbol> -->

</svg>