<svg width="22" height="21" viewBox="0 0 22 21" fill="none" xmlns="http://www.w3.org/2000/svg">
<path fill-rule="evenodd" clip-rule="evenodd" d="M5.85785 12.1214L3.19573 18H7.5C6.67157 18 6 18.6716 6 19.5C6 20.3284 6.67157 21 7.5 21C8.32843 21 9 20.3284 9 19.5C9 18.6716 8.32843 18 7.5 18H8.63274H15.1073H16.5C15.6716 18 15 18.6716 15 19.5C15 20.3284 15.6716 21 16.5 21C17.3284 21 18 20.3284 18 19.5C18 18.6716 17.3284 18 16.5 18H19.4237V15.8824H6.51664L7.71551 13.2353H18.5831L22 3.17647H5.09386L4.01476 0H0V2.11765H2.45979L5.85785 12.1214ZM19.0055 5.29412L17.027 11.1176H7.79159L5.81307 5.29412H19.0055Z" fill="#020020"/>
</svg>
