<svg width="22" height="19" viewBox="0 0 22 19" fill="none" xmlns="http://www.w3.org/2000/svg">
<path d="M2.4442 10.8571L11 19L19.5558 10.8571C21.0408 9.75352 22 8.00389 22 6.03169C22 2.70234 19.2621 0 15.889 0C13.8908 0 12.1121 0.953257 11 2.41897C9.8879 0.953257 8.1092 0 6.11105 0C2.7379 0 0 2.70234 0 6.03169C0 8.00389 0.9592 9.75352 2.4442 10.8571ZM6.11105 2.17143C7.35185 2.17143 8.492 2.736 9.2389 3.7202L11 6.04091L12.7611 3.7202C13.508 2.736 14.6482 2.17143 15.889 2.17143C18.0455 2.17143 19.8 3.90314 19.8 6.03169C19.8 7.25529 19.2285 8.38171 18.2319 9.12271L18.1247 9.20251L18.0279 9.29426L11 15.9833L3.97155 9.29426L3.87475 9.20251L3.7675 9.12271C2.77145 8.38171 2.2 7.25529 2.2 6.03169C2.2 3.90314 3.9545 2.17143 6.11105 2.17143Z" fill="#020020"/>
</svg>
