<svg width="20" height="18" viewBox="0 0 20 18" fill="none" xmlns="http://www.w3.org/2000/svg">
<path d="M3.9785 13.6074L1.586 15.9999L3 17.4139L5.6525 14.7614C6.9335 15.4959 8.394 15.9999 10 15.9999C16 15.9999 20 8.99994 20 8.99994C20 8.99994 18.523 6.41994 16.0215 4.39244L18.414 1.99994L17 0.585938L14.3475 3.23844C13.0665 2.50394 11.606 1.99994 10 1.99994C4 1.99994 0 8.99994 0 8.99994C0 8.99994 1.477 11.5799 3.9785 13.6074ZM14.602 5.81194C15.936 6.85744 16.9755 8.13094 17.6 8.99644C16.364 10.6979 13.512 13.9999 10 13.9999C8.976 13.9999 8.0135 13.7184 7.129 13.2849L7.971 12.4429C8.5665 12.7944 9.2585 12.9999 10 12.9999C12.209 12.9999 14 11.2089 14 8.99994C14 8.25844 13.7945 7.56644 13.443 6.97094L14.602 5.81194ZM8.0745 9.51144C8.031 9.34694 8 9.17794 8 8.99994C8 7.89694 8.897 6.99994 10 6.99994C10.178 6.99994 10.347 7.03094 10.5115 7.07444L8.0745 9.51144ZM11.9255 8.48844C11.969 8.65294 12 8.82194 12 8.99994C12 10.1029 11.103 10.9999 10 10.9999C9.822 10.9999 9.653 10.9689 9.4885 10.9254L11.9255 8.48844ZM10 3.99994C11.024 3.99994 11.9865 4.28144 12.871 4.71494L12.029 5.55694C11.4335 5.20544 10.7415 4.99994 10 4.99994C7.791 4.99994 6 6.79094 6 8.99994C6 9.74144 6.2055 10.4334 6.557 11.0289L5.398 12.1879C4.064 11.1424 3.0245 9.86894 2.3995 9.00344C3.636 7.30194 6.488 3.99994 10 3.99994Z" fill="#020020"/>
</svg>
