<svg width="20" height="14" viewBox="0 0 20 14" fill="none" xmlns="http://www.w3.org/2000/svg">
<path fill-rule="evenodd" clip-rule="evenodd" d="M20 7C20 7 16 14 10 14C5.80242 14 1.96495 10.4323 0 7C0 7 4 0 10 0C14.1976 0 18.035 3.56765 20 7ZM10 12C13.512 12 16.364 8.698 17.6 6.9965C15.8802 4.61307 13.1427 2 10 2C6.488 2 3.636 5.302 2.3995 7.0035C4.12032 9.3865 6.85671 12 10 12Z" fill="#020020"/>
<path fill-rule="evenodd" clip-rule="evenodd" d="M10 9.0035C11.1046 9.0035 12 8.10807 12 7.0035C12 5.89893 11.1046 5.0035 10 5.0035C8.89543 5.0035 8 5.89893 8 7.0035C8 8.10807 8.89543 9.0035 10 9.0035ZM10 11.0035C12.2091 11.0035 14 9.21264 14 7.0035C14 4.79436 12.2091 3.0035 10 3.0035C7.79086 3.0035 6 4.79436 6 7.0035C6 9.21264 7.79086 11.0035 10 11.0035Z" fill="#020020"/>
</svg>
