<svg width="20" height="21" viewBox="0 0 20 21" fill="none" xmlns="http://www.w3.org/2000/svg">
<path d="M13.8305 11.3006C15.3389 10.1493 16.3158 8.34067 16.3158 6.3C16.3158 2.82082 13.4879 0 10 0C6.51211 0 3.68421 2.82082 3.68421 6.3C3.68421 8.34067 4.66105 10.1493 6.16947 11.3006C2.54737 12.8788 0 16.6241 0 21H20C20 16.6241 17.4526 12.8788 13.8305 11.3006ZM5.78947 6.3C5.78947 3.98423 7.67842 2.1 10 2.1C12.3216 2.1 14.2105 3.98423 14.2105 6.3C14.2105 8.61577 12.3216 10.5 10 10.5C7.67842 10.5 5.78947 8.61577 5.78947 6.3ZM10 12.6C13.6721 12.6 16.7663 15.2812 17.6447 18.9H2.35526C3.23368 15.2812 6.32789 12.6 10 12.6Z" fill="#020020"/>
</svg>
